<?xml version="1.0" encoding="utf-8"?>
<!-- Generator: Adobe Illustrator 23.0.6, SVG Export Plug-In . SVG Version: 6.00 Build 0)  -->
<svg version="1.1" id="Lager_1" xmlns="http://www.w3.org/2000/svg" xmlns:xlink="http://www.w3.org/1999/xlink" x="0px" y="0px"
	 viewBox="0 0 420 594" style="enable-background:new 0 0 420 594;" xml:space="preserve">
<style type="text/css">
	.st0{fill:#181329;}
</style>
<g>
	<path class="st0" d="M420,594H3.7c0-111.7,93.2-202.3,208.1-202.3S420,482.3,420,594z"/>
	<g>
		<path class="st0" d="M420,0v3.5c0,36.6-11.2,72.3-32.1,102c-25.7,41.1-59.6,59.7-97.5,77.6c-17.8-24.7-46.3-40.8-78.5-40.8
			c-53.9,0-97.6,44.9-97.6,100.4c0,15,3.2,29.3,9,42.1c-1.3,1.1-2.7,2.2-4,3.2c-32.2,26.3-61.7,55.8-86.4,89.7L3.7,432.9
			c-6.4-40.4-3.2-71.2,0-89.7C24.2,224.9,116.9,183.8,149.1,45.3c4.6-20-0.9-36.4,0-45.3H420z"/>
	</g>
	<g>
		<path class="st0" d="M307.2,242.8c0,54.1-42.8,98.1-95.4,98.1c-16.9,0-33.4-4.6-47.9-13.3c33.3-26.4,66.8-47,89.2-60.4
			c17.1-10.2,34.7-18.4,51.7-26.3l2.3-1.1C307.2,240.7,307.2,241.7,307.2,242.8z"/>
	</g>
</g>
</svg>
