<?xml version="1.0" encoding="utf-8"?>
<!-- Generator: Adobe Illustrator 23.0.6, SVG Export Plug-In . SVG Version: 6.00 Build 0)  -->
<svg version="1.1" id="Lager_1" xmlns="http://www.w3.org/2000/svg" xmlns:xlink="http://www.w3.org/1999/xlink" x="0px" y="0px"
	 viewBox="0 0 420 594" style="enable-background:new 0 0 420 594;" xml:space="preserve">
<style type="text/css">
	.st0{fill:#FFFFFF;}
</style>
<g>
	<g>
		<g>
			<path class="st0" d="M420,594H3.7c0.7-110.8,93.8-200.7,208.1-200.7C326.2,393.3,419.3,483.2,420,594z"/>
		</g>
	</g>
	<g>
		<g>
			<g>
				<path class="st0" d="M420,0v2.3c0,36.8-11.1,71.9-32.1,101.7c-25.6,40.9-58.9,59.2-96.7,77.1c-18.7-25.5-48.3-40.6-79.3-40.6
					c-54.8,0-99.3,45.7-99.3,102c0,14.6,3,28.7,8.8,41.9c-1.1,0.9-2.2,1.8-3.3,2.7c-35.2,28.7-63.7,58.3-87.2,90.4L3.2,429.7
					C-1.2,399.9-1,371,3.7,343.6c10.1-58.5,38-98.2,67.6-140.1c30.6-43.5,62.2-88.4,78.6-158.8c3.1-13.3,1.8-24.7,0.7-34
					c-0.5-4.1-0.9-7.8-0.7-10.6H420z"/>
			</g>
		</g>
	</g>
	<g>
		<g>
			<g>
				<path class="st0" d="M306.6,242.5c0,53.7-42.5,97.3-94.7,97.3c-16.2,0-32.1-4.2-46.1-12.3c33-25.9,66.1-46.3,88.2-59.5
					c17.1-10.1,34.6-18.3,51.6-26.3l1-0.4C306.6,241.8,306.6,242.1,306.6,242.5z"/>
			</g>
		</g>
	</g>
</g>
</svg>
