<?xml version="1.0" encoding="utf-8"?>
<!-- Generator: Adobe Illustrator 23.0.6, SVG Export Plug-In . SVG Version: 6.00 Build 0)  -->
<svg version="1.1" id="Lager_1" xmlns="http://www.w3.org/2000/svg" xmlns:xlink="http://www.w3.org/1999/xlink" x="0px" y="0px"
	 viewBox="0 0 420 594" style="enable-background:new 0 0 420 594;" xml:space="preserve">
<style type="text/css">
	.st0{fill:#FFFFFF;}
	.st1{fill:#3BECD8;}
</style>
<g>
	<g>
		<g>
			<path class="st0" d="M418.8,594H4.9c0.6-110.5,93.2-200.3,207-200.3C325.6,393.7,418.2,483.5,418.8,594z"/>
		</g>
	</g>
	<g>
		<g>
			<path class="st1" d="M420,0v3.5c0,36.7-11.2,72.5-32.1,102.2c-25.7,41.2-59.6,59.8-97.5,77.8c-17.8-24.8-46.3-40.8-78.5-40.8
				c-53.9,0-97.6,45-97.6,100.6c0,15.1,3.2,29.4,9,42.2c-1.3,1.1-2.7,2.2-4,3.2C87,315,57.5,344.6,32.8,378.5L3.7,433.7
				c-6.4-40.5-3.2-71.3,0-89.9C24.2,225.4,116.9,184.2,149.1,45.4c4.6-20-0.9-36.5,0-45.4H420z"/>
		</g>
	</g>
	<g>
		<g>
			<g>
				<path class="st0" d="M306.1,243.2c0,53.6-42.3,97.1-94.2,97.1c-16.1,0-31.9-4.2-45.8-12.3c32.8-25.9,65.7-46.2,87.7-59.3
					c17-10.1,34.4-18.3,51.4-26.2l1-0.4C306.1,242.5,306.1,242.8,306.1,243.2z"/>
			</g>
		</g>
	</g>
</g>
</svg>
