<?xml version="1.0" encoding="utf-8"?>
<!-- Generator: Adobe Illustrator 23.0.6, SVG Export Plug-In . SVG Version: 6.00 Build 0)  -->
<svg version="1.1" id="Lager_1" xmlns="http://www.w3.org/2000/svg" xmlns:xlink="http://www.w3.org/1999/xlink" x="0px" y="0px"
	 viewBox="0 0 928 506" style="enable-background:new 0 0 928 506;" xml:space="preserve">
<style type="text/css">
	.st0{fill:#181329;}
</style>
<g>
	<g>
		<g>
			<path class="st0" d="M262.8,315.2c-38.3,0-63.1,19.8-63.1,50.4c0,30.6,24.8,50.3,63.1,50.3c38.4,0,63.2-19.8,63.2-50.3
				C326,335,301.2,315.2,262.8,315.2z M262.8,408.7c-21.3,0-35-16.9-35-43c0-26.6,13.4-43.1,35-43.1s35,16.5,35,43.1
				C297.8,392.2,284.4,408.7,262.8,408.7z"/>
		</g>
		<g>
			<path class="st0" d="M594.2,317.2h-60.4v2.6h2.6c5.3,0,9.4,3.3,9.6,7.8v75.5c-0.1,4.5-4.3,8.1-9.4,8.1h-2.7v2.6h60.3
				c38.4,0,61.3-18,61.3-48.3C655.5,335.3,632.6,317.2,594.2,317.2z M592.1,406.5h-19.5v-82h19.5c22.2,0,35.4,15.4,35.4,41.1
				C627.5,391.2,614.3,406.5,592.1,406.5z"/>
		</g>
		<g>
			<path class="st0" d="M760,411.3v2.6h-51.3v-2.6h2.6c5.4,0,9.7-3.5,9.7-8v-75.5c0-4.5-4.3-8-9.7-8h-2.6v-2.6H760v2.6h-2.5
				c-5.4,0-9.6,3.4-9.8,7.9v75.7c0.2,4.5,4.4,7.9,9.8,7.9H760z"/>
		</g>
		<g>
			<path class="st0" d="M923,397.6l-0.1,0.1c-4.7,6.8-16.7,18.2-44.9,18.2c-40.3-0.2-64.4-19-64.4-50.4c0-31.5,24.1-50.3,64.4-50.3
				c14.7,0,29.7,2.7,40.1,7.3l0.3,0.1v26.2h-2.2l-0.1-0.4c-5.4-17.7-16.9-25.9-36.2-25.9c-24.3,0-38.2,15.6-38.2,42.7
				c0,26.7,13.6,42.9,36.4,43.4c25.2,0.1,36.1-9.5,40.5-35.3l0.1-0.4l2.3,0L923,397.6z"/>
		</g>
	</g>
	<g>
		<path class="st0" d="M486.5,322.6v26.2h-2.3l-0.1-0.4c-5.4-17.7-16.9-26-36.2-26c-22.3,0-36.2,13.6-38,37.3h0l0,43.6
			c0,5,4.7,7.9,9.1,7.9h2.4v2.6h-49.8v-2.6h2.6c4.9,0,8.8-3.4,8.9-7.8v-75.9c-0.1-4.4-3.9-7.8-8.8-7.8h-2.7v-2.6l38.3,0v4.7
			c10-4.5,22.1-6.7,36.2-6.7c14.7,0,29.7,2.7,40.1,7.3L486.5,322.6z"/>
	</g>
	<g>
		<g>
			<path class="st0" d="M59.7,413.9H5l0-2.6h3.8c5.6,0,10.3-4.1,10.4-9.2v-18.8l28.4,24.4c0.6,0.7,1.3,1.3,2.1,1.8
				c1.8,1.2,3.9,1.8,6.1,1.8h3.8L59.7,413.9z"/>
		</g>
	</g>
	<g>
		<path class="st0" d="M148.8,301.3l0,2.6h-3.8c-5.7,0-10.2,4-10.4,9v82.3c0,11.8,2,20.1,2,20.2l0.1,0.6h-2.4l-0.1-0.1L19.2,317.5
			v-0.2c-0.2-10.5-2-17.6-2-17.7l-0.2-0.6h2.6l0.1,0.1l88.5,76v-61.9c-0.1-5-4.8-9.2-10.4-9.2h-3.8l0-2.6H148.8z"/>
	</g>
</g>
<g>
	<g>
		<path class="st0" d="M190.2,503.9l0,1.6h-13.4l0-1.6h1.2c1.7,0,3.1-1.4,3.1-3v-31.3c0-1.7-1.4-3-3.1-3h-1.2l0-1.6h13.4l0,1.6H189
			c-1.7,0-3.1,1.3-3.1,3v31.3c0,1.7,1.4,3,3.1,3H190.2z"/>
	</g>
	<g>
		<path class="st0" d="M287.7,503.9v1.6H275v-1.5h1.3c0.5,0,0.9-0.2,1.2-0.6c0.2-0.2,0.4-0.6,0.3-1l-2.8-21.6l-9.9,19.5
			c0,0-1.6,3.4-2,5.6l-0.1,0.4H262l-13-25l-2.3,21c0,0.4,0.1,0.8,0.4,1.1c0.3,0.4,0.8,0.6,1.2,0.6h1.3v1.5h-11.5v-1.6h1.3
			c1.5,0,3.1-0.8,3.4-2.8l4.4-31.3h1.3l14.6,28l14.1-28h1.3l4.6,31.4c0.3,1.8,1.9,2.7,3.3,2.7H287.7z"/>
	</g>
	<g>
		<path class="st0" d="M369.9,503.9c-1.5,0-2.9-1.1-3.9-3l-14-31h-1.3l0,0.5c0,0.5-0.4,1.9-2,5.4c0,0.1-0.1,0.2-0.1,0.3l-11.7,25
			c-0.9,1.9-2.4,3-4,3h-0.9v1.6h11.7v-1.6h-0.9c-0.5,0-1.1-0.3-1.4-0.7c-0.4-0.6-0.4-1.3-0.1-2.1l3-7h13.6l2.9,7.2
			c0.3,0.8,0.2,1.5-0.1,2c-0.3,0.4-0.8,0.7-1.4,0.7h-0.9v1.6h12.6v-1.6H369.9z M345.4,491.3l5.8-13.6l5.6,13.6H345.4z"/>
	</g>
	<g>
		<path class="st0" d="M455.5,488.4v1.6h-1.3c-0.7,0-1.3,0.2-1.7,0.5c-0.3,0.3-0.4,0.7-0.4,1.2v7l-0.1,0.1
			c-1.4,1.7-6.7,7.5-16.4,7.5c-11.5-0.1-19-7.2-19-18.2c0-11,7.4-18.2,19-18.2c5.3,0,9.5,1.1,13.4,3.5l0.2,0.1l1.4,8.8h-1.5
			l-0.1-0.4c-1.6-6.4-5.9-9.3-13.5-9.3c-8.4,0-13.8,6.1-13.8,15.5c0,9.4,5.5,15.5,13.9,15.5c4.8,0,8.6-1.5,11.9-4.6l0.1-7.3
			c0-0.5-0.1-0.9-0.4-1.2c-0.4-0.4-0.9-0.5-1.7-0.5c0,0,0,0,0,0h-1.3v-1.6H455.5z"/>
	</g>
	<g>
		<path class="st0" d="M530.2,496.4l-3.5,9.1H503l0-1.6h1.3c1.5,0,2.7-1.1,2.8-2.5v-26.7c0-1.4-1.2-2.5-2.8-2.5H503l0-1.6h17
			c2.3,0,5.3-0.5,6.1-0.9l0.7-0.3v7.6l-1.6,0v-1.4c0-1.4-1-2.4-2.3-2.4h-11.2v13.3h9.1c1.6,0,1.8-1.3,1.8-1.9v-1.2l1.6,0v8.9l-1.6,0
			v-1.2c0-0.7-0.2-1.8-1.7-1.9h-9.2v13.3h8.3c4.9-0.1,6.8-2.3,8.5-6.1l0.1-0.3H530.2z"/>
	</g>
	<g>
		<path class="st0" d="M677.3,465v1.6h-1.4c-1.3,0-2.4,0.9-2.5,2.2V491c0,9.1-6.3,15.2-15.7,15.2c-9.7,0-16.1-6.1-16.1-15.1v-22.3
			c0-1.3-1.1-2.3-2.5-2.3h-1.4V465h12.4v1.6h-1.4c-1.4,0-2.4,1-2.5,2.2v21.5c0,7.9,4.6,13.2,11.5,13.2c7.2,0,12-5,12.1-12.5v-22.2
			c-0.1-1.3-1.1-2.2-2.5-2.2h-1.4V465H677.3z"/>
	</g>
	<g>
		<path class="st0" d="M751.1,463.7v7.6l-1.6,0V470c0-1.2-1-2.3-2.2-2.3h-11.4v16.4h9c1.2,0,2.2-1.1,2.2-2.3v-1.3l1.5,0v9.9l-1.5,0
			v-1.3c0-1.2-1-2.2-2.2-2.3h-9.1v14c0,1.7,1.4,3,3.1,3h1.2l0,1.6h-13.3l0-1.6h1.2c1.7,0,3.1-1.4,3.1-3.1v-31.5
			c0-1.5-1.4-2.7-3.1-2.7h-1.2l0-1.6h17c2.5,0,5.6-0.6,6.5-1L751.1,463.7z"/>
	</g>
</g>
<g>
	<path class="st0" d="M552.1,248.9H377.5c0-46.9,39.1-84.8,87.3-84.8S552.1,202.1,552.1,248.9z"/>
	<g>
		<path class="st0" d="M552.1-0.3v1.5c0,15.4-4.7,30.3-13.5,42.8c-10.8,17.2-25,25-40.9,32.6c-7.5-10.4-19.4-17.1-32.9-17.1
			c-22.6,0-40.9,18.9-40.9,42.1c0,6.3,1.3,12.3,3.8,17.7c-0.6,0.4-1.1,0.9-1.7,1.4c-13.5,11-25.9,23.4-36.2,37.6l-12.2,23.1
			c-2.7-17-1.3-29.9,0-37.6c8.6-49.6,47.5-66.8,61-124.9c1.9-8.4-0.4-15.3,0-19H552.1z"/>
	</g>
	<g>
		<path class="st0" d="M504.8,101.6c0,22.7-17.9,41.1-40,41.1c-7.1,0-14-1.9-20.1-5.6c14-11.1,28-19.7,37.4-25.3
			c7.2-4.3,14.5-7.7,21.7-11.1l1-0.5C504.8,100.7,504.8,101.1,504.8,101.6z"/>
	</g>
</g>
<g>
	<g>
		<g>
			<path class="st0" d="M60.3,480.1C60.3,480.1,60.2,480.1,60.3,480.1L60.3,480.1C60.3,480.1,60.3,480.1,60.3,480.1z"/>
		</g>
		<g>
			<path class="st0" d="M61.5,483c-0.4,0.1-0.8,0.1-1.1,0.2l-0.2,0c-37.4,6-51.6,0.8-56.9-4.6c-3.4-3.4-3.3-6.9-3.2-7.9
				c0-0.1,0-0.2,0.1-0.3c0.2-0.7,0.4-1.3,0.6-1.9c0.3-0.7,0.6-1.3,1-1.9c0.8-1.2,1.7-2.3,2.8-3.2c1.1-0.9,2.3-1.6,3.6-2
				c0.6-0.3,1.3-0.3,2-0.5c0.7-0.1,1.3-0.2,2-0.2c-0.6,0.2-1.3,0.3-1.9,0.6c-0.6,0.3-1.2,0.5-1.8,0.8c-1.1,0.6-2.1,1.4-2.9,2.4
				c-0.8,0.9-1.4,2-1.8,3.1c-0.2,0.6-0.4,1.1-0.5,1.7c-0.1,0.5-0.2,1.2-0.2,1.6v0c0,0.3-0.3,2.9,2.5,5.6c4,4,16.4,9.7,54.2,3.7
				c0.1,0,0.1,0,0.2,0c0.1,0,0.2,0,0.3,0c0,0,0,0,0,0c37-5.8,51.4-0.6,57,4.8c3.8,3.7,3.7,7.4,3.6,8.1c0,0.1,0,0.1,0,0.1h0
				c0,0.2-0.1,0.3-0.2,0.5c-0.1,0.2-0.1,0.3-0.2,0.5c-0.2,0.3-0.3,0.6-0.5,0.9c-0.4,0.5-0.8,1-1.3,1.4c-0.9,0.8-2,1.4-3.1,1.7
				c-1.1,0.4-2.2,0.5-3.3,0.6c-0.5,0-1.1,0.1-1.6,0.1l-1.6-0.1l1.6-0.3c0.5-0.1,1-0.3,1.5-0.4c1-0.3,2-0.7,2.8-1.3
				c0.8-0.5,1.6-1.2,2.1-1.9c0.3-0.4,0.5-0.8,0.6-1.2c0.1-0.2,0.1-0.4,0.2-0.6c0-0.1,0-0.2,0-0.3c0,0,0,0,0-0.1h0
				c0-0.1,0.3-2.9-2.8-5.8c-4.2-4-16.7-9.7-53.1-4.1"/>
		</g>
	</g>
	<g>
		<g>
			<path class="st0" d="M807.1,493.2L807.1,493.2L807.1,493.2C807.1,493.2,807.1,493.2,807.1,493.2z"/>
			<path class="st0" d="M810.1,492.8L810.1,492.8c0,0,0-0.1,0-0.1h0C810.1,492.8,810.1,492.8,810.1,492.8z"/>
		</g>
		<g>
			<path class="st0" d="M866,482.9c-36.5-5.6-48.9,0.1-53.1,4.1c-2.8,2.6-2.8,5.1-2.8,5.7h0c0,0,0,0.1,0,0.1c0,0,0,0,0,0.1
				c0,0.1,0,0.2,0,0.3c0,0.2,0.1,0.4,0.2,0.6c0.1,0.4,0.4,0.8,0.6,1.2c0.5,0.7,1.3,1.4,2.1,1.9c0.8,0.6,1.8,0.9,2.8,1.3
				c0.5,0.1,1,0.3,1.5,0.4l1.6,0.3l-1.6,0.1c-0.5,0-1.1,0-1.6-0.1c-1.1-0.1-2.2-0.3-3.3-0.6c-1.1-0.4-2.2-0.9-3.1-1.7
				c-0.5-0.4-0.9-0.9-1.3-1.4c-0.2-0.3-0.4-0.6-0.5-0.9c-0.1-0.2-0.2-0.3-0.2-0.5c-0.1-0.2-0.1-0.3-0.2-0.5c0,0,0,0,0,0c0,0,0,0,0,0
				s0,0,0,0c0-0.7-0.2-4.5,3.6-8.1c5.6-5.4,20.1-10.7,57-4.8c0,0,0,0,0,0l0,0c0.1,0,0.2,0,0.3,0c0.1,0,0.1,0,0.2,0
				c38,6.1,50.3,0.2,54.3-3.8c2.6-2.6,2.4-5.2,2.4-5.5v0c0-0.5-0.1-1.1-0.2-1.6c-0.1-0.6-0.3-1.2-0.5-1.7c-0.4-1.1-1-2.2-1.8-3.1
				c-0.8-0.9-1.8-1.8-2.9-2.4c-0.5-0.4-1.2-0.5-1.8-0.8c-0.6-0.2-1.3-0.4-1.9-0.6c0.7,0.1,1.3,0.1,2,0.2c0.6,0.2,1.3,0.2,2,0.5
				c1.3,0.4,2.5,1.1,3.6,2c1.1,0.9,2.1,2,2.8,3.2c0.4,0.6,0.7,1.3,1,1.9c0.3,0.6,0.5,1.2,0.6,1.9c0,0.1,0,0.2,0.1,0.3
				c0.1,1,0.2,4.5-3.2,7.9c-5.3,5.4-19.5,10.6-56.9,4.6l-0.2,0c-0.4-0.1-0.8-0.1-1.2-0.2"/>
		</g>
	</g>
</g>
</svg>
