<?xml version="1.0" encoding="utf-8"?>
<!-- Generator: Adobe Illustrator 23.0.6, SVG Export Plug-In . SVG Version: 6.00 Build 0)  -->
<svg version="1.1" id="Lager_1" xmlns="http://www.w3.org/2000/svg" xmlns:xlink="http://www.w3.org/1999/xlink" x="0px" y="0px"
	 viewBox="0 0 1482 333" style="enable-background:new 0 0 1482 333;" xml:space="preserve">
<style type="text/css">
	.st0{fill:#181329;}
	.st1{fill:#FFFFFF;}
	.st2{fill:none;}
	.st3{fill:#3BECD8;}
</style>
<g>
	<g>
		<g>
			<path class="st0" d="M-5225.2-280.8c-38.3,0-63.1,19.8-63.1,50.4c0,30.6,24.8,50.3,63.1,50.3c38.4,0,63.2-19.8,63.2-50.3
				C-5162-261-5186.8-280.8-5225.2-280.8z M-5225.2-187.3c-21.3,0-35-16.9-35-43c0-26.6,13.4-43.1,35-43.1s35,16.5,35,43.1
				C-5190.2-203.8-5203.6-187.3-5225.2-187.3z"/>
		</g>
		<g>
			<path class="st0" d="M-4893.8-278.8h-60.4v2.6h2.6c5.3,0,9.4,3.3,9.6,7.8v75.5c-0.1,4.5-4.3,8.1-9.4,8.1h-2.7v2.6h60.3
				c38.4,0,61.3-18,61.3-48.3C-4832.5-260.7-4855.4-278.8-4893.8-278.8z M-4895.9-189.5h-19.5v-82h19.5c22.2,0,35.4,15.4,35.4,41.1
				C-4860.5-204.8-4873.7-189.5-4895.9-189.5z"/>
		</g>
		<g>
			<path class="st0" d="M-4728-184.7v2.6h-51.3v-2.6h2.6c5.4,0,9.7-3.5,9.7-8v-75.5c0-4.5-4.3-8-9.7-8h-2.6v-2.6h51.2v2.6h-2.5
				c-5.4,0-9.6,3.4-9.8,7.9v75.7c0.2,4.5,4.4,7.9,9.8,7.9H-4728z"/>
		</g>
		<g>
			<path class="st0" d="M-4565-198.4l-0.1,0.1c-4.7,6.8-16.7,18.2-44.9,18.2c-40.3-0.2-64.4-19-64.4-50.4
				c0-31.5,24.1-50.3,64.4-50.3c14.7,0,29.7,2.7,40.1,7.3l0.3,0.1v26.2h-2.2l-0.1-0.4c-5.4-17.7-16.9-25.9-36.2-25.9
				c-24.3,0-38.2,15.6-38.2,42.7c0,26.7,13.6,42.9,36.4,43.4c25.2,0.1,36.1-9.5,40.5-35.3l0.1-0.4l2.3,0L-4565-198.4z"/>
		</g>
	</g>
	<g>
		<path class="st0" d="M-5001.5-273.4v26.2h-2.3l-0.1-0.4c-5.4-17.7-16.9-26-36.2-26c-22.3,0-36.2,13.6-38,37.3h0l0,43.6
			c0,5,4.7,7.9,9.1,7.9h2.4v2.6h-49.8v-2.6h2.6c4.9,0,8.8-3.4,8.9-7.8v-75.9c-0.1-4.4-3.9-7.8-8.8-7.8h-2.7v-2.6l38.3,0v4.7
			c10-4.5,22.1-6.7,36.2-6.7c14.7,0,29.7,2.7,40.1,7.3L-5001.5-273.4z"/>
	</g>
	<g>
		<g>
			<path class="st0" d="M-5428.3-182.1h-54.7l0-2.6h3.8c5.6,0,10.3-4.1,10.4-9.2v-18.8l28.4,24.4c0.6,0.7,1.3,1.3,2.1,1.8
				c1.8,1.2,3.9,1.8,6.1,1.8h3.8L-5428.3-182.1z"/>
		</g>
	</g>
	<g>
		<path class="st0" d="M-5339.2-294.7l0,2.6h-3.8c-5.7,0-10.2,4-10.4,9v82.3c0,11.8,2,20.1,2,20.2l0.1,0.6h-2.4l-0.1-0.1
			l-114.9-98.5v-0.2c-0.2-10.5-2-17.6-2-17.7l-0.2-0.6h2.6l0.1,0.1l88.5,76v-61.9c-0.1-5-4.8-9.2-10.4-9.2h-3.8l0-2.6H-5339.2z"/>
	</g>
</g>
<g>
	<g>
		<path class="st0" d="M-5297.8-92.1l0,1.6h-13.3l0-1.6h1.2c1.7,0,3.1-1.4,3.1-3v-31.3c0-1.7-1.4-3-3.1-3h-1.2l0-1.6h13.3l0,1.6
			h-1.2c-1.7,0-3.1,1.3-3.1,3v31.3c0,1.7,1.4,3,3.1,3H-5297.8z"/>
	</g>
	<g>
		<path class="st0" d="M-5200.3-92.1v1.6h-12.7v-1.5h1.3c0.5,0,0.9-0.2,1.2-0.6c0.2-0.2,0.4-0.6,0.3-1l-2.8-21.6l-9.9,19.5
			c0,0-1.6,3.4-2,5.6l-0.1,0.4h-1.3l-13-25l-2.3,21c0,0.4,0.1,0.8,0.4,1.1c0.3,0.4,0.8,0.6,1.2,0.6h1.3v1.5h-11.4v-1.6h1.3
			c1.5,0,3.1-0.8,3.4-2.8l4.4-31.3h1.3l14.6,28l14.1-28h1.3l4.6,31.4c0.3,1.8,1.9,2.7,3.4,2.7H-5200.3z"/>
	</g>
	<g>
		<path class="st0" d="M-5118.1-92.1c-1.5,0-2.9-1.1-3.9-3l-14-31h-1.3l0,0.5c0,0.5-0.4,1.9-2,5.4c-0.1,0.1-0.1,0.2-0.1,0.3
			l-11.7,25c-0.9,1.9-2.4,3-4,3h-0.9v1.6h11.7v-1.6h-0.9c-0.5,0-1.1-0.3-1.4-0.7c-0.4-0.6-0.4-1.3-0.1-2.1l3-7h13.6l2.9,7.2
			c0.3,0.8,0.2,1.5-0.1,2c-0.3,0.4-0.8,0.7-1.4,0.7h-0.9v1.6h12.6v-1.6H-5118.1z M-5142.6-104.7l5.8-13.6l5.6,13.6H-5142.6z"/>
	</g>
	<g>
		<path class="st0" d="M-5032.5-107.6v1.6h-1.3c-0.7,0-1.3,0.2-1.6,0.5c-0.3,0.3-0.4,0.7-0.4,1.2v7l-0.1,0.1
			c-1.4,1.7-6.6,7.5-16.4,7.5c-11.5-0.1-19-7.2-19-18.2c0-11,7.4-18.2,19-18.2c5.3,0,9.5,1.1,13.4,3.5l0.2,0.1l1.4,8.8h-1.5
			l-0.1-0.4c-1.6-6.4-5.9-9.3-13.5-9.3c-8.4,0-13.8,6.1-13.8,15.5c0,9.4,5.5,15.5,13.9,15.5c4.8,0,8.6-1.5,11.9-4.6l0.1-7.3
			c0-0.5-0.1-0.9-0.4-1.2c-0.4-0.4-0.9-0.5-1.7-0.5c0,0,0,0,0,0h-1.3v-1.6H-5032.5z"/>
	</g>
	<g>
		<path class="st0" d="M-4957.8-99.6l-3.5,9.1h-23.8l0-1.6h1.3c1.5,0,2.7-1.1,2.8-2.5v-26.7c0-1.4-1.2-2.5-2.8-2.5h-1.3l0-1.6h17
			c2.3,0,5.3-0.5,6.1-0.9l0.7-0.3v7.6l-1.6,0v-1.4c0-1.4-1-2.4-2.3-2.4h-11.2v13.3h9.1c1.6,0,1.8-1.3,1.8-1.9v-1.2l1.6,0v8.9l-1.6,0
			v-1.2c0-0.7-0.2-1.8-1.7-1.9h-9.2v13.3h8.3c4.9-0.1,6.8-2.3,8.5-6.1l0.1-0.3H-4957.8z"/>
	</g>
	<g>
		<path class="st0" d="M-4810.7-131v1.6h-1.4c-1.3,0-2.4,0.9-2.5,2.2v22.3c0,9.1-6.3,15.2-15.7,15.2c-9.7,0-16.1-6.1-16.1-15.1
			v-22.3c0-1.3-1.1-2.3-2.5-2.3h-1.4v-1.6h12.4v1.6h-1.4c-1.4,0-2.4,1-2.5,2.2v21.5c0,7.9,4.6,13.2,11.5,13.2c7.2,0,12-5,12.1-12.5
			v-22.2c-0.1-1.3-1.1-2.2-2.5-2.2h-1.4v-1.6H-4810.7z"/>
	</g>
	<g>
		<path class="st0" d="M-4736.9-132.3v7.6l-1.6,0v-1.3c0-1.2-1-2.3-2.2-2.3h-11.4v16.4h9c1.2,0,2.2-1.1,2.2-2.3v-1.3l1.6,0v9.9
			l-1.6,0v-1.3c0-1.2-1-2.2-2.2-2.3h-9.1v14c0,1.7,1.4,3,3.1,3h1.2l0,1.6h-13.3l0-1.6h1.2c1.7,0,3.1-1.4,3.1-3.1v-31.5
			c0-1.5-1.4-2.7-3.1-2.7h-1.2l0-1.6h17c2.5,0,5.6-0.6,6.5-1L-4736.9-132.3z"/>
	</g>
</g>
<g>
	<path class="st0" d="M-4935.9-347.1h-174.6c0-46.9,39.1-84.8,87.3-84.8S-4935.9-393.9-4935.9-347.1z"/>
	<g>
		<path class="st0" d="M-4935.9-596.3v1.5c0,15.4-4.7,30.3-13.5,42.8c-10.8,17.2-25,25-40.9,32.6c-7.5-10.4-19.4-17.1-32.9-17.1
			c-22.6,0-40.9,18.9-40.9,42.1c0,6.3,1.3,12.3,3.8,17.7c-0.6,0.4-1.1,0.9-1.7,1.4c-13.5,11-25.9,23.4-36.2,37.6l-12.2,23.1
			c-2.7-17-1.3-29.9,0-37.6c8.6-49.6,47.5-66.8,61-124.9c1.9-8.4-0.4-15.3,0-19H-4935.9z"/>
	</g>
	<g>
		<path class="st0" d="M-4983.2-494.4c0,22.7-17.9,41.1-40,41.1c-7.1,0-14-1.9-20.1-5.6c14-11.1,28-19.7,37.4-25.3
			c7.2-4.3,14.5-7.7,21.7-11.1l1-0.5C-4983.2-495.3-4983.2-494.9-4983.2-494.4z"/>
	</g>
</g>
<g>
	<g>
		<g>
			<path class="st0" d="M-5427.7-115.9C-5427.8-115.9-5427.8-115.9-5427.7-115.9L-5427.7-115.9
				C-5427.8-115.9-5427.8-115.9-5427.7-115.9z"/>
		</g>
		<g>
			<path class="st0" d="M-5426.5-113c-0.4,0.1-0.8,0.1-1.1,0.2l-0.2,0c-37.4,6-51.6,0.8-56.9-4.6c-3.4-3.4-3.3-6.9-3.2-7.9
				c0-0.1,0-0.2,0.1-0.3c0.2-0.7,0.4-1.3,0.6-1.9c0.3-0.7,0.6-1.3,1-1.9c0.8-1.2,1.7-2.3,2.8-3.2c1.1-0.9,2.3-1.6,3.6-2
				c0.6-0.3,1.3-0.3,2-0.5c0.7-0.1,1.3-0.2,2-0.2c-0.6,0.2-1.3,0.3-1.9,0.6c-0.6,0.3-1.2,0.5-1.8,0.8c-1.1,0.6-2.1,1.4-2.9,2.4
				c-0.8,0.9-1.4,2-1.8,3.1c-0.2,0.6-0.4,1.1-0.5,1.7c-0.1,0.5-0.2,1.2-0.2,1.6v0c0,0.3-0.3,2.9,2.5,5.6c4,4,16.4,9.7,54.2,3.7
				c0.1,0,0.1,0,0.2,0c0.1,0,0.2,0,0.3,0c0,0,0,0,0,0c37-5.8,51.4-0.6,57,4.8c3.8,3.7,3.7,7.4,3.6,8.1c0,0.1,0,0.1,0,0.1h0
				c-0.1,0.2-0.1,0.3-0.2,0.5c-0.1,0.2-0.1,0.3-0.2,0.5c-0.2,0.3-0.3,0.6-0.5,0.9c-0.4,0.5-0.8,1-1.3,1.4c-0.9,0.8-2,1.4-3.1,1.7
				c-1.1,0.4-2.2,0.5-3.3,0.6c-0.6,0-1.1,0.1-1.6,0.1l-1.6-0.1l1.6-0.3c0.5-0.1,1-0.3,1.5-0.4c1-0.3,2-0.7,2.8-1.3
				c0.8-0.5,1.6-1.2,2.1-1.9c0.3-0.4,0.5-0.8,0.6-1.2c0.1-0.2,0.1-0.4,0.2-0.6c0-0.1,0-0.2,0-0.3c0,0,0,0,0-0.1h0
				c0-0.1,0.3-2.9-2.8-5.8c-4.2-4-16.7-9.7-53.1-4.1"/>
		</g>
	</g>
	<g>
		<g>
			<path class="st0" d="M-4680.9-102.8L-4680.9-102.8L-4680.9-102.8C-4680.9-102.8-4680.9-102.8-4680.9-102.8z"/>
			<path class="st0" d="M-4677.9-103.2L-4677.9-103.2c0,0,0-0.1,0-0.1h0C-4677.9-103.2-4677.9-103.2-4677.9-103.2z"/>
		</g>
		<g>
			<path class="st0" d="M-4622-113.1c-36.5-5.6-48.9,0.1-53.1,4.1c-2.8,2.6-2.8,5.1-2.8,5.7h0c0,0,0,0.1,0,0.1c0,0,0,0,0,0.1
				c0,0.1,0,0.2,0,0.3c0,0.2,0.1,0.4,0.2,0.6c0.1,0.4,0.4,0.8,0.6,1.2c0.5,0.7,1.3,1.4,2.1,1.9c0.8,0.6,1.8,0.9,2.8,1.3
				c0.5,0.1,1,0.3,1.5,0.4l1.6,0.3l-1.6,0.1c-0.5,0-1.1,0-1.6-0.1c-1.1-0.1-2.2-0.3-3.3-0.6c-1.1-0.4-2.2-0.9-3.1-1.7
				c-0.5-0.4-0.9-0.9-1.3-1.4c-0.2-0.3-0.4-0.6-0.5-0.9c-0.1-0.2-0.2-0.3-0.2-0.5c-0.1-0.2-0.1-0.3-0.2-0.5c0,0,0,0,0,0c0,0,0,0,0,0
				s0,0,0,0c0-0.7-0.1-4.5,3.6-8.1c5.6-5.4,20.1-10.7,57-4.8c0,0,0,0,0,0l0,0c0.1,0,0.2,0,0.3,0c0.1,0,0.1,0,0.2,0
				c38,6.1,50.4,0.2,54.3-3.8c2.6-2.6,2.4-5.2,2.4-5.5v0c0-0.5-0.1-1.1-0.2-1.6c-0.1-0.6-0.3-1.2-0.5-1.7c-0.4-1.1-1-2.2-1.8-3.1
				c-0.8-0.9-1.8-1.8-2.9-2.4c-0.5-0.4-1.2-0.5-1.8-0.8c-0.6-0.2-1.3-0.4-1.9-0.6c0.6,0.1,1.3,0.1,2,0.2c0.6,0.2,1.3,0.2,2,0.5
				c1.3,0.4,2.5,1.1,3.6,2c1.1,0.9,2.1,2,2.8,3.2c0.4,0.6,0.7,1.3,1,1.9c0.3,0.6,0.5,1.2,0.6,1.9c0,0.1,0,0.2,0.1,0.3
				c0.1,1,0.2,4.5-3.2,7.9c-5.3,5.4-19.5,10.6-56.9,4.6l-0.2,0c-0.4-0.1-0.8-0.1-1.1-0.2"/>
		</g>
	</g>
</g>
<g>
	<g>
		<g>
			<path class="st1" d="M-3510.9-254c0-27-13.9-43.6-35.5-43.6c-21.5,0-35.5,16.7-35.5,43.6c0,26.9,14,43.5,35.5,43.5
				C-3524.8-210.4-3510.9-227.1-3510.9-254z M-3483.6-254c0,30.7-25.1,49.8-62.7,49.8c-37.5,0-62.6-19.1-62.6-49.8
				c0-30.8,25.1-49.9,62.6-49.9C-3508.8-303.9-3483.6-284.8-3483.6-254z"/>
		</g>
		<g>
			<path class="st1" d="M-3215-301.8c38,0,60.8,17.9,60.8,47.9c0,30-22.8,47.8-60.8,47.8h-59.8v-1.6h2.2c5.4,0,9.8-3.9,9.9-8.6
				v-75.5c-0.3-4.8-4.6-8.3-10.1-8.3h-2.1v-1.6L-3215-301.8z M-3237-212.6h20c22.1,0,35.9-15.4,35.9-41.4
				c0-26.1-13.6-41.6-35.9-41.6h-20L-3237-212.6z"/>
		</g>
		<g>
			<path class="st1" d="M-3099.9-206.2v-1.6h2.1c5.5,0,10.2-3.7,10.2-8.5v-75.5c0-4.8-4.7-8.5-10.2-8.5h-2.1v-1.6h50.2v1.6h-2
				c-5.6,0-10.1,3.6-10.3,8.4v75.7c0.2,4.8,4.7,8.4,10.3,8.4h2.1v1.6L-3099.9-206.2z"/>
		</g>
		<g>
			<path class="st1" d="M-2888.8-246.2l2.1,24c-6.9,10.1-21.4,18-44.5,18c-39.4-0.2-63.9-18.3-63.9-49.9c0-31.2,23.9-49.8,63.9-49.8
				c16.2,0,30.6,3.2,39.9,7.2v25.3h-1.4c-6-19.6-19.2-26.3-36.7-26.3c-25.7,0-38.7,17.2-38.7,43.2c0,26.4,13.6,43.4,36.9,43.9
				c25.3,0.1,36.6-9.7,41-35.7L-2888.8-246.2z"/>
		</g>
	</g>
	<g>
		<path class="st1" d="M-3390.1-207.8c-4.7,0-9.6-3.1-9.6-8.5l0.1-85.6l-37.3,0v1.6h2.2c5.1,0,9.2,3.5,9.3,8.3v75.9
			c-0.1,4.7-4.3,8.3-9.4,8.3h-2.1v1.6h48.8v-1.6H-3390.1z"/>
	</g>
	<g>
		<path class="st1" d="M-3363-303.9c-14.4,0-26.8,2.4-36.7,7v37c1.7-22.9,14.6-37.8,38.5-37.8c17.5,0,30.7,6.7,36.7,26.3h1.4v-25.3
			C-3332.5-300.7-3346.8-303.9-3363-303.9z"/>
	</g>
	<g>
		<g>
			<path class="st1" d="M-3753.3-207.8c-2.4,0-4.6-0.7-6.4-1.9c-0.8-0.5-1.5-1.1-2.1-1.8l-27.6-23.7v17.7c-0.1,5.4-5,9.7-10.9,9.7
				h-3.3l0,1.6h53.7l0-1.6H-3753.3z"/>
		</g>
	</g>
	<g>
		<path class="st1" d="M-3660.9-317.8l0,1.6h-3.3c-5.9,0-10.7,4.2-10.9,9.5v82.4c0,12,2,20.3,2,20.3h-1.6l-43.5-37.3l-25.2-21.6
			l-46-39.5c-0.2-10.7-2-17.8-2-17.8h1.8l38,32.6l33.5,28.8l17.8,15.3v-63c-0.1-5.3-5-9.7-10.9-9.7h-3.3l0-1.6H-3660.9z"/>
	</g>
</g>
<g>
	<g>
		<path class="st1" d="M-3619.4-114.6h-12.3l0-0.6h0.7c2,0,3.6-1.6,3.6-3.5V-150c0-2-1.6-3.5-3.6-3.5h-0.7l0-0.6h12.3l0,0.6h-0.7
			c-2,0-3.6,1.6-3.6,3.5v31.3c0,2,1.6,3.5,3.6,3.5h0.7L-3619.4-114.6z"/>
	</g>
	<g>
		<path class="st1" d="M-3526.6-118.3c0.3,2,2,3.1,3.8,3.1h0.8v0.6h-11.7v-0.5h0.8c1.1,0,2.2-1,2.1-2.2l-3-23.2l-10.6,20.9
			c0,0-1.6,3.4-2,5.8h-0.6l-13.6-26.2l-2.5,22.7c-0.1,1.2,0.9,2.2,2.1,2.2h0.8v0.5h-10.5v-0.6h0.8c1.9,0,3.6-1.2,3.9-3.2l4.4-30.8
			h0.6l14.9,28.6l14.4-28.6h0.5L-3526.6-118.3z"/>
	</g>
	<g>
		<path class="st1" d="M-3443.6-118.5c1.1,2.3,2.8,3.3,4.4,3.3h0.4v0.6h-11.6v-0.6h0.4c1.3,0,2.7-1.2,2-3.4l-3.1-7.5h-14.3l-3.1,7.3
			c-0.9,2.3,0.6,3.5,1.9,3.5h0.4v0.6h-10.7v-0.6h0.4c1.5,0,3.3-1,4.4-3.3l11.7-25c0,0,2.1-4.3,2.2-5.8h0.5L-3443.6-118.5z
			 M-3451.7-127.8l-6.3-15.4l-6.5,15.4H-3451.7z"/>
	</g>
	<g>
		<path class="st1" d="M-3357.5-121.1c-2.6,3.3-8.1,7.3-16.1,7.3c-11.1-0.1-18.5-6.8-18.5-17.7c0-11,7.4-17.7,18.5-17.7
			c5.2,0,9.4,1.1,13.2,3.4l1.2,8h-0.5c-1.6-6.6-6.1-9.7-14-9.7c-8.6,0-14.3,6.1-14.3,16c0,9.9,5.8,16,14.4,16
			c4.7,0,8.9-1.4,12.4-4.9l0.1-7.5c0-1.4-1-2.2-2.6-2.2h-0.8v-0.6h10.3v0.6h-0.8c-1.6,0-2.6,0.8-2.6,2.2L-3357.5-121.1z"/>
	</g>
	<g>
		<path class="st1" d="M-3282.8-114.6h-22.9l0-0.6h0.8c1.8,0,3.2-1.3,3.3-3v-26.7c0-1.7-1.4-3-3.3-3h-0.8l0-0.6h16.5
			c2.3,0,5.3-0.5,6.3-0.9v6.4l-0.6,0v-0.9c0-1.6-1.1-2.9-2.8-2.9h-11.7v14.3h9.6c1.6,0,2.3-1.1,2.3-2.4v-0.7l0.6,0v7.9l-0.6,0v-0.7
			c0-1.3-0.7-2.3-2.2-2.4h-9.8v14.3h8.8c5.4-0.1,7.3-2.7,8.9-6.4h0.6L-3282.8-114.6z"/>
	</g>
	<g>
		<path class="st1" d="M-3132.3-154.1v0.6h-0.9c-1.6,0-2.9,1.1-3,2.7v22.3c0,8.8-6.1,14.7-15.2,14.7c-9.4,0-15.6-5.9-15.6-14.6
			v-22.3c0-1.6-1.4-2.8-3-2.8h-0.9v-0.6h11.4v0.6h-0.9c-1.6,0-2.9,1.1-3,2.7v21.5c0,8.2,4.8,13.7,12,13.7c7.5,0,12.5-5.2,12.6-13
			v-22.2c-0.1-1.6-1.4-2.7-3-2.7h-0.9v-0.6L-3132.3-154.1z"/>
	</g>
	<g>
		<path class="st1" d="M-3058.6-153.5v1v3.7l-0.6,0v-0.8c0-1.5-1.2-2.7-2.7-2.8h-11.9v17.4h9.5c1.5,0,2.7-1.3,2.7-2.8v-0.8l0.6,0
			v8.9l-0.6,0v-0.8c0-1.5-1.2-2.7-2.7-2.8h-9.6v14.5c0,2,1.6,3.5,3.6,3.5h0.7l0,0.6h-12.3l0-0.6h0.7c2,0,3.6-1.6,3.6-3.5v-31.6
			c0-1.8-1.7-3.2-3.6-3.2h-0.7l0-0.6h16.5c2.4,0,5.7-0.6,6.7-1L-3058.6-153.5z"/>
	</g>
</g>
<g>
	<g>
		<g>
			<path class="st1" d="M-3257.4-371.2h-173.9c0.3-46.3,39.2-83.8,87-83.8C-3296.6-455-3257.7-417.5-3257.4-371.2z"/>
		</g>
	</g>
	<g>
		<g>
			<g>
				<path class="st1" d="M-3257.4-619.4v1c0,15.4-4.6,30.1-13.4,42.5c-10.7,17.1-24.6,24.7-40.4,32.2c-7.8-10.6-20.2-17-33.1-17
					c-22.9,0-41.5,19.1-41.5,42.6c0,6.1,1.2,12,3.7,17.5c-0.5,0.4-0.9,0.7-1.4,1.1c-14.7,12-26.6,24.3-36.4,37.8l-11.5,21.8
					c-1.8-12.4-1.8-24.6,0.2-36c4.2-24.4,15.9-41,28.2-58.6c12.8-18.2,26-36.9,32.8-66.4c1.3-5.5,0.7-10.3,0.3-14.2
					c-0.2-1.7-0.4-3.2-0.3-4.4H-3257.4z"/>
			</g>
		</g>
	</g>
	<g>
		<g>
			<g>
				<path class="st1" d="M-3304.8-518c0,22.4-17.8,40.6-39.6,40.6c-6.8,0-13.4-1.8-19.3-5.1c13.8-10.8,27.6-19.4,36.9-24.8
					c7.1-4.2,14.5-7.7,21.6-11l0.4-0.2C-3304.8-518.3-3304.8-518.2-3304.8-518z"/>
			</g>
		</g>
	</g>
</g>
<g>
	<g>
		<g>
			<g>
				<path class="st2" d="M-3688.5-126.2l0-0.3c0,0,0,0,0,0c0,0,0,0,0,0c0,0,0-0.1,0-0.1"/>
			</g>
		</g>
		<g>
			<g>
				<path class="st1" d="M-3688.5-126.6C-3688.5-126.5-3688.5-126.5-3688.5-126.6l0,0.1c0,0.1-0.1,0.2-0.1,0.3l0,0.1
					c0,0.1-0.1,0.2-0.1,0.3l-0.1,0.2c-0.1,0.3-0.3,0.6-0.5,0.8c-0.3,0.5-0.7,0.9-1.2,1.4c-0.8,0.7-1.8,1.3-3,1.7
					c-1,0.4-2,0.5-3.2,0.6l-0.6,0c-0.2,0-0.4,0-0.6,0c0.1,0,0.3-0.1,0.4-0.1c0.2-0.1,0.4-0.1,0.6-0.2c1-0.4,2-0.7,2.9-1.3
					c0.9-0.6,1.7-1.3,2.2-2c0.2-0.4,0.5-0.8,0.6-1.2c0.1-0.2,0.1-0.4,0.2-0.6c0-0.1,0-0.2,0.1-0.3l0-0.1l0-0.1
					c0-0.6-0.1-3.2-2.9-5.9c-4.2-3.9-16.5-9.7-52.3-4.3l-2,0.3l-0.8,0.1c-37.3,6-51.4,0.8-56.7-4.6c-3.2-3.2-3.2-6.5-3.1-7.6l0.2-1
					c0.1-0.4,0.3-0.8,0.4-1.2c0.3-0.6,0.6-1.2,1-1.9c0.8-1.2,1.7-2.3,2.8-3.1c1.2-0.9,2.4-1.6,3.6-1.9c0.4-0.2,0.9-0.3,1.3-0.3
					c-0.4,0.2-0.8,0.3-1.2,0.6c-1.1,0.5-2.1,1.3-3,2.4c-0.8,0.9-1.4,2-1.9,3.2c-0.2,0.6-0.4,1.2-0.5,1.8c-0.1,0.6-0.2,1.2-0.2,1.7
					c-0.1,0.5-0.2,3.1,2.5,5.8c4,3.9,16.1,9.6,52.6,4l4-0.6c35.6-5.4,49.7-0.3,55.1,5C-3688.4-130.9-3688.5-127.3-3688.5-126.6z"/>
			</g>
		</g>
	</g>
	<g>
		<g>
			<g>
				<path class="st1" d="M-2881.5-148.8c0,0.1,0,0.3,0,0.5c0,1.4-0.4,4.3-3.2,7c-5.3,5.4-19.4,10.5-56.7,4.6l-1.5-0.2l0,0l-0.2,0
					c-36.6-5.6-49.1,0.2-53.3,4.2c-2.5,2.3-2.9,4.7-2.9,5.6l0,0.3v0.1l0,0.1c0,0.1,0,0.2,0.1,0.3l0,0.1c0,0.1,0.1,0.3,0.2,0.5
					c0.1,0.4,0.4,0.8,0.6,1.2c0.5,0.7,1.2,1.4,2.2,2c0.8,0.5,1.7,0.9,2.9,1.3c0.2,0,0.4,0.1,0.6,0.2c0.1,0.1,0.3,0.1,0.5,0.1
					c-0.2,0-0.4,0-0.6,0c-0.2,0-0.4,0-0.6,0c-1-0.1-2.1-0.2-3.2-0.6c-1.2-0.4-2.2-1-3-1.7c-0.5-0.4-0.9-0.9-1.2-1.4
					c-0.2-0.3-0.3-0.6-0.5-0.8l-0.1-0.2c0-0.1-0.1-0.2-0.1-0.3l0-0.1c0-0.1-0.1-0.2-0.1-0.3l0-0.1l0,0c-0.1-0.7-0.1-4.4,3.5-7.9
					c5.6-5.4,19.9-10.6,56.8-4.8l0.4,0.1l0.2,0c38.2,6.1,50.5,0.2,54.5-3.8c2.8-2.9,2.4-5.7,2.4-5.7c0-0.5-0.1-1.1-0.2-1.7
					c-0.1-0.6-0.3-1.1-0.5-1.8c-0.4-1.2-1.1-2.3-1.9-3.2c-0.9-1.1-1.9-1.9-2.9-2.4c-0.4-0.3-0.8-0.4-1.2-0.6
					c0.4,0.1,0.9,0.2,1.3,0.3c1.2,0.4,2.4,1,3.6,1.9c1,0.8,2,1.9,2.8,3.1c0.4,0.6,0.7,1.2,1,1.9c0.2,0.4,0.3,0.8,0.4,1.2
					L-2881.5-148.8z"/>
			</g>
			<g>
				<polygon class="st0" points="-2999.3,-127.1 -2999.3,-127.1 -2999.3,-126.9 				"/>
			</g>
		</g>
	</g>
</g>
<g>
	<g>
		<g>
			<path class="st3" d="M-2398.2-192.4c0-27-13.9-43.6-35.5-43.6c-21.5,0-35.5,16.7-35.5,43.6c0,26.9,14,43.5,35.5,43.5
				C-2412.1-148.8-2398.2-165.5-2398.2-192.4z M-2370.9-192.4c0,30.7-25.1,49.8-62.7,49.8c-37.5,0-62.6-19.1-62.6-49.8
				c0-30.8,25.1-49.9,62.6-49.9C-2396.1-242.3-2370.9-223.2-2370.9-192.4z"/>
		</g>
		<g>
			<path class="st3" d="M-2102.3-240.2c38,0,60.8,17.9,60.8,47.9c0,30-22.8,47.8-60.8,47.8h-59.8v-1.6h2.2c5.4,0,9.8-3.9,9.9-8.6
				v-75.5c-0.3-4.8-4.6-8.3-10.1-8.3h-2.1v-1.6L-2102.3-240.2z M-2124.3-151h20c22.1,0,35.9-15.4,35.9-41.4
				c0-26.1-13.6-41.6-35.9-41.6h-20L-2124.3-151z"/>
		</g>
		<g>
			<path class="st3" d="M-1987.2-144.6v-1.6h2.1c5.5,0,10.2-3.7,10.2-8.5v-75.5c0-4.8-4.7-8.5-10.2-8.5h-2.1v-1.6h50.2v1.6h-2
				c-5.6,0-10.1,3.6-10.3,8.4v75.7c0.2,4.8,4.7,8.4,10.3,8.4h2.1v1.6L-1987.2-144.6z"/>
		</g>
		<g>
			<path class="st3" d="M-1776.1-184.6l2.1,24c-6.9,10.1-21.4,18-44.5,18c-39.4-0.2-63.9-18.3-63.9-49.9c0-31.2,23.9-49.8,63.9-49.8
				c16.2,0,30.6,3.2,39.9,7.2v25.3h-1.4c-6-19.6-19.2-26.3-36.7-26.3c-25.7,0-38.7,17.2-38.7,43.2c0,26.4,13.6,43.4,36.9,43.9
				c25.3,0.1,36.6-9.7,41-35.7L-1776.1-184.6z"/>
		</g>
	</g>
	<g>
		<path class="st3" d="M-2277.4-146.2c-4.7,0-9.6-3.1-9.6-8.5l0.1-85.6l-37.3,0v1.6h2.2c5.1,0,9.2,3.5,9.3,8.3v75.9
			c-0.1,4.7-4.3,8.3-9.4,8.3h-2.1v1.6h48.8v-1.6H-2277.4z"/>
	</g>
	<g>
		<path class="st3" d="M-2250.3-242.3c-14.4,0-26.8,2.4-36.7,7v37c1.7-22.9,14.6-37.8,38.5-37.8c17.5,0,30.7,6.7,36.7,26.3h1.4V-235
			C-2219.8-239.1-2234.1-242.3-2250.3-242.3z"/>
	</g>
	<g>
		<g>
			<path class="st3" d="M-2640.6-146.2c-2.4,0-4.6-0.7-6.4-1.9c-0.8-0.5-1.5-1.1-2.1-1.8l-27.6-23.7v17.7c-0.1,5.4-5,9.7-10.9,9.7
				h-3.3l0,1.6h53.7l0-1.6H-2640.6z"/>
		</g>
	</g>
	<g>
		<path class="st3" d="M-2548.2-256.2l0,1.6h-3.3c-5.9,0-10.7,4.2-10.9,9.5v82.4c0,12,2,20.3,2,20.3h-1.6l-43.5-37.3l-25.2-21.6
			l-46-39.5c-0.2-10.7-2-17.8-2-17.8h1.8l38,32.6l33.5,28.8l17.8,15.3v-63c-0.1-5.3-5-9.7-10.9-9.7h-3.3l0-1.6H-2548.2z"/>
	</g>
</g>
<g>
	<g>
		<path class="st3" d="M-2506.7-53h-12.3l0-0.6h0.7c2,0,3.6-1.6,3.6-3.5v-31.3c0-2-1.6-3.5-3.6-3.5h-0.7l0-0.6h12.3l0,0.6h-0.7
			c-2,0-3.6,1.6-3.6,3.5v31.3c0,2,1.6,3.5,3.6,3.5h0.7L-2506.7-53z"/>
	</g>
	<g>
		<path class="st3" d="M-2413.9-56.7c0.3,2,2,3.1,3.8,3.1h0.8v0.6h-11.7v-0.5h0.8c1.1,0,2.2-1,2.1-2.2l-3-23.2l-10.6,20.9
			c0,0-1.6,3.4-2,5.8h-0.6l-13.6-26.2l-2.5,22.7c-0.1,1.2,0.9,2.2,2.1,2.2h0.8v0.5h-10.5v-0.6h0.8c1.9,0,3.6-1.2,3.9-3.2l4.4-30.8
			h0.6l14.9,28.6l14.4-28.6h0.5L-2413.9-56.7z"/>
	</g>
	<g>
		<path class="st3" d="M-2330.9-56.9c1.1,2.3,2.8,3.3,4.4,3.3h0.4v0.6h-11.6v-0.6h0.4c1.3,0,2.7-1.2,2-3.4l-3.1-7.5h-14.3l-3.1,7.3
			c-0.9,2.3,0.6,3.5,1.9,3.5h0.4v0.6h-10.7v-0.6h0.4c1.5,0,3.3-1,4.4-3.3l11.7-25c0,0,2.1-4.3,2.2-5.8h0.5L-2330.9-56.9z
			 M-2339-66.2l-6.3-15.4l-6.5,15.4H-2339z"/>
	</g>
	<g>
		<path class="st3" d="M-2244.8-59.5c-2.6,3.3-8.1,7.3-16.1,7.3c-11.1-0.1-18.5-6.8-18.5-17.7c0-11,7.4-17.7,18.5-17.7
			c5.2,0,9.4,1.1,13.2,3.4l1.2,8h-0.5c-1.6-6.6-6.1-9.7-14-9.7c-8.6,0-14.3,6.1-14.3,16c0,9.9,5.8,16,14.4,16
			c4.7,0,8.9-1.4,12.4-4.9l0.1-7.5c0-1.4-1-2.2-2.6-2.2h-0.8v-0.6h10.3v0.6h-0.8c-1.6,0-2.6,0.8-2.6,2.2L-2244.8-59.5z"/>
	</g>
	<g>
		<path class="st3" d="M-2170.1-53h-22.9l0-0.6h0.8c1.8,0,3.2-1.3,3.3-3v-26.7c0-1.7-1.4-3-3.3-3h-0.8l0-0.6h16.5
			c2.3,0,5.3-0.5,6.3-0.9v6.4l-0.6,0v-0.9c0-1.6-1.1-2.9-2.8-2.9h-11.7v14.3h9.6c1.6,0,2.3-1.1,2.3-2.4v-0.7l0.6,0v7.9l-0.6,0v-0.7
			c0-1.3-0.7-2.3-2.2-2.4h-9.8v14.3h8.8c5.4-0.1,7.3-2.7,8.9-6.4h0.6L-2170.1-53z"/>
	</g>
	<g>
		<path class="st3" d="M-2019.6-92.5v0.6h-0.9c-1.6,0-2.9,1.1-3,2.7V-67c0,8.8-6.1,14.7-15.2,14.7c-9.4,0-15.6-5.9-15.6-14.6v-22.3
			c0-1.6-1.4-2.8-3-2.8h-0.9v-0.6h11.4v0.6h-0.9c-1.6,0-2.9,1.1-3,2.7v21.5c0,8.2,4.8,13.7,12,13.7c7.5,0,12.5-5.2,12.6-13v-22.2
			c-0.1-1.6-1.4-2.7-3-2.7h-0.9v-0.6L-2019.6-92.5z"/>
	</g>
	<g>
		<path class="st3" d="M-1945.9-91.9v1v3.7l-0.6,0V-88c0-1.5-1.2-2.7-2.7-2.8h-11.9v17.4h9.5c1.5,0,2.7-1.3,2.7-2.8v-0.8l0.6,0v8.9
			l-0.6,0v-0.8c0-1.5-1.2-2.7-2.7-2.8h-9.6v14.5c0,2,1.6,3.5,3.6,3.5h0.7l0,0.6h-12.3l0-0.6h0.7c2,0,3.6-1.6,3.6-3.5v-31.6
			c0-1.8-1.7-3.2-3.6-3.2h-0.7l0-0.6h16.5c2.4,0,5.7-0.6,6.7-1L-1945.9-91.9z"/>
	</g>
</g>
<g>
	<g>
		<g>
			<path class="st3" d="M-2144.7-309.6h-173.9c0.3-46.3,39.2-83.8,87-83.8C-2183.9-393.4-2145-355.9-2144.7-309.6z"/>
		</g>
	</g>
	<g>
		<g>
			<g>
				<path class="st3" d="M-2144.7-557.8v1c0,15.4-4.6,30.1-13.4,42.5c-10.7,17.1-24.6,24.7-40.4,32.2c-7.8-10.6-20.2-17-33.1-17
					c-22.9,0-41.5,19.1-41.5,42.6c0,6.1,1.2,12,3.7,17.5c-0.5,0.4-0.9,0.7-1.4,1.1c-14.7,12-26.6,24.3-36.4,37.8l-11.5,21.8
					c-1.8-12.4-1.8-24.6,0.2-36c4.2-24.4,15.9-41,28.2-58.6c12.8-18.2,26-36.9,32.8-66.4c1.3-5.5,0.7-10.3,0.3-14.2
					c-0.2-1.7-0.4-3.2-0.3-4.4H-2144.7z"/>
			</g>
		</g>
	</g>
	<g>
		<g>
			<g>
				<path class="st3" d="M-2192.1-456.4c0,22.4-17.8,40.6-39.6,40.6c-6.8,0-13.4-1.8-19.3-5.1c13.8-10.8,27.6-19.4,36.9-24.8
					c7.1-4.2,14.5-7.7,21.6-11l0.4-0.2C-2192.1-456.7-2192.1-456.6-2192.1-456.4z"/>
			</g>
		</g>
	</g>
</g>
<g>
	<g>
		<g>
			<g>
				<path class="st3" d="M-2575.8-64.6l0-0.3c0,0,0,0,0,0c0,0,0,0,0,0c0,0,0-0.1,0-0.1"/>
			</g>
		</g>
		<g>
			<g>
				<path class="st3" d="M-2575.8-65C-2575.8-64.9-2575.8-64.9-2575.8-65l0,0.1c0,0.1-0.1,0.2-0.1,0.3l0,0.1c0,0.1-0.1,0.2-0.1,0.3
					l-0.1,0.2c-0.1,0.3-0.3,0.6-0.5,0.8c-0.3,0.5-0.7,0.9-1.2,1.4c-0.8,0.7-1.8,1.3-3,1.7c-1,0.4-2,0.5-3.2,0.6l-0.6,0
					c-0.2,0-0.4,0-0.6,0c0.1,0,0.3-0.1,0.4-0.1c0.2-0.1,0.4-0.1,0.6-0.2c1-0.4,2-0.7,2.8-1.3c0.9-0.6,1.7-1.3,2.2-2
					c0.2-0.4,0.5-0.8,0.6-1.2c0.1-0.2,0.1-0.4,0.2-0.6c0-0.1,0-0.2,0.1-0.3l0-0.1l0-0.1c0-0.6-0.1-3.2-2.9-5.9
					c-4.2-3.9-16.5-9.7-52.3-4.3l-2,0.3l-0.8,0.1c-37.3,6-51.4,0.8-56.7-4.6c-3.2-3.2-3.2-6.5-3.2-7.6l0.2-1
					c0.1-0.4,0.3-0.8,0.4-1.2c0.3-0.6,0.6-1.2,1-1.9c0.8-1.2,1.7-2.3,2.8-3.1c1.2-0.9,2.4-1.6,3.6-1.9c0.4-0.2,0.9-0.3,1.3-0.3
					c-0.4,0.2-0.8,0.3-1.2,0.6c-1.1,0.5-2.1,1.3-3,2.4c-0.8,0.9-1.4,2-1.9,3.2c-0.2,0.6-0.4,1.2-0.5,1.8c-0.1,0.6-0.2,1.2-0.2,1.7
					c-0.1,0.5-0.2,3.1,2.5,5.8c4,3.9,16.1,9.6,52.6,4l4-0.6c35.6-5.4,49.6-0.3,55.1,5C-2575.7-69.3-2575.8-65.7-2575.8-65z"/>
			</g>
		</g>
	</g>
	<g>
		<g>
			<g>
				<path class="st3" d="M-1768.8-87.2c0,0.1,0,0.3,0,0.5c0,1.4-0.4,4.3-3.2,7c-5.3,5.4-19.4,10.5-56.7,4.6l-1.5-0.2l0,0l-0.2,0
					c-36.6-5.6-49.1,0.2-53.3,4.2c-2.5,2.3-2.9,4.7-2.9,5.6l0,0.3v0.1l0,0.1c0,0.1,0,0.2,0.1,0.3l0,0.1c0,0.1,0.1,0.3,0.2,0.5
					c0.1,0.4,0.4,0.8,0.6,1.2c0.5,0.7,1.2,1.4,2.2,2c0.8,0.5,1.7,0.9,2.9,1.3c0.2,0,0.4,0.1,0.6,0.2c0.2,0.1,0.3,0.1,0.5,0.1
					c-0.2,0-0.4,0-0.6,0c-0.2,0-0.4,0-0.6,0c-1-0.1-2.1-0.2-3.2-0.6c-1.2-0.4-2.2-1-3-1.7c-0.5-0.4-0.9-0.9-1.2-1.4
					c-0.2-0.3-0.3-0.6-0.5-0.8l-0.1-0.2c0-0.1-0.1-0.2-0.1-0.3l0-0.1c0-0.1-0.1-0.2-0.1-0.3l0-0.1l0,0c0-0.7-0.1-4.4,3.5-7.9
					c5.6-5.4,19.9-10.6,56.8-4.8l0.4,0.1l0.2,0c38.2,6.1,50.5,0.2,54.5-3.8c2.8-2.9,2.4-5.7,2.4-5.7c0-0.5-0.1-1.1-0.2-1.7
					c-0.1-0.6-0.3-1.1-0.5-1.8c-0.4-1.2-1.1-2.3-1.9-3.2c-0.9-1.1-1.9-1.9-2.9-2.4c-0.4-0.3-0.8-0.4-1.2-0.6
					c0.4,0.1,0.9,0.2,1.3,0.3c1.2,0.4,2.4,1,3.6,1.9c1,0.8,2,1.9,2.8,3.1c0.4,0.6,0.7,1.2,1,1.9c0.2,0.4,0.3,0.8,0.4,1.2
					L-1768.8-87.2z"/>
			</g>
			<g>
				<polygon class="st3" points="-1886.6,-65.5 -1886.6,-65.5 -1886.6,-65.3 				"/>
			</g>
		</g>
	</g>
</g>
<g>
	<g>
		<g>
			<path class="st1" d="M-1165.3,560.1c0-27-13.9-43.6-35.5-43.6c-21.5,0-35.5,16.7-35.5,43.6c0,26.9,14,43.5,35.5,43.5
				C-1179.2,603.7-1165.3,587-1165.3,560.1z M-1138,560.1c0,30.7-25.1,49.8-62.7,49.8c-37.5,0-62.6-19.1-62.6-49.8
				c0-30.8,25.1-49.9,62.6-49.9C-1163.2,510.2-1138,529.3-1138,560.1z"/>
		</g>
		<g>
			<path class="st1" d="M-869.3,512.2c38,0,60.8,17.9,60.8,47.9c0,30-22.8,47.8-60.8,47.8h-59.8v-1.6h2.2c5.4,0,9.8-3.9,9.9-8.6
				v-75.5c-0.3-4.8-4.6-8.3-10.1-8.3h-2.1v-1.6L-869.3,512.2z M-891.4,601.5h20c22.1,0,35.9-15.4,35.9-41.4
				c0-26.1-13.6-41.6-35.9-41.6h-20L-891.4,601.5z"/>
		</g>
		<g>
			<path class="st1" d="M-754.3,607.9v-1.6h2.1c5.5,0,10.2-3.7,10.2-8.5v-75.5c0-4.8-4.7-8.5-10.2-8.5h-2.1v-1.6h50.2v1.6h-2
				c-5.6,0-10.1,3.6-10.3,8.4v75.7c0.2,4.8,4.7,8.4,10.3,8.4h2.1v1.6L-754.3,607.9z"/>
		</g>
		<g>
			<path class="st1" d="M-543.1,567.9l2.1,24c-6.9,10.1-21.4,18-44.5,18c-39.4-0.2-63.9-18.3-63.9-49.9c0-31.2,23.9-49.8,63.9-49.8
				c16.2,0,30.6,3.2,39.9,7.2v25.3h-1.4c-6-19.6-19.2-26.3-36.7-26.3c-25.7,0-38.7,17.2-38.7,43.2c0,26.4,13.6,43.4,36.9,43.9
				c25.3,0.1,36.6-9.7,41-35.7L-543.1,567.9z"/>
		</g>
	</g>
	<g>
		<path class="st1" d="M-1044.5,606.3c-4.7,0-9.6-3.1-9.6-8.5l0.1-85.6l-37.3,0v1.6h2.2c5.1,0,9.2,3.5,9.3,8.3V598
			c-0.1,4.7-4.3,8.3-9.4,8.3h-2.1v1.6h48.8v-1.6H-1044.5z"/>
	</g>
	<g>
		<path class="st1" d="M-1017.4,510.2c-14.4,0-26.8,2.4-36.7,7v37c1.7-22.9,14.6-37.8,38.5-37.8c17.5,0,30.7,6.7,36.7,26.3h1.4
			v-25.3C-986.8,513.4-1001.2,510.2-1017.4,510.2z"/>
	</g>
	<g>
		<g>
			<path class="st1" d="M-1407.6,606.3c-2.4,0-4.6-0.7-6.4-1.9c-0.8-0.5-1.5-1.1-2.1-1.8l-27.6-23.7v17.7c-0.1,5.4-5,9.7-10.9,9.7
				h-3.3l0,1.6h53.7l0-1.6H-1407.6z"/>
		</g>
	</g>
	<g>
		<path class="st1" d="M-1315.3,496.3l0,1.6h-3.3c-5.9,0-10.7,4.2-10.9,9.5v82.4c0,12,2,20.3,2,20.3h-1.6l-43.5-37.3l-25.2-21.6
			l-46-39.5c-0.2-10.7-2-17.8-2-17.8h1.8l38,32.6l33.5,28.8l17.8,15.3v-63c-0.1-5.3-5-9.7-10.9-9.7h-3.3l0-1.6H-1315.3z"/>
	</g>
</g>
<g>
	<g>
		<path class="st1" d="M-1273.8,699.5h-12.3l0-0.6h0.7c2,0,3.6-1.6,3.6-3.5v-31.3c0-2-1.6-3.5-3.6-3.5h-0.7l0-0.6h12.3l0,0.6h-0.7
			c-2,0-3.6,1.6-3.6,3.5v31.3c0,2,1.6,3.5,3.6,3.5h0.7L-1273.8,699.5z"/>
	</g>
	<g>
		<path class="st1" d="M-1181,695.8c0.3,2,2,3.1,3.8,3.1h0.8v0.6h-11.7v-0.5h0.8c1.1,0,2.2-1,2.1-2.2l-3-23.2l-10.6,20.9
			c0,0-1.6,3.4-2,5.8h-0.6l-13.6-26.2l-2.5,22.7c-0.1,1.2,0.9,2.2,2.1,2.2h0.8v0.5h-10.5v-0.6h0.8c1.9,0,3.6-1.2,3.9-3.2l4.4-30.8
			h0.6l14.9,28.6l14.4-28.6h0.5L-1181,695.8z"/>
	</g>
	<g>
		<path class="st1" d="M-1097.9,695.6c1.1,2.3,2.8,3.3,4.4,3.3h0.4v0.6h-11.6v-0.6h0.4c1.3,0,2.7-1.2,2-3.4l-3.1-7.5h-14.3l-3.1,7.3
			c-0.9,2.3,0.6,3.5,1.9,3.5h0.4v0.6h-10.7v-0.6h0.4c1.5,0,3.3-1,4.4-3.3l11.7-25c0,0,2.1-4.3,2.2-5.8h0.5L-1097.9,695.6z
			 M-1106.1,686.3l-6.3-15.4l-6.5,15.4H-1106.1z"/>
	</g>
	<g>
		<path class="st1" d="M-1011.9,693c-2.6,3.3-8.1,7.3-16.1,7.3c-11.1-0.1-18.5-6.8-18.5-17.7c0-11,7.4-17.7,18.5-17.7
			c5.2,0,9.4,1.1,13.2,3.4l1.2,8h-0.5c-1.6-6.6-6.1-9.7-14-9.7c-8.6,0-14.3,6.1-14.3,16c0,9.9,5.8,16,14.4,16
			c4.7,0,8.9-1.4,12.4-4.9l0.1-7.5c0-1.4-1-2.2-2.6-2.2h-0.8v-0.6h10.3v0.6h-0.8c-1.6,0-2.6,0.8-2.6,2.2L-1011.9,693z"/>
	</g>
	<g>
		<path class="st1" d="M-937.2,699.5h-22.9l0-0.6h0.8c1.8,0,3.2-1.3,3.3-3v-26.7c0-1.7-1.4-3-3.3-3h-0.8l0-0.6h16.5
			c2.3,0,5.3-0.5,6.3-0.9v6.4l-0.6,0v-0.9c0-1.6-1.1-2.9-2.8-2.9h-11.7v14.3h9.6c1.6,0,2.3-1.1,2.3-2.4v-0.7l0.6,0v7.9l-0.6,0v-0.7
			c0-1.3-0.7-2.3-2.2-2.4h-9.8v14.3h8.8c5.4-0.1,7.3-2.7,8.9-6.4h0.6L-937.2,699.5z"/>
	</g>
	<g>
		<path class="st1" d="M-786.7,660v0.6h-0.9c-1.6,0-2.9,1.1-3,2.7v22.3c0,8.8-6.1,14.7-15.2,14.7c-9.4,0-15.6-5.9-15.6-14.6v-22.3
			c0-1.6-1.4-2.8-3-2.8h-0.9V660h11.4v0.6h-0.9c-1.6,0-2.9,1.1-3,2.7v21.5c0,8.2,4.8,13.7,12,13.7c7.5,0,12.5-5.2,12.6-13v-22.2
			c-0.1-1.6-1.4-2.7-3-2.7h-0.9V660L-786.7,660z"/>
	</g>
	<g>
		<path class="st1" d="M-713,660.6v1v3.7l-0.6,0v-0.8c0-1.5-1.2-2.7-2.7-2.8h-11.9v17.4h9.5c1.5,0,2.7-1.3,2.7-2.8v-0.8l0.6,0v8.9
			l-0.6,0v-0.8c0-1.5-1.2-2.7-2.7-2.8h-9.6v14.5c0,2,1.6,3.5,3.6,3.5h0.7l0,0.6h-12.3l0-0.6h0.7c2,0,3.6-1.6,3.6-3.5v-31.6
			c0-1.8-1.7-3.2-3.6-3.2h-0.7l0-0.6h16.5c2.4,0,5.7-0.6,6.7-1L-713,660.6z"/>
	</g>
</g>
<g>
	<g>
		<g>
			<path class="st1" d="M-911.9,442.9h-173.6c0.3-46.3,39.1-83.8,86.8-83.8C-951.1,359.1-912.2,396.6-911.9,442.9z"/>
		</g>
	</g>
	<g>
		<g>
			<path class="st3" d="M-911.4,194.2v1.5c0,15.4-4.7,30.3-13.5,42.8c-10.8,17.2-25,25-40.9,32.6c-7.5-10.4-19.4-17.1-32.9-17.1
				c-22.6,0-40.9,18.9-40.9,42.1c0,6.3,1.3,12.3,3.8,17.7c-0.6,0.4-1.1,0.9-1.7,1.4c-13.5,11-25.9,23.4-36.2,37.6l-12.2,23.1
				c-2.7-17-1.3-29.9,0-37.6c8.6-49.6,47.5-66.8,61-124.9c1.9-8.4-0.4-15.3,0-19H-911.4z"/>
		</g>
	</g>
	<g>
		<g>
			<g>
				<path class="st1" d="M-959.2,296.1c0,22.4-17.7,40.6-39.5,40.6c-6.8,0-13.4-1.8-19.2-5.1c13.8-10.8,27.6-19.4,36.8-24.8
					c7.1-4.2,14.4-7.7,21.5-11l0.4-0.2C-959.2,295.7-959.2,295.9-959.2,296.1z"/>
			</g>
		</g>
	</g>
</g>
<g>
	<g>
		<g>
			<g>
				<path class="st2" d="M-1342.9,687.9l0-0.3c0,0,0,0,0,0c0,0,0,0,0,0c0,0,0-0.1,0-0.1"/>
			</g>
		</g>
		<g>
			<g>
				<path class="st1" d="M-1342.9,687.5C-1342.9,687.6-1342.9,687.6-1342.9,687.5l0,0.1c0,0.1-0.1,0.2-0.1,0.3l0,0.1
					c0,0.1-0.1,0.2-0.1,0.3l-0.1,0.2c-0.1,0.3-0.3,0.6-0.5,0.8c-0.3,0.5-0.7,0.9-1.2,1.4c-0.8,0.7-1.8,1.3-3,1.7
					c-1,0.4-2,0.5-3.2,0.6l-0.6,0c-0.2,0-0.4,0-0.6,0c0.1,0,0.3-0.1,0.4-0.1c0.2-0.1,0.4-0.1,0.6-0.2c1-0.4,2-0.7,2.8-1.3
					c0.9-0.6,1.7-1.3,2.2-2c0.2-0.4,0.5-0.8,0.6-1.2c0.1-0.2,0.1-0.4,0.2-0.6c0-0.1,0-0.2,0-0.3l0-0.1l0-0.1c0-0.6-0.1-3.2-2.9-5.9
					c-4.2-3.9-16.5-9.7-52.3-4.3l-2,0.3l-0.8,0.1c-37.3,6-51.4,0.8-56.7-4.6c-3.2-3.2-3.2-6.5-3.2-7.6l0.2-1
					c0.1-0.4,0.3-0.8,0.4-1.2c0.3-0.6,0.6-1.2,1-1.9c0.8-1.2,1.7-2.3,2.8-3.1c1.2-0.9,2.4-1.6,3.6-1.9c0.4-0.2,0.8-0.3,1.3-0.3
					c-0.4,0.2-0.8,0.3-1.2,0.6c-1.1,0.5-2.1,1.3-3,2.4c-0.8,0.9-1.4,2-1.9,3.2c-0.2,0.6-0.4,1.2-0.5,1.8c-0.1,0.6-0.2,1.2-0.2,1.7
					c-0.1,0.5-0.2,3.1,2.5,5.8c4,3.9,16.1,9.6,52.6,4l4-0.6c35.6-5.4,49.7-0.3,55.1,5C-1342.8,683.2-1342.8,686.8-1342.9,687.5z"/>
			</g>
		</g>
	</g>
	<g>
		<g>
			<g>
				<path class="st1" d="M-535.9,665.3c0,0.1,0,0.3,0,0.5c0,1.4-0.4,4.3-3.2,7c-5.3,5.4-19.4,10.5-56.7,4.6l-1.5-0.2l0,0l-0.2,0
					c-36.6-5.6-49.1,0.2-53.3,4.2c-2.5,2.3-2.9,4.7-2.9,5.6l0,0.3v0.1l0,0.1c0,0.1,0,0.2,0.1,0.3l0,0.1c0,0.1,0.1,0.3,0.2,0.5
					c0.1,0.4,0.4,0.8,0.6,1.2c0.5,0.7,1.2,1.4,2.2,2c0.8,0.5,1.7,0.9,2.9,1.3c0.2,0,0.4,0.1,0.6,0.2c0.2,0.1,0.3,0.1,0.5,0.1
					c-0.2,0-0.4,0-0.6,0c-0.2,0-0.4,0-0.6,0c-1-0.1-2.1-0.2-3.2-0.6c-1.2-0.4-2.2-1-3-1.7c-0.5-0.4-0.9-0.9-1.2-1.4
					c-0.2-0.3-0.3-0.6-0.5-0.8l-0.1-0.2c0-0.1-0.1-0.2-0.1-0.3l0-0.1c0-0.1-0.1-0.2-0.1-0.3l0-0.1l0,0c0-0.7-0.1-4.4,3.5-7.9
					c5.6-5.4,19.9-10.6,56.8-4.8l0.4,0.1l0.2,0c38.2,6.1,50.5,0.2,54.5-3.8c2.8-2.9,2.4-5.7,2.4-5.7c0-0.5-0.1-1.1-0.2-1.7
					c-0.1-0.6-0.3-1.1-0.5-1.8c-0.4-1.2-1.1-2.3-1.9-3.2c-0.9-1.1-1.9-1.9-2.9-2.4c-0.4-0.3-0.8-0.4-1.2-0.6
					c0.4,0.1,0.9,0.2,1.3,0.3c1.2,0.4,2.4,1,3.6,1.9c1,0.8,2,1.9,2.8,3.1c0.4,0.6,0.7,1.2,1,1.9c0.2,0.4,0.3,0.8,0.4,1.2
					L-535.9,665.3z"/>
			</g>
			<g>
				<polygon class="st0" points="-653.7,687 -653.7,687 -653.7,687.2 				"/>
			</g>
		</g>
	</g>
</g>
<g>
	<g>
		<g>
			<path class="st0" d="M-1426.7-298.3c-38.3,0-63.1,19.8-63.1,50.4c0,30.6,24.8,50.3,63.1,50.3c38.4,0,63.2-19.8,63.2-50.3
				C-1363.5-278.5-1388.3-298.3-1426.7-298.3z M-1426.7-204.8c-21.3,0-35-16.9-35-43c0-26.6,13.4-43.1,35-43.1
				c21.6,0,35,16.5,35,43.1C-1391.8-221.3-1405.2-204.8-1426.7-204.8z"/>
		</g>
		<g>
			<path class="st0" d="M-1095.3-296.3h-60.4v2.6h2.6c5.3,0,9.4,3.3,9.6,7.8v75.5c-0.1,4.5-4.3,8.1-9.4,8.1h-2.7v2.6h60.3
				c38.4,0,61.3-18,61.3-48.3C-1034-278.2-1056.9-296.3-1095.3-296.3z M-1097.4-207h-19.5v-82h19.5c22.2,0,35.4,15.4,35.4,41.1
				C-1062-222.3-1075.3-207-1097.4-207z"/>
		</g>
		<g>
			<path class="st0" d="M-929.5-202.2v2.6h-51.3v-2.6h2.6c5.4,0,9.7-3.5,9.7-8v-75.5c0-4.5-4.3-8-9.7-8h-2.6v-2.6h51.2v2.6h-2.5
				c-5.4,0-9.6,3.4-9.8,7.9v75.7c0.2,4.5,4.4,7.9,9.8,7.9H-929.5z"/>
		</g>
		<g>
			<path class="st0" d="M-766.5-215.9l-0.1,0.1c-4.7,6.8-16.7,18.2-44.9,18.2c-40.3-0.2-64.4-19-64.4-50.4
				c0-31.5,24.1-50.3,64.4-50.3c14.7,0,29.7,2.7,40.1,7.3l0.3,0.1v26.2h-2.2l-0.1-0.4c-5.4-17.7-16.9-25.9-36.2-25.9
				c-24.3,0-38.2,15.6-38.2,42.7c0,26.7,13.6,42.9,36.4,43.4c25.2,0.1,36.1-9.5,40.5-35.3l0.1-0.4l2.3,0L-766.5-215.9z"/>
		</g>
	</g>
	<g>
		<path class="st0" d="M-1203-290.9v26.2h-2.3l-0.1-0.4c-5.4-17.7-16.9-26-36.2-26c-22.3,0-36.2,13.6-38,37.3h0l0,43.6
			c0,5,4.7,7.9,9.1,7.9h2.4v2.6h-49.8v-2.6h2.6c4.9,0,8.8-3.4,8.9-7.8v-75.9c-0.1-4.4-3.9-7.8-8.8-7.8h-2.7v-2.6l38.3,0v4.7
			c10-4.5,22.1-6.7,36.2-6.7c14.7,0,29.7,2.7,40.1,7.3L-1203-290.9z"/>
	</g>
	<g>
		<g>
			<path class="st0" d="M-1629.8-199.6h-54.7l0-2.6h3.8c5.7,0,10.3-4.1,10.4-9.2v-18.8l28.4,24.4c0.7,0.7,1.3,1.3,2.1,1.8
				c1.8,1.2,3.9,1.8,6.1,1.8h3.8L-1629.8-199.6z"/>
		</g>
	</g>
	<g>
		<path class="st0" d="M-1540.8-312.2l0,2.6h-3.8c-5.7,0-10.2,4-10.4,9v82.3c0,11.8,2,20.1,2,20.2l0.2,0.6h-2.4l-0.1-0.1
			l-114.9-98.5v-0.2c-0.2-10.5-2-17.6-2-17.7l-0.2-0.6h2.6l0.1,0.1l88.5,76v-61.9c-0.1-5-4.8-9.2-10.4-9.2h-3.8l0-2.6H-1540.8z"/>
	</g>
</g>
<g>
	<g>
		<path class="st0" d="M-1499.3-109.6l0,1.6h-13.4l0-1.6h1.2c1.7,0,3.1-1.4,3.1-3v-31.2c0-1.7-1.4-3-3.1-3h-1.2l0-1.6h13.4l0,1.6
			h-1.2c-1.7,0-3.1,1.3-3.1,3v31.3c0,1.7,1.4,3,3.1,3H-1499.3z"/>
	</g>
	<g>
		<path class="st0" d="M-1401.8-109.6v1.6h-12.7v-1.5h1.3c0.5,0,0.9-0.2,1.2-0.6c0.2-0.2,0.4-0.6,0.3-1l-2.8-21.6l-9.9,19.5
			c0,0-1.6,3.4-2,5.6l-0.1,0.4h-1.3l-13-25l-2.3,21c0,0.4,0.1,0.8,0.4,1.1c0.3,0.4,0.8,0.6,1.2,0.6h1.3v1.5h-11.4v-1.6h1.3
			c1.5,0,3.1-0.8,3.4-2.8l4.4-31.3h1.3l14.6,28l14.1-28h1.3l4.6,31.4c0.3,1.8,1.9,2.7,3.3,2.7H-1401.8z"/>
	</g>
	<g>
		<path class="st0" d="M-1319.6-109.6c-1.5,0-2.9-1.1-3.9-3l-14-31h-1.3l0,0.5c0,0.5-0.4,1.9-2,5.4c0,0.1-0.1,0.2-0.1,0.3l-11.7,25
			c-0.9,1.9-2.4,3-4,3h-0.9v1.6h11.7v-1.6h-0.9c-0.6,0-1.1-0.3-1.4-0.7c-0.4-0.6-0.4-1.3-0.1-2.1l3-7h13.6l2.9,7.2
			c0.3,0.8,0.2,1.5-0.1,2c-0.3,0.4-0.8,0.7-1.4,0.7h-0.9v1.6h12.6v-1.6H-1319.6z M-1344.2-122.2l5.8-13.6l5.6,13.6H-1344.2z"/>
	</g>
	<g>
		<path class="st0" d="M-1234-125.1v1.6h-1.3c-0.7,0-1.3,0.2-1.7,0.5c-0.3,0.3-0.4,0.7-0.4,1.2v7l-0.1,0.1
			c-1.4,1.7-6.7,7.5-16.4,7.5c-11.5-0.1-19-7.2-19-18.2c0-11,7.4-18.2,19-18.2c5.3,0,9.5,1.1,13.4,3.5l0.2,0.1l1.4,8.8h-1.5
			l-0.1-0.4c-1.6-6.4-5.9-9.3-13.5-9.3c-8.4,0-13.8,6.1-13.8,15.5c0,9.4,5.5,15.5,13.9,15.5c4.8,0,8.6-1.5,11.9-4.6l0.1-7.3
			c0-0.5-0.1-0.9-0.4-1.2c-0.4-0.4-0.9-0.5-1.7-0.5c0,0,0,0,0,0h-1.3v-1.6H-1234z"/>
	</g>
	<g>
		<path class="st0" d="M-1159.3-117.1l-3.5,9.1h-23.8l0-1.6h1.3c1.5,0,2.7-1.1,2.8-2.5v-26.7c0-1.4-1.2-2.5-2.8-2.5h-1.3l0-1.6h17
			c2.3,0,5.3-0.5,6.1-0.9l0.7-0.3v7.6l-1.6,0v-1.4c0-1.4-1-2.4-2.3-2.4h-11.2v13.3h9.1c1.6,0,1.8-1.3,1.8-1.9v-1.2l1.6,0v8.9l-1.6,0
			v-1.2c0-0.7-0.2-1.8-1.7-1.9h-9.2v13.3h8.3c4.9-0.1,6.8-2.3,8.5-6.1l0.1-0.3H-1159.3z"/>
	</g>
	<g>
		<path class="st0" d="M-1012.2-148.5v1.6h-1.4c-1.3,0-2.4,0.9-2.5,2.2v22.2c0,9.1-6.3,15.2-15.7,15.2c-9.7,0-16.1-6.1-16.1-15.1
			v-22.2c0-1.3-1.1-2.3-2.5-2.3h-1.4v-1.6h12.4v1.6h-1.4c-1.4,0-2.4,1-2.5,2.2v21.5c0,7.9,4.6,13.2,11.5,13.2c7.2,0,12-5,12.1-12.5
			v-22.2c-0.1-1.3-1.1-2.2-2.5-2.2h-1.4v-1.6H-1012.2z"/>
	</g>
	<g>
		<path class="st0" d="M-938.5-149.8v7.6l-1.6,0v-1.3c0-1.2-1-2.3-2.2-2.3h-11.4v16.4h9c1.2,0,2.2-1.1,2.2-2.3v-1.3l1.5,0v9.9
			l-1.5,0v-1.3c0-1.2-1-2.2-2.2-2.3h-9.1v14c0,1.7,1.4,3,3.1,3h1.2l0,1.6h-13.3l0-1.6h1.2c1.7,0,3.1-1.4,3.1-3.1v-31.5
			c0-1.5-1.4-2.7-3.1-2.7h-1.2l0-1.6h17c2.5,0,5.6-0.6,6.5-1L-938.5-149.8z"/>
	</g>
</g>
<g>
	<path class="st0" d="M-1137.4-364.6h-174.6c0-46.9,39.1-84.8,87.3-84.8C-1176.5-449.4-1137.4-411.5-1137.4-364.6z"/>
	<g>
		<path class="st3" d="M-1137.4-613.8v1.5c0,15.4-4.7,30.3-13.5,42.8c-10.8,17.2-25,25-40.9,32.6c-7.5-10.4-19.4-17.1-32.9-17.1
			c-22.6,0-40.9,18.9-40.9,42.1c0,6.3,1.3,12.3,3.8,17.7c-0.6,0.4-1.1,0.9-1.7,1.4c-13.5,11-25.9,23.4-36.2,37.6l-12.2,23.1
			c-2.7-17-1.3-29.9,0-37.6c8.6-49.6,47.5-66.8,61-124.9c1.9-8.4-0.4-15.3,0-19H-1137.4z"/>
	</g>
	<g>
		<path class="st0" d="M-1184.7-511.9c0,22.7-17.9,41.1-40,41.1c-7.1,0-14-1.9-20.1-5.6c14-11.1,28-19.7,37.4-25.3
			c7.2-4.3,14.5-7.7,21.7-11.1l1-0.5C-1184.8-512.8-1184.7-512.4-1184.7-511.9z"/>
	</g>
</g>
<g>
	<g>
		<g>
			<path class="st0" d="M-1629.3-133.4C-1629.3-133.4-1629.3-133.4-1629.3-133.4L-1629.3-133.4
				C-1629.3-133.4-1629.3-133.4-1629.3-133.4z"/>
		</g>
		<g>
			<path class="st0" d="M-1628-130.5c-0.4,0.1-0.8,0.1-1.1,0.2l-0.2,0c-37.4,6-51.6,0.8-56.9-4.6c-3.3-3.4-3.3-6.9-3.2-7.9
				c0-0.1,0-0.2,0.1-0.3c0.2-0.7,0.4-1.3,0.6-1.9c0.3-0.7,0.6-1.3,1-1.9c0.8-1.2,1.7-2.3,2.8-3.2c1.1-0.9,2.3-1.6,3.6-2
				c0.6-0.3,1.3-0.3,2-0.5c0.7-0.1,1.3-0.2,2-0.2c-0.6,0.2-1.3,0.3-1.9,0.6c-0.6,0.3-1.2,0.5-1.8,0.8c-1.1,0.6-2.1,1.4-2.9,2.4
				c-0.8,0.9-1.4,2-1.8,3.1c-0.2,0.6-0.4,1.1-0.5,1.7c-0.1,0.5-0.2,1.2-0.2,1.6v0c0,0.3-0.3,2.9,2.5,5.6c4,4,16.4,9.7,54.2,3.7
				c0.1,0,0.1,0,0.2,0c0.1,0,0.2,0,0.3,0c0,0,0,0,0,0c37-5.8,51.4-0.6,57,4.8c3.8,3.7,3.7,7.4,3.6,8.1c0,0.1,0,0.1,0,0.1h0
				c-0.1,0.2-0.1,0.3-0.2,0.5c-0.1,0.2-0.1,0.3-0.2,0.5c-0.2,0.3-0.3,0.6-0.5,0.9c-0.4,0.5-0.8,1-1.3,1.4c-0.9,0.8-2,1.4-3.1,1.7
				c-1.1,0.4-2.2,0.5-3.3,0.6c-0.6,0-1.1,0.1-1.6,0.1l-1.6-0.1l1.6-0.3c0.5-0.1,1-0.3,1.5-0.4c1-0.3,2-0.7,2.8-1.3
				c0.8-0.5,1.6-1.2,2.1-1.9c0.3-0.4,0.5-0.8,0.6-1.2c0.1-0.2,0.1-0.4,0.2-0.6c0-0.1,0-0.2,0-0.3c0,0,0,0,0-0.1h0
				c0-0.1,0.3-2.9-2.8-5.8c-4.2-4-16.7-9.7-53.1-4.1"/>
		</g>
	</g>
	<g>
		<g>
			<path class="st0" d="M-882.4-120.3L-882.4-120.3L-882.4-120.3C-882.4-120.3-882.4-120.3-882.4-120.3z"/>
			<path class="st0" d="M-879.4-120.7L-879.4-120.7c0,0,0-0.1,0-0.1h0C-879.4-120.7-879.4-120.7-879.4-120.7z"/>
		</g>
		<g>
			<path class="st0" d="M-823.5-130.6c-36.5-5.6-48.9,0.1-53.1,4.1c-2.8,2.6-2.8,5.1-2.8,5.7h0c0,0,0,0.1,0,0.1c0,0,0,0,0,0.1
				c0,0.1,0,0.2,0,0.3c0,0.2,0.1,0.4,0.2,0.6c0.1,0.4,0.4,0.8,0.6,1.2c0.5,0.7,1.3,1.4,2.1,1.9c0.8,0.6,1.8,0.9,2.8,1.3
				c0.5,0.1,1,0.3,1.5,0.4l1.6,0.3l-1.6,0.1c-0.5,0-1.1,0-1.6-0.1c-1.1-0.1-2.2-0.3-3.3-0.6c-1.1-0.4-2.2-0.9-3.1-1.7
				c-0.5-0.4-0.9-0.9-1.3-1.4c-0.2-0.3-0.4-0.6-0.5-0.9c-0.1-0.2-0.2-0.3-0.2-0.5c-0.1-0.2-0.1-0.3-0.2-0.5c0,0,0,0,0,0c0,0,0,0,0,0
				s0,0,0,0c0-0.7-0.2-4.5,3.6-8.1c5.6-5.4,20.1-10.7,57-4.8c0,0,0,0,0,0l0,0c0.1,0,0.2,0,0.3,0c0.1,0,0.1,0,0.2,0
				c38,6.1,50.3,0.2,54.3-3.8c2.6-2.6,2.4-5.2,2.4-5.5v0c0-0.5-0.1-1.1-0.2-1.6c-0.1-0.6-0.3-1.2-0.5-1.7c-0.4-1.1-1-2.2-1.8-3.1
				c-0.8-0.9-1.8-1.8-2.9-2.4c-0.5-0.4-1.2-0.5-1.8-0.8c-0.6-0.2-1.3-0.4-1.9-0.6c0.7,0.1,1.3,0.1,2,0.2c0.6,0.2,1.3,0.2,2,0.5
				c1.3,0.4,2.5,1.1,3.6,2c1.1,0.9,2.1,2,2.8,3.2c0.4,0.6,0.7,1.3,1,1.9c0.3,0.6,0.5,1.2,0.6,1.9c0,0.1,0,0.2,0.1,0.3
				c0.1,1,0.2,4.5-3.2,7.9c-5.3,5.4-19.5,10.6-56.9,4.6l-0.2,0c-0.4-0.1-0.8-0.1-1.2-0.2"/>
		</g>
	</g>
</g>
<g>
	<g>
		<g>
			<g>
				<path class="st3" d="M477.6,108.2c0-42.9-22.1-69.4-56.5-69.4c-34.1,0-56.4,26.5-56.4,69.4c0,42.8,22.3,69.3,56.4,69.3
					C455.5,177.5,477.6,151,477.6,108.2z M521,108.2c0,48.9-40,79.3-99.8,79.3c-59.6,0-99.6-30.4-99.6-79.3
					c0-49.1,40-79.4,99.6-79.4C481,28.8,521,59.1,521,108.2z"/>
			</g>
			<g>
				<path class="st3" d="M948.4,32c60.5,0,96.8,28.4,96.8,76.2c0,47.7-36.3,76-96.8,76h-95.1v-2.5h3.5c8.6,0,15.6-6.1,15.8-13.7
					V47.8c-0.4-7.7-7.3-13.2-16.1-13.2h-3.4V32L948.4,32z M913.3,174H945c35.2,0,57.1-24.5,57.1-65.8c0-41.5-21.7-66.2-57.1-66.2
					h-31.8L913.3,174z"/>
			</g>
			<g>
				<path class="st3" d="M1131.4,184.2v-2.5h3.3c8.8,0,16.2-5.8,16.2-13.5V48c-0.1-7.7-7.4-13.5-16.2-13.5h-3.3V32h79.9v2.5h-3.3
					c-8.9,0-16.1,5.7-16.4,13.3v120.4c0.3,7.6,7.5,13.4,16.4,13.4h3.3v2.5L1131.4,184.2z"/>
			</g>
			<g>
				<path class="st3" d="M1467.3,120.6l3.3,38.2c-11,16.1-34.1,28.6-70.7,28.6c-62.7-0.3-101.6-29.2-101.6-79.5
					c0-49.7,38-79.2,101.6-79.2c25.8,0,48.6,5,63.5,11.5v40.3h-2.2c-9.6-31.2-30.5-41.8-58.4-41.8c-41,0-61.5,27.4-61.5,68.8
					c0,42.1,21.7,69,58.7,69.8c40.2,0.1,58.2-15.4,65.2-56.8L1467.3,120.6z"/>
			</g>
		</g>
		<g>
			<path class="st3" d="M669.7,181.7c-7.5,0-15.3-5-15.3-13.4L654.5,32l-59.3,0v2.6h3.6c8.1,0,14.7,5.6,14.8,13.2v120.7
				c-0.2,7.5-6.9,13.2-15,13.2h-3.4v2.5h77.6v-2.5H669.7z"/>
		</g>
		<g>
			<path class="st3" d="M712.8,28.8c-23,0-42.6,3.9-58.3,11.1v58.9c2.7-36.5,23.2-60.1,61.2-60.1c27.9,0,48.8,10.7,58.4,41.9h2.2
				V40.3C761.5,33.8,738.6,28.8,712.8,28.8z"/>
		</g>
		<g>
			<g>
				<path class="st3" d="M92.1,181.7c-3.8,0-7.3-1.1-10.2-3c-1.3-0.8-2.4-1.8-3.4-2.9l-43.9-37.7v28.2c-0.2,8.5-7.9,15.4-17.4,15.4
					h-5.2l0,2.5h85.4l0-2.5H92.1z"/>
			</g>
		</g>
		<g>
			<path class="st3" d="M239,6.7l0,2.5h-5.2c-9.4,0-17.1,6.7-17.4,15.2v131c0,19.1,3.2,32.4,3.2,32.4H217l-69.1-59.3L107.7,94
				L34.5,31.3c-0.3-17-3.3-28.4-3.3-28.4H34l60.5,51.9l53.3,45.8l28.3,24.3V24.6c-0.2-8.5-7.9-15.4-17.4-15.4h-5.2l0-2.5H239z"/>
		</g>
	</g>
	<g>
		<g>
			<path class="st3" d="M305,329.9h-19.6l0-0.9h1.1c3.1,0,5.7-2.5,5.7-5.6v-49.7c-0.1-3.1-2.6-5.6-5.7-5.6h-1.1l0-0.9H305l0,0.9
				h-1.1c-3.1,0-5.7,2.5-5.7,5.6v49.7c0.1,3.1,2.6,5.6,5.7,5.6h1.1L305,329.9z"/>
		</g>
		<g>
			<path class="st3" d="M452.6,324c0.5,3.1,3.2,4.9,6.1,4.9h1.3v0.9h-18.6V329h1.3c1.8,0,3.5-1.5,3.3-3.5l-4.7-36.9L424.4,322
				c0,0-2.6,5.4-3.2,9.2h-0.9l-21.6-41.7l-4,36.1c-0.2,1.9,1.5,3.5,3.3,3.5h1.3v0.8h-16.6V329h1.3c3,0,5.7-1.9,6.1-5.1l6.9-49.1h0.9
				l23.7,45.5l22.9-45.5h0.9L452.6,324z"/>
		</g>
		<g>
			<path class="st3" d="M584.7,323.7c1.8,3.7,4.5,5.2,6.9,5.2h0.7v0.9h-18.4V329h0.7c2,0,4.3-1.9,3.2-5.4l-4.9-11.9h-22.7l-4.9,11.7
				c-1.4,3.6,1,5.6,3.1,5.6h0.7v0.9H532V329h0.7c2.4,0,5.2-1.5,7-5.2l18.6-39.7c0,0,3.3-6.9,3.5-9.2h0.8L584.7,323.7z M571.8,309
				l-10.1-24.5L551.3,309H571.8z"/>
		</g>
		<g>
			<path class="st3" d="M721.7,319.6c-4.2,5.3-12.9,11.5-25.5,11.5c-17.7-0.1-29.4-10.8-29.4-28.1c0-17.5,11.7-28.1,29.4-28.1
				c8.3,0,14.9,1.7,20.9,5.4l2,12.7h-0.8c-2.6-10.5-9.7-15.4-22.2-15.4c-13.7,0-22.8,9.7-22.8,25.5c0,15.7,9.2,25.5,22.9,25.5
				c7.5,0,14.1-2.3,19.7-7.8l0.1-11.9c0-2.3-1.6-3.5-4.2-3.5h-1.3v-0.9H727v0.9h-1.2c-2.6,0-4.1,1.3-4.1,3.6L721.7,319.6z"/>
		</g>
		<g>
			<path class="st3" d="M840.5,329.9h-36.4l0-0.9h1.2c2.9,0,5.1-2.1,5.2-4.8v-42.5c0-2.7-2.3-4.7-5.2-4.7h-1.2l0-0.9h26.2
				c3.6,0,8.5-0.8,10-1.4v10.1l-1,0v-1.4c0-2.5-1.8-4.6-4.5-4.6h-18.6v22.8h15.3c2.5-0.1,3.6-1.7,3.6-3.8v-1.1l1,0v12.6l-1,0v-1.1
				c0-2-1.1-3.7-3.4-3.8h-15.5v22.8h14c8.6-0.1,11.7-4.3,14.2-10.1h1L840.5,329.9z"/>
		</g>
		<g>
			<path class="st3" d="M1079.8,267.1v0.9h-1.5c-2.5,0-4.6,1.8-4.7,4.2v35.4c0,14.1-9.7,23.4-24.2,23.4c-14.9,0-24.9-9.3-24.9-23.3
				v-35.4c0-2.6-2.1-4.4-4.7-4.4h-1.5v-0.9h18.2v0.9h-1.5c-2.5,0-4.6,1.8-4.7,4.3v34.2c0,13.1,7.6,21.8,19,21.8c12,0,20-8.2,20-20.6
				v-35.4c-0.1-2.5-2.2-4.3-4.7-4.3h-1.5v-0.9L1079.8,267.1z"/>
		</g>
		<g>
			<path class="st3" d="M1197.1,268.1v1.5v5.9l-0.9,0v-1.3c0-2.4-1.9-4.4-4.3-4.4h-19v27.7h15.1c2.4,0,4.3-2,4.3-4.4v-1.3l0.9,0V306
				l-0.9,0v-1.3c0-2.4-1.9-4.3-4.2-4.4h-15.2v23.1c0.1,3.1,2.6,5.6,5.7,5.6h1.1l0,0.9h-19.6l0-0.9h1.1c3.1,0,5.7-2.5,5.7-5.6v-50.2
				c0-2.9-2.7-5.1-5.7-5.1h-1.1l0-0.9h26.2c3.9,0,9-0.9,10.7-1.6L1197.1,268.1z"/>
		</g>
	</g>
	<g>
		<g>
			<g>
				<g>
					<path class="st3" d="M195,311.5l0-0.4c0,0,0,0,0-0.1c0,0,0,0,0,0c0,0,0-0.1,0-0.2"/>
				</g>
			</g>
			<g>
				<g>
					<path class="st3" d="M195.1,310.9c0,0.1,0,0.1,0,0.1l0,0.1c-0.1,0.2-0.1,0.4-0.2,0.5l-0.1,0.1c0,0.2-0.1,0.3-0.2,0.5l-0.1,0.2
						c-0.2,0.4-0.5,0.9-0.8,1.3c-0.5,0.7-1.1,1.4-1.9,2.2c-1.3,1.1-2.9,2-4.8,2.7c-1.6,0.6-3.2,0.8-5.1,1l-0.9,0c-0.3,0-0.6,0-0.9,0
						c0.2-0.1,0.5-0.1,0.7-0.2c0.3-0.1,0.7-0.2,1-0.3c1.5-0.6,3.2-1.2,4.5-2.1c1.5-0.9,2.6-2,3.5-3.1c0.4-0.6,0.8-1.2,1-1.9
						c0.1-0.3,0.2-0.7,0.3-1c0-0.2,0.1-0.3,0.1-0.5l0-0.2l0-0.1c0-1-0.1-5.1-4.6-9.4c-6.6-6.2-26.2-15.4-83.1-6.9l-3.2,0.5l-1.3,0.2
						c-59.3,9.5-81.7,1.3-90.1-7.3c-5.1-5.1-5.1-10.4-5-12.1l0.4-1.6c0.2-0.7,0.4-1.3,0.7-1.9c0.4-1,0.9-1.9,1.5-3
						c1.2-1.9,2.7-3.7,4.4-5c1.9-1.4,3.8-2.5,5.7-3.1c0.6-0.3,1.4-0.4,2-0.5c-0.7,0.3-1.3,0.5-1.9,0.9c-1.7,0.9-3.3,2.1-4.7,3.8
						c-1.3,1.4-2.3,3.1-3,5.1c-0.4,1-0.6,1.9-0.8,2.8c-0.2,0.9-0.3,1.9-0.3,2.7c-0.1,0.8-0.3,4.9,4,9.3c6.3,6.3,25.6,15.3,83.7,6.4
						l6.4-1c56.7-8.6,79-0.5,87.7,8C195.3,304,195.2,309.7,195.1,310.9z"/>
				</g>
			</g>
		</g>
		<g>
			<g>
				<g>
					<path class="st3" d="M1478.8,275.5c0,0.2,0,0.5,0,0.8c0,2.2-0.6,6.8-5,11.2c-8.4,8.6-30.8,16.8-90.1,7.3l-2.4-0.4l0,0l-0.4-0.1
						c-58.2-8.9-78.1,0.3-84.8,6.6c-4,3.7-4.6,7.4-4.6,9l0,0.4v0.1l0,0.1c0,0.1,0,0.3,0.1,0.6l0,0.2c0.1,0.2,0.1,0.5,0.2,0.7
						c0.2,0.7,0.6,1.3,1,1.9c0.8,1.2,2,2.2,3.5,3.1c1.3,0.9,2.7,1.4,4.6,2.1c0.3,0.1,0.6,0.2,0.9,0.3c0.2,0.1,0.5,0.1,0.7,0.2
						c-0.3,0-0.6,0-0.9,0c-0.3,0-0.6,0-0.9,0c-1.6-0.2-3.4-0.4-5.1-1c-1.9-0.7-3.5-1.5-4.8-2.7c-0.8-0.7-1.5-1.4-2-2.2
						c-0.3-0.4-0.5-0.9-0.8-1.3l-0.1-0.3c-0.1-0.2-0.2-0.3-0.2-0.5l0-0.1c-0.1-0.2-0.1-0.3-0.2-0.5l0-0.2l0,0
						c-0.1-1.1-0.2-7,5.6-12.6c8.8-8.5,31.7-16.8,90.3-7.6l0.6,0.1l0.3,0c60.7,9.7,80.4,0.3,86.7-6.1c4.5-4.6,3.9-9.1,3.9-9.1
						c0-0.7-0.1-1.7-0.3-2.7c-0.2-0.9-0.5-1.8-0.8-2.8c-0.7-1.9-1.7-3.6-3-5.1c-1.5-1.7-3.1-3-4.7-3.8c-0.6-0.4-1.3-0.7-1.9-0.9
						c0.7,0.1,1.4,0.3,2.1,0.6c1.9,0.6,3.8,1.6,5.6,3.1c1.7,1.3,3.2,3,4.4,5c0.6,1,1.1,2,1.5,3c0.3,0.7,0.5,1.3,0.7,1.9
						L1478.8,275.5z"/>
				</g>
				<g>
					<polygon class="st3" points="1291.4,310 1291.4,310 1291.4,310.4 					"/>
				</g>
			</g>
		</g>
	</g>
</g>
</svg>
