<?xml version="1.0" encoding="utf-8"?>
<!-- Generator: Adobe Illustrator 23.0.6, SVG Export Plug-In . SVG Version: 6.00 Build 0)  -->
<svg version="1.1" id="Lager_1" xmlns="http://www.w3.org/2000/svg" xmlns:xlink="http://www.w3.org/1999/xlink" x="0px" y="0px"
	 viewBox="0 0 431 617" style="enable-background:new 0 0 431 617;" xml:space="preserve">
<style type="text/css">
	.st0{fill:#181329;}
	.st1{fill:#FFFFFF;}
	.st2{fill:none;}
	.st3{fill:#3BECD8;}
</style>
<g>
	<g>
		<g>
			<path class="st0" d="M-7560.2-409.8c-38.3,0-63.1,19.8-63.1,50.4c0,30.6,24.8,50.3,63.1,50.3c38.4,0,63.2-19.8,63.2-50.3
				C-7497-390-7521.8-409.8-7560.2-409.8z M-7560.2-316.3c-21.3,0-35-16.9-35-43c0-26.6,13.4-43.1,35-43.1s35,16.5,35,43.1
				C-7525.2-332.8-7538.6-316.3-7560.2-316.3z"/>
		</g>
		<g>
			<path class="st0" d="M-7228.8-407.8h-60.4v2.6h2.6c5.3,0,9.4,3.3,9.6,7.8v75.5c-0.1,4.5-4.3,8.1-9.4,8.1h-2.7v2.6h60.3
				c38.4,0,61.3-18,61.3-48.3C-7167.5-389.7-7190.4-407.8-7228.8-407.8z M-7230.9-318.5h-19.5v-82h19.5c22.2,0,35.4,15.4,35.4,41.1
				C-7195.5-333.8-7208.7-318.5-7230.9-318.5z"/>
		</g>
		<g>
			<path class="st0" d="M-7063-313.7v2.6h-51.3v-2.6h2.6c5.4,0,9.7-3.5,9.7-8v-75.5c0-4.5-4.3-8-9.7-8h-2.6v-2.6h51.2v2.6h-2.5
				c-5.4,0-9.6,3.4-9.8,7.9v75.7c0.2,4.5,4.4,7.9,9.8,7.9H-7063z"/>
		</g>
		<g>
			<path class="st0" d="M-6900-327.4l-0.1,0.1c-4.7,6.8-16.7,18.2-44.9,18.2c-40.3-0.2-64.4-19-64.4-50.4
				c0-31.5,24.1-50.3,64.4-50.3c14.7,0,29.7,2.7,40.1,7.3l0.3,0.1v26.2h-2.2l-0.1-0.4c-5.4-17.7-16.9-25.9-36.2-25.9
				c-24.3,0-38.2,15.6-38.2,42.7c0,26.7,13.6,42.9,36.4,43.4c25.2,0.1,36.1-9.5,40.5-35.3l0.1-0.4l2.3,0L-6900-327.4z"/>
		</g>
	</g>
	<g>
		<path class="st0" d="M-7336.5-402.4v26.2h-2.3l-0.1-0.4c-5.4-17.7-16.9-26-36.2-26c-22.3,0-36.2,13.6-38,37.3h0l0,43.6
			c0,5,4.7,7.9,9.1,7.9h2.4v2.6h-49.8v-2.6h2.6c4.9,0,8.8-3.4,8.9-7.8v-75.9c-0.1-4.4-3.9-7.8-8.8-7.8h-2.7v-2.6l38.3,0v4.7
			c10-4.5,22.1-6.7,36.2-6.7c14.7,0,29.7,2.7,40.1,7.3L-7336.5-402.4z"/>
	</g>
	<g>
		<g>
			<path class="st0" d="M-7763.3-311.1h-54.7l0-2.6h3.8c5.6,0,10.3-4.1,10.4-9.2v-18.8l28.4,24.4c0.6,0.7,1.3,1.3,2.1,1.8
				c1.8,1.2,3.9,1.8,6.1,1.8h3.8L-7763.3-311.1z"/>
		</g>
	</g>
	<g>
		<path class="st0" d="M-7674.2-423.7l0,2.6h-3.8c-5.7,0-10.2,4-10.4,9v82.3c0,11.8,2,20.1,2,20.2l0.1,0.6h-2.4l-0.1-0.1
			l-114.9-98.5v-0.2c-0.2-10.5-2-17.6-2-17.7l-0.2-0.6h2.6l0.1,0.1l88.5,76v-61.9c-0.1-5-4.8-9.2-10.4-9.2h-3.8l0-2.6H-7674.2z"/>
	</g>
</g>
<g>
	<g>
		<path class="st0" d="M-7632.8-221.1l0,1.6h-13.3l0-1.6h1.2c1.7,0,3.1-1.4,3.1-3v-31.3c0-1.7-1.4-3-3.1-3h-1.2l0-1.6h13.3l0,1.6
			h-1.2c-1.7,0-3.1,1.3-3.1,3v31.3c0,1.7,1.4,3,3.1,3H-7632.8z"/>
	</g>
	<g>
		<path class="st0" d="M-7535.3-221.1v1.6h-12.7v-1.5h1.3c0.5,0,0.9-0.2,1.2-0.6c0.2-0.2,0.4-0.6,0.3-1l-2.8-21.6l-9.9,19.5
			c0,0-1.6,3.4-2,5.6l-0.1,0.4h-1.3l-13-25l-2.3,21c0,0.4,0.1,0.8,0.4,1.1c0.3,0.4,0.8,0.6,1.2,0.6h1.3v1.5h-11.4v-1.6h1.3
			c1.5,0,3.1-0.8,3.4-2.8l4.4-31.3h1.3l14.6,28l14.1-28h1.3l4.6,31.4c0.3,1.8,1.9,2.7,3.4,2.7H-7535.3z"/>
	</g>
	<g>
		<path class="st0" d="M-7453.1-221.1c-1.5,0-2.9-1.1-3.9-3l-14-31h-1.3l0,0.5c0,0.5-0.4,1.9-2,5.4c-0.1,0.1-0.1,0.2-0.1,0.3
			l-11.7,25c-0.9,1.9-2.4,3-4,3h-0.9v1.6h11.7v-1.6h-0.9c-0.5,0-1.1-0.3-1.4-0.7c-0.4-0.6-0.4-1.3-0.1-2.1l3-7h13.6l2.9,7.2
			c0.3,0.8,0.2,1.5-0.1,2c-0.3,0.4-0.8,0.7-1.4,0.7h-0.9v1.6h12.6v-1.6H-7453.1z M-7477.6-233.7l5.8-13.6l5.6,13.6H-7477.6z"/>
	</g>
	<g>
		<path class="st0" d="M-7367.5-236.6v1.6h-1.3c-0.7,0-1.3,0.2-1.6,0.5c-0.3,0.3-0.4,0.7-0.4,1.2v7l-0.1,0.1
			c-1.4,1.7-6.6,7.5-16.4,7.5c-11.5-0.1-19-7.2-19-18.2c0-11,7.4-18.2,19-18.2c5.3,0,9.5,1.1,13.4,3.5l0.2,0.1l1.4,8.8h-1.5
			l-0.1-0.4c-1.6-6.4-5.9-9.3-13.5-9.3c-8.4,0-13.8,6.1-13.8,15.5c0,9.4,5.5,15.5,13.9,15.5c4.8,0,8.6-1.5,11.9-4.6l0.1-7.3
			c0-0.5-0.1-0.9-0.4-1.2c-0.4-0.4-0.9-0.5-1.7-0.5c0,0,0,0,0,0h-1.3v-1.6H-7367.5z"/>
	</g>
	<g>
		<path class="st0" d="M-7292.8-228.6l-3.5,9.1h-23.8l0-1.6h1.3c1.5,0,2.7-1.1,2.8-2.5v-26.7c0-1.4-1.2-2.5-2.8-2.5h-1.3l0-1.6h17
			c2.3,0,5.3-0.5,6.1-0.9l0.7-0.3v7.6l-1.6,0v-1.4c0-1.4-1-2.4-2.3-2.4h-11.2v13.3h9.1c1.6,0,1.8-1.3,1.8-1.9v-1.2l1.6,0v8.9l-1.6,0
			v-1.2c0-0.7-0.2-1.8-1.7-1.9h-9.2v13.3h8.3c4.9-0.1,6.8-2.3,8.5-6.1l0.1-0.3H-7292.8z"/>
	</g>
	<g>
		<path class="st0" d="M-7145.7-260v1.6h-1.4c-1.3,0-2.4,0.9-2.5,2.2v22.3c0,9.1-6.3,15.2-15.7,15.2c-9.7,0-16.1-6.1-16.1-15.1
			v-22.3c0-1.3-1.1-2.3-2.5-2.3h-1.4v-1.6h12.4v1.6h-1.4c-1.4,0-2.4,1-2.5,2.2v21.5c0,7.9,4.6,13.2,11.5,13.2c7.2,0,12-5,12.1-12.5
			v-22.2c-0.1-1.3-1.1-2.2-2.5-2.2h-1.4v-1.6H-7145.7z"/>
	</g>
	<g>
		<path class="st0" d="M-7071.9-261.3v7.6l-1.6,0v-1.3c0-1.2-1-2.3-2.2-2.3h-11.4v16.4h9c1.2,0,2.2-1.1,2.2-2.3v-1.3l1.6,0v9.9
			l-1.6,0v-1.3c0-1.2-1-2.2-2.2-2.3h-9.1v14c0,1.7,1.4,3,3.1,3h1.2l0,1.6h-13.3l0-1.6h1.2c1.7,0,3.1-1.4,3.1-3.1v-31.5
			c0-1.5-1.4-2.7-3.1-2.7h-1.2l0-1.6h17c2.5,0,5.6-0.6,6.5-1L-7071.9-261.3z"/>
	</g>
</g>
<g>
	<path class="st0" d="M-7270.9-476.1h-174.6c0-46.9,39.1-84.8,87.3-84.8S-7270.9-522.9-7270.9-476.1z"/>
	<g>
		<path class="st0" d="M-7270.9-725.3v1.5c0,15.4-4.7,30.3-13.5,42.8c-10.8,17.2-25,25-40.9,32.6c-7.5-10.4-19.4-17.1-32.9-17.1
			c-22.6,0-40.9,18.9-40.9,42.1c0,6.3,1.3,12.3,3.8,17.7c-0.6,0.4-1.1,0.9-1.7,1.4c-13.5,11-25.9,23.4-36.2,37.6l-12.2,23.1
			c-2.7-17-1.3-29.9,0-37.6c8.6-49.6,47.5-66.8,61-124.9c1.9-8.4-0.4-15.3,0-19H-7270.9z"/>
	</g>
	<g>
		<path class="st0" d="M-7318.2-623.4c0,22.7-17.9,41.1-40,41.1c-7.1,0-14-1.9-20.1-5.6c14-11.1,28-19.7,37.4-25.3
			c7.2-4.3,14.5-7.7,21.7-11.1l1-0.5C-7318.2-624.3-7318.2-623.9-7318.2-623.4z"/>
	</g>
</g>
<g>
	<g>
		<g>
			<path class="st0" d="M-7762.7-244.9C-7762.8-244.9-7762.8-244.9-7762.7-244.9L-7762.7-244.9
				C-7762.8-244.9-7762.8-244.9-7762.7-244.9z"/>
		</g>
		<g>
			<path class="st0" d="M-7761.5-242c-0.4,0.1-0.8,0.1-1.1,0.2l-0.2,0c-37.4,6-51.6,0.8-56.9-4.6c-3.4-3.4-3.3-6.9-3.2-7.9
				c0-0.1,0-0.2,0.1-0.3c0.2-0.7,0.4-1.3,0.6-1.9c0.3-0.7,0.6-1.3,1-1.9c0.8-1.2,1.7-2.3,2.8-3.2c1.1-0.9,2.3-1.6,3.6-2
				c0.6-0.3,1.3-0.3,2-0.5c0.7-0.1,1.3-0.2,2-0.2c-0.6,0.2-1.3,0.3-1.9,0.6c-0.6,0.3-1.2,0.5-1.8,0.8c-1.1,0.6-2.1,1.4-2.9,2.4
				c-0.8,0.9-1.4,2-1.8,3.1c-0.2,0.6-0.4,1.1-0.5,1.7c-0.1,0.5-0.2,1.2-0.2,1.6v0c0,0.3-0.3,2.9,2.5,5.6c4,4,16.4,9.7,54.2,3.7
				c0.1,0,0.1,0,0.2,0c0.1,0,0.2,0,0.3,0c0,0,0,0,0,0c37-5.8,51.4-0.6,57,4.8c3.8,3.7,3.7,7.4,3.6,8.1c0,0.1,0,0.1,0,0.1h0
				c-0.1,0.2-0.1,0.3-0.2,0.5c-0.1,0.2-0.1,0.3-0.2,0.5c-0.2,0.3-0.3,0.6-0.5,0.9c-0.4,0.5-0.8,1-1.3,1.4c-0.9,0.8-2,1.4-3.1,1.7
				c-1.1,0.4-2.2,0.5-3.3,0.6c-0.6,0-1.1,0.1-1.6,0.1l-1.6-0.1l1.6-0.3c0.5-0.1,1-0.3,1.5-0.4c1-0.3,2-0.7,2.8-1.3
				c0.8-0.5,1.6-1.2,2.1-1.9c0.3-0.4,0.5-0.8,0.6-1.2c0.1-0.2,0.1-0.4,0.2-0.6c0-0.1,0-0.2,0-0.3c0,0,0,0,0-0.1h0
				c0-0.1,0.3-2.9-2.8-5.8c-4.2-4-16.7-9.7-53.1-4.1"/>
		</g>
	</g>
	<g>
		<g>
			<path class="st0" d="M-7015.9-231.8L-7015.9-231.8L-7015.9-231.8C-7015.9-231.8-7015.9-231.8-7015.9-231.8z"/>
			<path class="st0" d="M-7012.9-232.2L-7012.9-232.2c0,0,0-0.1,0-0.1h0C-7012.9-232.2-7012.9-232.2-7012.9-232.2z"/>
		</g>
		<g>
			<path class="st0" d="M-6957-242.1c-36.5-5.6-48.9,0.1-53.1,4.1c-2.8,2.6-2.8,5.1-2.8,5.7h0c0,0,0,0.1,0,0.1c0,0,0,0,0,0.1
				c0,0.1,0,0.2,0,0.3c0,0.2,0.1,0.4,0.2,0.6c0.1,0.4,0.4,0.8,0.6,1.2c0.5,0.7,1.3,1.4,2.1,1.9c0.8,0.6,1.8,0.9,2.8,1.3
				c0.5,0.1,1,0.3,1.5,0.4l1.6,0.3l-1.6,0.1c-0.5,0-1.1,0-1.6-0.1c-1.1-0.1-2.2-0.3-3.3-0.6c-1.1-0.4-2.2-0.9-3.1-1.7
				c-0.5-0.4-0.9-0.9-1.3-1.4c-0.2-0.3-0.4-0.6-0.5-0.9c-0.1-0.2-0.2-0.3-0.2-0.5c-0.1-0.2-0.1-0.3-0.2-0.5c0,0,0,0,0,0c0,0,0,0,0,0
				s0,0,0,0c0-0.7-0.1-4.5,3.6-8.1c5.6-5.4,20.1-10.7,57-4.8c0,0,0,0,0,0l0,0c0.1,0,0.2,0,0.3,0c0.1,0,0.1,0,0.2,0
				c38,6.1,50.4,0.2,54.3-3.8c2.6-2.6,2.4-5.2,2.4-5.5v0c0-0.5-0.1-1.1-0.2-1.6c-0.1-0.6-0.3-1.2-0.5-1.7c-0.4-1.1-1-2.2-1.8-3.1
				c-0.8-0.9-1.8-1.8-2.9-2.4c-0.5-0.4-1.2-0.5-1.8-0.8c-0.6-0.2-1.3-0.4-1.9-0.6c0.6,0.1,1.3,0.1,2,0.2c0.6,0.2,1.3,0.2,2,0.5
				c1.3,0.4,2.5,1.1,3.6,2c1.1,0.9,2.1,2,2.8,3.2c0.4,0.6,0.7,1.3,1,1.9c0.3,0.6,0.5,1.2,0.6,1.9c0,0.1,0,0.2,0.1,0.3
				c0.1,1,0.2,4.5-3.2,7.9c-5.3,5.4-19.5,10.6-56.9,4.6l-0.2,0c-0.4-0.1-0.8-0.1-1.1-0.2"/>
		</g>
	</g>
</g>
<g>
	<g>
		<g>
			<path class="st1" d="M-5845.9-383c0-27-13.9-43.6-35.5-43.6c-21.5,0-35.5,16.7-35.5,43.6c0,26.9,14,43.5,35.5,43.5
				C-5859.8-339.4-5845.9-356.1-5845.9-383z M-5818.6-383c0,30.7-25.1,49.8-62.7,49.8c-37.5,0-62.6-19.1-62.6-49.8
				c0-30.8,25.1-49.9,62.6-49.9C-5843.8-432.9-5818.6-413.8-5818.6-383z"/>
		</g>
		<g>
			<path class="st1" d="M-5550-430.8c38,0,60.8,17.9,60.8,47.9c0,30-22.8,47.8-60.8,47.8h-59.8v-1.6h2.2c5.4,0,9.8-3.9,9.9-8.6
				v-75.5c-0.3-4.8-4.6-8.3-10.1-8.3h-2.1v-1.6L-5550-430.8z M-5572-341.6h20c22.1,0,35.9-15.4,35.9-41.4
				c0-26.1-13.6-41.6-35.9-41.6h-20L-5572-341.6z"/>
		</g>
		<g>
			<path class="st1" d="M-5434.9-335.2v-1.6h2.1c5.5,0,10.2-3.7,10.2-8.5v-75.5c0-4.8-4.7-8.5-10.2-8.5h-2.1v-1.6h50.2v1.6h-2
				c-5.6,0-10.1,3.6-10.3,8.4v75.7c0.2,4.8,4.7,8.4,10.3,8.4h2.1v1.6L-5434.9-335.2z"/>
		</g>
		<g>
			<path class="st1" d="M-5223.8-375.2l2.1,24c-6.9,10.1-21.4,18-44.5,18c-39.4-0.2-63.9-18.3-63.9-49.9c0-31.2,23.9-49.8,63.9-49.8
				c16.2,0,30.6,3.2,39.9,7.2v25.3h-1.4c-6-19.6-19.2-26.3-36.7-26.3c-25.7,0-38.7,17.2-38.7,43.2c0,26.4,13.6,43.4,36.9,43.9
				c25.3,0.1,36.6-9.7,41-35.7L-5223.8-375.2z"/>
		</g>
	</g>
	<g>
		<path class="st1" d="M-5725.1-336.8c-4.7,0-9.6-3.1-9.6-8.5l0.1-85.6l-37.3,0v1.6h2.2c5.1,0,9.2,3.5,9.3,8.3v75.9
			c-0.1,4.7-4.3,8.3-9.4,8.3h-2.1v1.6h48.8v-1.6H-5725.1z"/>
	</g>
	<g>
		<path class="st1" d="M-5698-432.9c-14.4,0-26.8,2.4-36.7,7v37c1.7-22.9,14.6-37.8,38.5-37.8c17.5,0,30.7,6.7,36.7,26.3h1.4v-25.3
			C-5667.5-429.7-5681.8-432.9-5698-432.9z"/>
	</g>
	<g>
		<g>
			<path class="st1" d="M-6088.3-336.8c-2.4,0-4.6-0.7-6.4-1.9c-0.8-0.5-1.5-1.1-2.1-1.8l-27.6-23.7v17.7c-0.1,5.4-5,9.7-10.9,9.7
				h-3.3l0,1.6h53.7l0-1.6H-6088.3z"/>
		</g>
	</g>
	<g>
		<path class="st1" d="M-5995.9-446.8l0,1.6h-3.3c-5.9,0-10.7,4.2-10.9,9.5v82.4c0,12,2,20.3,2,20.3h-1.6l-43.5-37.3l-25.2-21.6
			l-46-39.5c-0.2-10.7-2-17.8-2-17.8h1.8l38,32.6l33.5,28.8l17.8,15.3v-63c-0.1-5.3-5-9.7-10.9-9.7h-3.3l0-1.6H-5995.9z"/>
	</g>
</g>
<g>
	<g>
		<path class="st1" d="M-5954.4-243.6h-12.3l0-0.6h0.7c2,0,3.6-1.6,3.6-3.5V-279c0-2-1.6-3.5-3.6-3.5h-0.7l0-0.6h12.3l0,0.6h-0.7
			c-2,0-3.6,1.6-3.6,3.5v31.3c0,2,1.6,3.5,3.6,3.5h0.7L-5954.4-243.6z"/>
	</g>
	<g>
		<path class="st1" d="M-5861.6-247.3c0.3,2,2,3.1,3.8,3.1h0.8v0.6h-11.7v-0.5h0.8c1.1,0,2.2-1,2.1-2.2l-3-23.2l-10.6,20.9
			c0,0-1.6,3.4-2,5.8h-0.6l-13.6-26.2l-2.5,22.7c-0.1,1.2,0.9,2.2,2.1,2.2h0.8v0.5h-10.5v-0.6h0.8c1.9,0,3.6-1.2,3.9-3.2l4.4-30.8
			h0.6l14.9,28.6l14.4-28.6h0.5L-5861.6-247.3z"/>
	</g>
	<g>
		<path class="st1" d="M-5778.6-247.5c1.1,2.3,2.8,3.3,4.4,3.3h0.4v0.6h-11.6v-0.6h0.4c1.3,0,2.7-1.2,2-3.4l-3.1-7.5h-14.3l-3.1,7.3
			c-0.9,2.3,0.6,3.5,1.9,3.5h0.4v0.6h-10.7v-0.6h0.4c1.5,0,3.3-1,4.4-3.3l11.7-25c0,0,2.1-4.3,2.2-5.8h0.5L-5778.6-247.5z
			 M-5786.7-256.8l-6.3-15.4l-6.5,15.4H-5786.7z"/>
	</g>
	<g>
		<path class="st1" d="M-5692.5-250.1c-2.6,3.3-8.1,7.3-16.1,7.3c-11.1-0.1-18.5-6.8-18.5-17.7c0-11,7.4-17.7,18.5-17.7
			c5.2,0,9.4,1.1,13.2,3.4l1.2,8h-0.5c-1.6-6.6-6.1-9.7-14-9.7c-8.6,0-14.3,6.1-14.3,16c0,9.9,5.8,16,14.4,16
			c4.7,0,8.9-1.4,12.4-4.9l0.1-7.5c0-1.4-1-2.2-2.6-2.2h-0.8v-0.6h10.3v0.6h-0.8c-1.6,0-2.6,0.8-2.6,2.2L-5692.5-250.1z"/>
	</g>
	<g>
		<path class="st1" d="M-5617.8-243.6h-22.9l0-0.6h0.8c1.8,0,3.2-1.3,3.3-3v-26.7c0-1.7-1.4-3-3.3-3h-0.8l0-0.6h16.5
			c2.3,0,5.3-0.5,6.3-0.9v6.4l-0.6,0v-0.9c0-1.6-1.1-2.9-2.8-2.9h-11.7v14.3h9.6c1.6,0,2.3-1.1,2.3-2.4v-0.7l0.6,0v7.9l-0.6,0v-0.7
			c0-1.3-0.7-2.3-2.2-2.4h-9.8v14.3h8.8c5.4-0.1,7.3-2.7,8.9-6.4h0.6L-5617.8-243.6z"/>
	</g>
	<g>
		<path class="st1" d="M-5467.3-283.1v0.6h-0.9c-1.6,0-2.9,1.1-3,2.7v22.3c0,8.8-6.1,14.7-15.2,14.7c-9.4,0-15.6-5.9-15.6-14.6
			v-22.3c0-1.6-1.4-2.8-3-2.8h-0.9v-0.6h11.4v0.6h-0.9c-1.6,0-2.9,1.1-3,2.7v21.5c0,8.2,4.8,13.7,12,13.7c7.5,0,12.5-5.2,12.6-13
			v-22.2c-0.1-1.6-1.4-2.7-3-2.7h-0.9v-0.6L-5467.3-283.1z"/>
	</g>
	<g>
		<path class="st1" d="M-5393.6-282.5v1v3.7l-0.6,0v-0.8c0-1.5-1.2-2.7-2.7-2.8h-11.9v17.4h9.5c1.5,0,2.7-1.3,2.7-2.8v-0.8l0.6,0
			v8.9l-0.6,0v-0.8c0-1.5-1.2-2.7-2.7-2.8h-9.6v14.5c0,2,1.6,3.5,3.6,3.5h0.7l0,0.6h-12.3l0-0.6h0.7c2,0,3.6-1.6,3.6-3.5v-31.6
			c0-1.8-1.7-3.2-3.6-3.2h-0.7l0-0.6h16.5c2.4,0,5.7-0.6,6.7-1L-5393.6-282.5z"/>
	</g>
</g>
<g>
	<g>
		<g>
			<path class="st1" d="M-5592.4-500.2h-173.9c0.3-46.3,39.2-83.8,87-83.8C-5631.6-584-5592.7-546.5-5592.4-500.2z"/>
		</g>
	</g>
	<g>
		<g>
			<g>
				<path class="st1" d="M-5592.4-748.4v1c0,15.4-4.6,30.1-13.4,42.5c-10.7,17.1-24.6,24.7-40.4,32.2c-7.8-10.6-20.2-17-33.1-17
					c-22.9,0-41.5,19.1-41.5,42.6c0,6.1,1.2,12,3.7,17.5c-0.5,0.4-0.9,0.7-1.4,1.1c-14.7,12-26.6,24.3-36.4,37.8l-11.5,21.8
					c-1.8-12.4-1.8-24.6,0.2-36c4.2-24.4,15.9-41,28.2-58.6c12.8-18.2,26-36.9,32.8-66.4c1.3-5.5,0.7-10.3,0.3-14.2
					c-0.2-1.7-0.4-3.2-0.3-4.4H-5592.4z"/>
			</g>
		</g>
	</g>
	<g>
		<g>
			<g>
				<path class="st1" d="M-5639.8-647c0,22.4-17.8,40.6-39.6,40.6c-6.8,0-13.4-1.8-19.3-5.1c13.8-10.8,27.6-19.4,36.9-24.8
					c7.1-4.2,14.5-7.7,21.6-11l0.4-0.2C-5639.8-647.3-5639.8-647.2-5639.8-647z"/>
			</g>
		</g>
	</g>
</g>
<g>
	<g>
		<g>
			<g>
				<path class="st2" d="M-6023.5-255.2l0-0.3c0,0,0,0,0,0c0,0,0,0,0,0c0,0,0-0.1,0-0.1"/>
			</g>
		</g>
		<g>
			<g>
				<path class="st1" d="M-6023.5-255.6C-6023.5-255.5-6023.5-255.5-6023.5-255.6l0,0.1c0,0.1-0.1,0.2-0.1,0.3l0,0.1
					c0,0.1-0.1,0.2-0.1,0.3l-0.1,0.2c-0.2,0.3-0.3,0.6-0.5,0.8c-0.3,0.5-0.7,0.9-1.2,1.4c-0.8,0.7-1.8,1.3-3,1.7
					c-1,0.4-2,0.5-3.2,0.6l-0.6,0c-0.2,0-0.4,0-0.5,0c0.1,0,0.3-0.1,0.4-0.1c0.2-0.1,0.4-0.1,0.6-0.2c1-0.4,2-0.7,2.8-1.3
					c0.9-0.6,1.7-1.3,2.2-2c0.2-0.4,0.5-0.8,0.6-1.2c0.1-0.2,0.1-0.4,0.2-0.6c0-0.1,0-0.2,0-0.3l0-0.1l0-0.1c0-0.6-0.1-3.2-2.9-5.9
					c-4.2-3.9-16.5-9.7-52.3-4.3l-2,0.3l-0.8,0.1c-37.3,6-51.4,0.8-56.7-4.6c-3.2-3.2-3.2-6.5-3.1-7.6l0.2-1
					c0.1-0.4,0.3-0.8,0.4-1.2c0.3-0.6,0.6-1.2,1-1.9c0.8-1.2,1.7-2.3,2.8-3.1c1.2-0.9,2.4-1.6,3.6-1.9c0.4-0.2,0.9-0.3,1.3-0.3
					c-0.4,0.2-0.8,0.3-1.2,0.6c-1.1,0.5-2.1,1.3-3,2.4c-0.8,0.9-1.4,2-1.9,3.2c-0.2,0.6-0.4,1.2-0.5,1.8c-0.1,0.6-0.2,1.2-0.2,1.7
					c-0.1,0.5-0.2,3.1,2.5,5.8c4,3.9,16.1,9.6,52.6,4l4-0.6c35.6-5.4,49.6-0.3,55.1,5C-6023.4-259.9-6023.5-256.3-6023.5-255.6z"/>
			</g>
		</g>
	</g>
	<g>
		<g>
			<g>
				<path class="st1" d="M-5216.5-277.8c0,0.1,0,0.3,0,0.5c0,1.4-0.4,4.3-3.2,7c-5.3,5.4-19.4,10.5-56.7,4.6l-1.5-0.2l0,0l-0.2,0
					c-36.6-5.6-49.1,0.2-53.3,4.2c-2.5,2.3-2.9,4.7-2.9,5.6l0,0.2v0.1l0,0.1c0,0.1,0,0.2,0,0.3l0,0.1c0,0.1,0.1,0.3,0.1,0.5
					c0.1,0.4,0.4,0.8,0.6,1.2c0.5,0.7,1.2,1.4,2.2,2c0.8,0.5,1.7,0.9,2.9,1.3c0.2,0,0.4,0.1,0.6,0.2c0.1,0.1,0.3,0.1,0.5,0.1
					c-0.2,0-0.4,0-0.5,0c-0.2,0-0.4,0-0.6,0c-1-0.1-2.1-0.2-3.2-0.6c-1.2-0.4-2.2-1-3-1.7c-0.5-0.4-0.9-0.9-1.2-1.4
					c-0.2-0.3-0.3-0.6-0.5-0.8l-0.1-0.2c0-0.1-0.1-0.2-0.1-0.3l0-0.1c0-0.1-0.1-0.2-0.1-0.3l0-0.1l0,0c0-0.7-0.1-4.4,3.5-7.9
					c5.6-5.4,19.9-10.6,56.8-4.8l0.4,0.1l0.2,0c38.1,6.1,50.5,0.2,54.5-3.8c2.8-2.9,2.4-5.7,2.4-5.7c0-0.5-0.1-1.1-0.2-1.7
					c-0.1-0.6-0.3-1.1-0.5-1.8c-0.4-1.2-1.1-2.3-1.9-3.2c-0.9-1.1-1.9-1.9-2.9-2.4c-0.4-0.3-0.8-0.4-1.2-0.6
					c0.4,0.1,0.9,0.2,1.3,0.3c1.2,0.4,2.4,1,3.6,1.9c1,0.8,2,1.9,2.8,3.1c0.4,0.6,0.7,1.2,1,1.9c0.2,0.4,0.3,0.8,0.4,1.2
					L-5216.5-277.8z"/>
			</g>
			<g>
				<polygon class="st0" points="-5334.3,-256.1 -5334.3,-256.1 -5334.3,-255.9 				"/>
			</g>
		</g>
	</g>
</g>
<g>
	<g>
		<g>
			<path class="st3" d="M-4733.2-321.4c0-27-13.9-43.6-35.5-43.6c-21.5,0-35.5,16.7-35.5,43.6c0,26.9,14,43.5,35.5,43.5
				C-4747.1-277.8-4733.2-294.5-4733.2-321.4z M-4705.9-321.4c0,30.7-25.1,49.8-62.7,49.8c-37.5,0-62.6-19.1-62.6-49.8
				c0-30.8,25.1-49.9,62.6-49.9C-4731.1-371.3-4705.9-352.2-4705.9-321.4z"/>
		</g>
		<g>
			<path class="st3" d="M-4437.3-369.2c38,0,60.8,17.9,60.8,47.9c0,30-22.8,47.8-60.8,47.8h-59.8v-1.6h2.2c5.4,0,9.8-3.9,9.9-8.6
				v-75.5c-0.3-4.8-4.6-8.3-10.1-8.3h-2.1v-1.6L-4437.3-369.2z M-4459.3-280h20c22.1,0,35.9-15.4,35.9-41.4
				c0-26.1-13.6-41.6-35.9-41.6h-20L-4459.3-280z"/>
		</g>
		<g>
			<path class="st3" d="M-4322.2-273.6v-1.6h2.1c5.5,0,10.2-3.7,10.2-8.5v-75.5c0-4.8-4.7-8.5-10.2-8.5h-2.1v-1.6h50.2v1.6h-2
				c-5.6,0-10.1,3.6-10.3,8.4v75.7c0.2,4.8,4.7,8.4,10.3,8.4h2.1v1.6L-4322.2-273.6z"/>
		</g>
		<g>
			<path class="st3" d="M-4111.1-313.6l2.1,24c-6.9,10.1-21.4,18-44.5,18c-39.4-0.2-63.9-18.3-63.9-49.9c0-31.2,23.9-49.8,63.9-49.8
				c16.2,0,30.6,3.2,39.9,7.2v25.3h-1.4c-6-19.6-19.2-26.3-36.7-26.3c-25.7,0-38.7,17.2-38.7,43.2c0,26.4,13.6,43.4,36.9,43.9
				c25.3,0.1,36.6-9.7,41-35.7L-4111.1-313.6z"/>
		</g>
	</g>
	<g>
		<path class="st3" d="M-4612.4-275.2c-4.7,0-9.6-3.1-9.6-8.5l0.1-85.6l-37.3,0v1.6h2.2c5.1,0,9.2,3.5,9.3,8.3v75.9
			c-0.1,4.7-4.3,8.3-9.4,8.3h-2.1v1.6h48.8v-1.6H-4612.4z"/>
	</g>
	<g>
		<path class="st3" d="M-4585.3-371.3c-14.4,0-26.8,2.4-36.7,7v37c1.7-22.9,14.6-37.8,38.5-37.8c17.5,0,30.7,6.7,36.7,26.3h1.4V-364
			C-4554.8-368.1-4569.1-371.3-4585.3-371.3z"/>
	</g>
	<g>
		<g>
			<path class="st3" d="M-4975.6-275.2c-2.4,0-4.6-0.7-6.4-1.9c-0.8-0.5-1.5-1.1-2.1-1.8l-27.6-23.7v17.7c-0.1,5.4-5,9.7-10.9,9.7
				h-3.3l0,1.6h53.7l0-1.6H-4975.6z"/>
		</g>
	</g>
	<g>
		<path class="st3" d="M-4883.2-385.2l0,1.6h-3.3c-5.9,0-10.7,4.2-10.9,9.5v82.4c0,12,2,20.3,2,20.3h-1.6l-43.5-37.3l-25.2-21.6
			l-46-39.5c-0.2-10.7-2-17.8-2-17.8h1.8l38,32.6l33.5,28.8l17.8,15.3v-63c-0.1-5.3-5-9.7-10.9-9.7h-3.3l0-1.6H-4883.2z"/>
	</g>
</g>
<g>
	<g>
		<path class="st3" d="M-4841.7-182h-12.3l0-0.6h0.7c2,0,3.6-1.6,3.6-3.5v-31.3c0-2-1.6-3.5-3.6-3.5h-0.7l0-0.6h12.3l0,0.6h-0.7
			c-2,0-3.6,1.6-3.6,3.5v31.3c0,2,1.6,3.5,3.6,3.5h0.7L-4841.7-182z"/>
	</g>
	<g>
		<path class="st3" d="M-4748.9-185.7c0.3,2,2,3.1,3.8,3.1h0.8v0.6h-11.7v-0.5h0.8c1.1,0,2.2-1,2.1-2.2l-3-23.2l-10.6,20.9
			c0,0-1.6,3.4-2,5.8h-0.6l-13.6-26.2l-2.5,22.7c-0.1,1.2,0.9,2.2,2.1,2.2h0.8v0.5h-10.5v-0.6h0.8c1.9,0,3.6-1.2,3.9-3.2l4.4-30.8
			h0.6l14.9,28.6l14.4-28.6h0.5L-4748.9-185.7z"/>
	</g>
	<g>
		<path class="st3" d="M-4665.9-185.9c1.1,2.3,2.8,3.3,4.4,3.3h0.4v0.6h-11.6v-0.6h0.4c1.3,0,2.7-1.2,2-3.4l-3.1-7.5h-14.3l-3.1,7.3
			c-0.9,2.3,0.6,3.5,1.9,3.5h0.4v0.6h-10.7v-0.6h0.4c1.5,0,3.3-1,4.4-3.3l11.7-25c0,0,2.1-4.3,2.2-5.8h0.5L-4665.9-185.9z
			 M-4674-195.2l-6.3-15.4l-6.5,15.4H-4674z"/>
	</g>
	<g>
		<path class="st3" d="M-4579.8-188.5c-2.6,3.3-8.1,7.3-16.1,7.3c-11.1-0.1-18.5-6.8-18.5-17.7c0-11,7.4-17.7,18.5-17.7
			c5.2,0,9.4,1.1,13.2,3.4l1.2,8h-0.5c-1.6-6.6-6.1-9.7-14-9.7c-8.6,0-14.3,6.1-14.3,16c0,9.9,5.8,16,14.4,16
			c4.7,0,8.9-1.4,12.4-4.9l0.1-7.5c0-1.4-1-2.2-2.6-2.2h-0.8v-0.6h10.3v0.6h-0.8c-1.6,0-2.6,0.8-2.6,2.2L-4579.8-188.5z"/>
	</g>
	<g>
		<path class="st3" d="M-4505.1-182h-22.9l0-0.6h0.8c1.8,0,3.2-1.3,3.3-3v-26.7c0-1.7-1.4-3-3.3-3h-0.8l0-0.6h16.5
			c2.3,0,5.3-0.5,6.3-0.9v6.4l-0.6,0v-0.9c0-1.6-1.1-2.9-2.8-2.9h-11.7v14.3h9.6c1.6,0,2.3-1.1,2.3-2.4v-0.7l0.6,0v7.9l-0.6,0v-0.7
			c0-1.3-0.7-2.3-2.2-2.4h-9.8v14.3h8.8c5.4-0.1,7.3-2.7,8.9-6.4h0.6L-4505.1-182z"/>
	</g>
	<g>
		<path class="st3" d="M-4354.6-221.5v0.6h-0.9c-1.6,0-2.9,1.1-3,2.7v22.3c0,8.8-6.1,14.7-15.2,14.7c-9.4,0-15.6-5.9-15.6-14.6
			v-22.3c0-1.6-1.4-2.8-3-2.8h-0.9v-0.6h11.4v0.6h-0.9c-1.6,0-2.9,1.1-3,2.7v21.5c0,8.2,4.8,13.7,12,13.7c7.5,0,12.5-5.2,12.6-13
			v-22.2c-0.1-1.6-1.4-2.7-3-2.7h-0.9v-0.6L-4354.6-221.5z"/>
	</g>
	<g>
		<path class="st3" d="M-4280.9-220.9v1v3.7l-0.6,0v-0.8c0-1.5-1.2-2.7-2.7-2.8h-11.9v17.4h9.5c1.5,0,2.7-1.3,2.7-2.8v-0.8l0.6,0
			v8.9l-0.6,0v-0.8c0-1.5-1.2-2.7-2.7-2.8h-9.6v14.5c0,2,1.6,3.5,3.6,3.5h0.7l0,0.6h-12.3l0-0.6h0.7c2,0,3.6-1.6,3.6-3.5v-31.6
			c0-1.8-1.7-3.2-3.6-3.2h-0.7l0-0.6h16.5c2.4,0,5.7-0.6,6.7-1L-4280.9-220.9z"/>
	</g>
</g>
<g>
	<g>
		<g>
			<path class="st3" d="M-4479.7-438.6h-173.9c0.3-46.3,39.2-83.8,87-83.8C-4518.9-522.4-4480-484.9-4479.7-438.6z"/>
		</g>
	</g>
	<g>
		<g>
			<g>
				<path class="st3" d="M-4479.7-686.8v1c0,15.4-4.6,30.1-13.4,42.5c-10.7,17.1-24.6,24.7-40.4,32.2c-7.8-10.6-20.2-17-33.1-17
					c-22.9,0-41.5,19.1-41.5,42.6c0,6.1,1.2,12,3.7,17.5c-0.5,0.4-0.9,0.7-1.4,1.1c-14.7,12-26.6,24.3-36.4,37.8l-11.5,21.8
					c-1.8-12.4-1.8-24.6,0.2-36c4.2-24.4,15.9-41,28.2-58.6c12.8-18.2,26-36.9,32.8-66.4c1.3-5.5,0.7-10.3,0.3-14.2
					c-0.2-1.7-0.4-3.2-0.3-4.4H-4479.7z"/>
			</g>
		</g>
	</g>
	<g>
		<g>
			<g>
				<path class="st3" d="M-4527.1-585.4c0,22.4-17.8,40.6-39.6,40.6c-6.8,0-13.4-1.8-19.3-5.1c13.8-10.8,27.6-19.4,36.9-24.8
					c7.1-4.2,14.5-7.7,21.6-11l0.4-0.2C-4527.1-585.7-4527.1-585.6-4527.1-585.4z"/>
			</g>
		</g>
	</g>
</g>
<g>
	<g>
		<g>
			<g>
				<path class="st3" d="M-4910.8-193.6l0-0.3c0,0,0,0,0,0c0,0,0,0,0,0c0,0,0-0.1,0-0.1"/>
			</g>
		</g>
		<g>
			<g>
				<path class="st3" d="M-4910.8-194C-4910.8-193.9-4910.8-193.9-4910.8-194l0,0.1c0,0.1-0.1,0.2-0.1,0.3l0,0.1
					c0,0.1-0.1,0.2-0.1,0.3l-0.1,0.2c-0.1,0.3-0.3,0.6-0.5,0.8c-0.3,0.5-0.7,0.9-1.2,1.4c-0.8,0.7-1.8,1.3-3,1.7
					c-1,0.4-2,0.5-3.2,0.6l-0.6,0c-0.2,0-0.4,0-0.6,0c0.1,0,0.3-0.1,0.4-0.1c0.2-0.1,0.4-0.1,0.6-0.2c1-0.4,2-0.7,2.9-1.3
					c0.9-0.6,1.7-1.3,2.2-2c0.2-0.4,0.5-0.8,0.6-1.2c0.1-0.2,0.1-0.4,0.2-0.6c0-0.1,0-0.2,0-0.3l0-0.1l0-0.1c0-0.6-0.1-3.2-2.9-5.9
					c-4.2-3.9-16.5-9.7-52.3-4.3l-2,0.3l-0.8,0.1c-37.3,6-51.4,0.8-56.7-4.6c-3.2-3.2-3.2-6.5-3.1-7.6l0.2-1
					c0.1-0.4,0.3-0.8,0.4-1.2c0.3-0.6,0.6-1.2,1-1.9c0.8-1.2,1.7-2.3,2.8-3.1c1.2-0.9,2.4-1.6,3.6-1.9c0.4-0.2,0.8-0.3,1.3-0.3
					c-0.4,0.2-0.8,0.3-1.2,0.6c-1.1,0.5-2.1,1.3-3,2.4c-0.8,0.9-1.4,2-1.9,3.2c-0.2,0.6-0.4,1.2-0.5,1.8c-0.1,0.6-0.2,1.2-0.2,1.7
					c-0.1,0.5-0.2,3.1,2.5,5.8c4,3.9,16.1,9.6,52.6,4l4-0.6c35.6-5.4,49.6-0.3,55.1,5C-4910.7-198.3-4910.8-194.7-4910.8-194z"/>
			</g>
		</g>
	</g>
	<g>
		<g>
			<g>
				<path class="st3" d="M-4103.8-216.2c0,0.1,0,0.3,0,0.5c0,1.4-0.4,4.3-3.2,7c-5.3,5.4-19.4,10.5-56.7,4.6l-1.5-0.2l0,0l-0.2,0
					c-36.6-5.6-49.1,0.2-53.3,4.2c-2.5,2.3-2.9,4.7-2.9,5.6l0,0.3v0.1l0,0.1c0,0.1,0,0.2,0,0.3l0,0.1c0,0.1,0.1,0.3,0.2,0.5
					c0.1,0.4,0.4,0.8,0.6,1.2c0.5,0.7,1.2,1.4,2.2,2c0.8,0.5,1.7,0.9,2.9,1.3c0.2,0,0.4,0.1,0.6,0.2c0.1,0.1,0.3,0.1,0.5,0.1
					c-0.2,0-0.4,0-0.6,0c-0.2,0-0.4,0-0.5,0c-1-0.1-2.1-0.2-3.2-0.6c-1.2-0.4-2.2-1-3-1.7c-0.5-0.4-0.9-0.9-1.2-1.4
					c-0.2-0.3-0.3-0.6-0.5-0.8l-0.1-0.2c0-0.1-0.1-0.2-0.1-0.3l0-0.1c0-0.1-0.1-0.2-0.1-0.3l0-0.1l0,0c-0.1-0.7-0.1-4.4,3.5-7.9
					c5.6-5.4,19.9-10.6,56.8-4.8l0.4,0.1l0.2,0c38.1,6.1,50.5,0.2,54.5-3.8c2.8-2.9,2.4-5.7,2.4-5.7c0-0.5-0.1-1.1-0.2-1.7
					c-0.1-0.6-0.3-1.1-0.5-1.8c-0.5-1.2-1.1-2.3-1.9-3.2c-0.9-1.1-1.9-1.9-2.9-2.4c-0.4-0.3-0.8-0.4-1.2-0.6
					c0.4,0.1,0.9,0.2,1.3,0.3c1.2,0.4,2.4,1,3.5,1.9c1,0.8,2,1.9,2.8,3.1c0.4,0.6,0.7,1.2,1,1.9c0.2,0.4,0.3,0.8,0.4,1.2
					L-4103.8-216.2z"/>
			</g>
			<g>
				<polygon class="st3" points="-4221.6,-194.5 -4221.6,-194.5 -4221.6,-194.3 				"/>
			</g>
		</g>
	</g>
</g>
<g>
	<g>
		<g>
			<path class="st1" d="M-3500.3,431.1c0-27-13.9-43.6-35.5-43.6c-21.5,0-35.5,16.7-35.5,43.6c0,26.9,14,43.5,35.5,43.5
				C-3514.2,474.7-3500.3,458-3500.3,431.1z M-3473,431.1c0,30.7-25.1,49.8-62.7,49.8c-37.5,0-62.6-19.1-62.6-49.8
				c0-30.8,25.1-49.9,62.6-49.9C-3498.2,381.2-3473,400.3-3473,431.1z"/>
		</g>
		<g>
			<path class="st1" d="M-3204.3,383.2c38,0,60.8,17.9,60.8,47.9c0,30-22.8,47.8-60.8,47.8h-59.8v-1.6h2.2c5.4,0,9.8-3.9,9.9-8.6
				v-75.5c-0.3-4.8-4.6-8.3-10.1-8.3h-2.1v-1.6L-3204.3,383.2z M-3226.4,472.5h20c22.1,0,35.9-15.4,35.9-41.4
				c0-26.1-13.6-41.6-35.9-41.6h-20L-3226.4,472.5z"/>
		</g>
		<g>
			<path class="st1" d="M-3089.3,478.9v-1.6h2.1c5.5,0,10.2-3.7,10.2-8.5v-75.5c0-4.8-4.7-8.5-10.2-8.5h-2.1v-1.6h50.2v1.6h-2
				c-5.6,0-10.1,3.6-10.3,8.4v75.7c0.2,4.8,4.7,8.4,10.3,8.4h2.1v1.6L-3089.3,478.9z"/>
		</g>
		<g>
			<path class="st1" d="M-2878.1,438.9l2.1,24c-6.9,10.1-21.4,18-44.5,18c-39.4-0.2-63.9-18.3-63.9-49.9c0-31.2,23.9-49.8,63.9-49.8
				c16.2,0,30.6,3.2,39.9,7.2v25.3h-1.4c-6-19.6-19.2-26.3-36.7-26.3c-25.7,0-38.7,17.2-38.7,43.2c0,26.4,13.6,43.4,36.9,43.9
				c25.3,0.1,36.6-9.7,41-35.7L-2878.1,438.9z"/>
		</g>
	</g>
	<g>
		<path class="st1" d="M-3379.5,477.3c-4.7,0-9.6-3.1-9.6-8.5l0.1-85.6l-37.3,0v1.6h2.2c5.1,0,9.2,3.5,9.3,8.3V469
			c-0.1,4.7-4.3,8.3-9.4,8.3h-2.1v1.6h48.8v-1.6H-3379.5z"/>
	</g>
	<g>
		<path class="st1" d="M-3352.4,381.2c-14.4,0-26.8,2.4-36.7,7v37c1.7-22.9,14.6-37.8,38.5-37.8c17.5,0,30.7,6.7,36.7,26.3h1.4
			v-25.3C-3321.8,384.4-3336.2,381.2-3352.4,381.2z"/>
	</g>
	<g>
		<g>
			<path class="st1" d="M-3742.6,477.3c-2.4,0-4.6-0.7-6.4-1.9c-0.8-0.5-1.5-1.1-2.1-1.8l-27.6-23.7v17.7c-0.1,5.4-5,9.7-10.9,9.7
				h-3.3l0,1.6h53.7l0-1.6H-3742.6z"/>
		</g>
	</g>
	<g>
		<path class="st1" d="M-3650.3,367.3l0,1.6h-3.3c-5.9,0-10.7,4.2-10.9,9.5v82.4c0,12,2,20.3,2,20.3h-1.6l-43.5-37.3l-25.2-21.6
			l-46-39.5c-0.2-10.7-2-17.8-2-17.8h1.8l38,32.6l33.5,28.8l17.8,15.3v-63c-0.1-5.3-5-9.7-10.9-9.7h-3.3l0-1.6H-3650.3z"/>
	</g>
</g>
<g>
	<g>
		<path class="st1" d="M-3608.8,570.5h-12.3l0-0.6h0.7c2,0,3.6-1.6,3.6-3.5v-31.3c0-2-1.6-3.5-3.6-3.5h-0.7l0-0.6h12.3l0,0.6h-0.7
			c-2,0-3.6,1.6-3.6,3.5v31.3c0,2,1.6,3.5,3.6,3.5h0.7L-3608.8,570.5z"/>
	</g>
	<g>
		<path class="st1" d="M-3516,566.8c0.3,2,2,3.1,3.8,3.1h0.8v0.6h-11.7v-0.5h0.8c1.1,0,2.2-1,2.1-2.2l-3-23.2l-10.6,20.9
			c0,0-1.6,3.4-2,5.8h-0.6l-13.6-26.2l-2.5,22.7c-0.1,1.2,0.9,2.2,2.1,2.2h0.8v0.5h-10.5v-0.6h0.8c1.9,0,3.6-1.2,3.9-3.2l4.4-30.8
			h0.6l14.9,28.6l14.4-28.6h0.5L-3516,566.8z"/>
	</g>
	<g>
		<path class="st1" d="M-3432.9,566.6c1.1,2.3,2.8,3.3,4.4,3.3h0.4v0.6h-11.6v-0.6h0.4c1.3,0,2.7-1.2,2-3.4l-3.1-7.5h-14.3l-3.1,7.3
			c-0.9,2.3,0.6,3.5,1.9,3.5h0.4v0.6h-10.7v-0.6h0.4c1.5,0,3.3-1,4.4-3.3l11.7-25c0,0,2.1-4.3,2.2-5.8h0.5L-3432.9,566.6z
			 M-3441.1,557.3l-6.3-15.4l-6.5,15.4H-3441.1z"/>
	</g>
	<g>
		<path class="st1" d="M-3346.9,564c-2.6,3.3-8.1,7.3-16.1,7.3c-11.1-0.1-18.5-6.8-18.5-17.7c0-11,7.4-17.7,18.5-17.7
			c5.2,0,9.4,1.1,13.2,3.4l1.2,8h-0.5c-1.6-6.6-6.1-9.7-14-9.7c-8.6,0-14.3,6.1-14.3,16c0,9.9,5.8,16,14.4,16
			c4.7,0,8.9-1.4,12.4-4.9l0.1-7.5c0-1.4-1-2.2-2.6-2.2h-0.8v-0.6h10.3v0.6h-0.8c-1.6,0-2.6,0.8-2.6,2.2L-3346.9,564z"/>
	</g>
	<g>
		<path class="st1" d="M-3272.2,570.5h-22.9l0-0.6h0.8c1.8,0,3.2-1.3,3.3-3v-26.7c0-1.7-1.4-3-3.3-3h-0.8l0-0.6h16.5
			c2.3,0,5.3-0.5,6.3-0.9v6.4l-0.6,0v-0.9c0-1.6-1.1-2.9-2.8-2.9h-11.7v14.3h9.6c1.6,0,2.3-1.1,2.3-2.4v-0.7l0.6,0v7.9l-0.6,0v-0.7
			c0-1.3-0.7-2.3-2.2-2.4h-9.8v14.3h8.8c5.4-0.1,7.3-2.7,8.9-6.4h0.6L-3272.2,570.5z"/>
	</g>
	<g>
		<path class="st1" d="M-3121.7,531v0.6h-0.9c-1.6,0-2.9,1.1-3,2.7v22.3c0,8.8-6.1,14.7-15.2,14.7c-9.4,0-15.6-5.9-15.6-14.6v-22.3
			c0-1.6-1.4-2.8-3-2.8h-0.9V531h11.4v0.6h-0.9c-1.6,0-2.9,1.1-3,2.7v21.5c0,8.2,4.8,13.7,12,13.7c7.5,0,12.5-5.2,12.6-13v-22.2
			c-0.1-1.6-1.4-2.7-3-2.7h-0.9V531L-3121.7,531z"/>
	</g>
	<g>
		<path class="st1" d="M-3048,531.6v1v3.7l-0.6,0v-0.8c0-1.5-1.2-2.7-2.7-2.8h-11.9v17.4h9.5c1.5,0,2.7-1.3,2.7-2.8v-0.8l0.6,0v8.9
			l-0.6,0v-0.8c0-1.5-1.2-2.7-2.7-2.8h-9.6v14.5c0,2,1.6,3.5,3.6,3.5h0.7l0,0.6h-12.3l0-0.6h0.7c2,0,3.6-1.6,3.6-3.5v-31.6
			c0-1.8-1.7-3.2-3.6-3.2h-0.7l0-0.6h16.5c2.4,0,5.7-0.6,6.7-1L-3048,531.6z"/>
	</g>
</g>
<g>
	<g>
		<g>
			<path class="st1" d="M-3246.9,313.9h-173.6c0.3-46.3,39.1-83.8,86.8-83.8C-3286.1,230.1-3247.2,267.6-3246.9,313.9z"/>
		</g>
	</g>
	<g>
		<g>
			<path class="st3" d="M-3246.4,65.2v1.5c0,15.4-4.7,30.3-13.5,42.8c-10.8,17.2-25,25-40.9,32.6c-7.5-10.4-19.4-17.1-32.9-17.1
				c-22.6,0-40.9,18.9-40.9,42.1c0,6.3,1.3,12.3,3.8,17.7c-0.6,0.4-1.1,0.9-1.7,1.4c-13.5,11-25.9,23.4-36.2,37.6l-12.2,23.1
				c-2.7-17-1.3-29.9,0-37.6c8.6-49.6,47.5-66.8,61-124.9c1.9-8.4-0.4-15.3,0-19H-3246.4z"/>
		</g>
	</g>
	<g>
		<g>
			<g>
				<path class="st1" d="M-3294.2,167.1c0,22.4-17.7,40.6-39.5,40.6c-6.8,0-13.4-1.8-19.2-5.1c13.8-10.8,27.6-19.4,36.8-24.8
					c7.1-4.2,14.4-7.7,21.5-11l0.4-0.2C-3294.2,166.7-3294.2,166.9-3294.2,167.1z"/>
			</g>
		</g>
	</g>
</g>
<g>
	<g>
		<g>
			<g>
				<path class="st2" d="M-3677.9,558.9l0-0.3c0,0,0,0,0,0c0,0,0,0,0,0c0,0,0-0.1,0-0.1"/>
			</g>
		</g>
		<g>
			<g>
				<path class="st1" d="M-3677.9,558.5C-3677.9,558.6-3677.9,558.6-3677.9,558.5l0,0.1c0,0.1-0.1,0.2-0.1,0.3l0,0.1
					c0,0.1-0.1,0.2-0.1,0.3l-0.1,0.2c-0.1,0.3-0.3,0.6-0.5,0.8c-0.3,0.5-0.7,0.9-1.2,1.4c-0.8,0.7-1.8,1.3-3,1.7
					c-1,0.4-2,0.5-3.2,0.6l-0.6,0c-0.2,0-0.4,0-0.6,0c0.1,0,0.3-0.1,0.4-0.1c0.2-0.1,0.4-0.1,0.6-0.2c1-0.4,2-0.7,2.9-1.3
					c0.9-0.6,1.7-1.3,2.2-2c0.2-0.4,0.5-0.8,0.6-1.2c0.1-0.2,0.1-0.4,0.2-0.6c0-0.1,0-0.2,0.1-0.3l0-0.1l0-0.1
					c0-0.6-0.1-3.2-2.9-5.9c-4.2-3.9-16.5-9.7-52.3-4.3l-2,0.3l-0.8,0.1c-37.3,6-51.4,0.8-56.7-4.6c-3.2-3.2-3.2-6.5-3.1-7.6l0.2-1
					c0.1-0.4,0.3-0.8,0.4-1.2c0.3-0.6,0.6-1.2,1-1.9c0.8-1.2,1.7-2.3,2.8-3.1c1.2-0.9,2.4-1.6,3.6-1.9c0.4-0.2,0.9-0.3,1.3-0.3
					c-0.4,0.2-0.8,0.3-1.2,0.6c-1.1,0.5-2.1,1.3-3,2.4c-0.8,0.9-1.4,2-1.9,3.2c-0.2,0.6-0.4,1.2-0.5,1.8c-0.1,0.6-0.2,1.2-0.2,1.7
					c-0.1,0.5-0.2,3.1,2.5,5.8c4,3.9,16.1,9.6,52.6,4l4-0.6c35.6-5.4,49.7-0.3,55.1,5C-3677.8,554.2-3677.8,557.8-3677.9,558.5z"/>
			</g>
		</g>
	</g>
	<g>
		<g>
			<g>
				<path class="st1" d="M-2870.9,536.3c0,0.1,0,0.3,0,0.5c0,1.4-0.4,4.3-3.2,7c-5.3,5.4-19.4,10.5-56.7,4.6l-1.5-0.2l0,0l-0.2,0
					c-36.6-5.6-49.1,0.2-53.3,4.2c-2.5,2.3-2.9,4.7-2.9,5.6l0,0.3v0.1l0,0.1c0,0.1,0,0.2,0.1,0.3l0,0.1c0,0.1,0.1,0.3,0.2,0.5
					c0.1,0.4,0.4,0.8,0.6,1.2c0.5,0.7,1.2,1.4,2.2,2c0.8,0.5,1.7,0.9,2.9,1.3c0.2,0,0.4,0.1,0.6,0.2c0.1,0.1,0.3,0.1,0.5,0.1
					c-0.2,0-0.4,0-0.6,0c-0.2,0-0.4,0-0.6,0c-1-0.1-2.1-0.2-3.2-0.6c-1.2-0.4-2.2-1-3-1.7c-0.5-0.4-0.9-0.9-1.2-1.4
					c-0.2-0.3-0.3-0.6-0.5-0.8l-0.1-0.2c0-0.1-0.1-0.2-0.1-0.3l0-0.1c0-0.1-0.1-0.2-0.1-0.3l0-0.1l0,0c-0.1-0.7-0.1-4.4,3.5-7.9
					c5.6-5.4,19.9-10.6,56.8-4.8l0.4,0.1l0.2,0c38.2,6.1,50.5,0.2,54.5-3.8c2.8-2.9,2.4-5.7,2.4-5.7c0-0.5-0.1-1.1-0.2-1.7
					c-0.1-0.6-0.3-1.1-0.5-1.8c-0.4-1.2-1.1-2.3-1.9-3.2c-0.9-1.1-1.9-1.9-2.9-2.4c-0.4-0.3-0.8-0.4-1.2-0.6
					c0.4,0.1,0.9,0.2,1.3,0.3c1.2,0.4,2.4,1,3.6,1.9c1,0.8,2,1.9,2.8,3.1c0.4,0.6,0.7,1.2,1,1.9c0.2,0.4,0.3,0.8,0.4,1.2
					L-2870.9,536.3z"/>
			</g>
			<g>
				<polygon class="st0" points="-2988.7,558 -2988.7,558 -2988.7,558.2 				"/>
			</g>
		</g>
	</g>
</g>
<g>
	<g>
		<g>
			<path class="st0" d="M-3761.7-427.3c-38.3,0-63.1,19.8-63.1,50.4c0,30.6,24.8,50.3,63.1,50.3c38.4,0,63.2-19.8,63.2-50.3
				C-3698.5-407.5-3723.3-427.3-3761.7-427.3z M-3761.7-333.8c-21.3,0-35-16.9-35-43c0-26.6,13.4-43.1,35-43.1s35,16.5,35,43.1
				C-3726.8-350.3-3740.2-333.8-3761.7-333.8z"/>
		</g>
		<g>
			<path class="st0" d="M-3430.3-425.3h-60.4v2.6h2.6c5.3,0,9.4,3.3,9.6,7.8v75.5c-0.1,4.5-4.3,8.1-9.4,8.1h-2.7v2.6h60.3
				c38.4,0,61.3-18,61.3-48.3C-3369-407.2-3391.9-425.3-3430.3-425.3z M-3432.4-336h-19.5v-82h19.5c22.2,0,35.4,15.4,35.4,41.1
				C-3397-351.3-3410.3-336-3432.4-336z"/>
		</g>
		<g>
			<path class="st0" d="M-3264.5-331.2v2.6h-51.3v-2.6h2.6c5.4,0,9.7-3.5,9.7-8v-75.5c-0.1-4.5-4.3-8-9.7-8h-2.6v-2.6h51.2v2.6h-2.5
				c-5.4,0-9.6,3.4-9.8,7.9v75.7c0.2,4.5,4.4,7.9,9.8,7.9H-3264.5z"/>
		</g>
		<g>
			<path class="st0" d="M-3101.5-344.9l-0.1,0.1c-4.7,6.8-16.7,18.2-44.9,18.2c-40.3-0.2-64.4-19-64.4-50.4
				c0-31.5,24.1-50.3,64.4-50.3c14.7,0,29.7,2.7,40.1,7.3l0.3,0.1v26.2h-2.2l-0.1-0.4c-5.4-17.7-16.9-25.9-36.2-25.9
				c-24.3,0-38.2,15.6-38.2,42.7c0,26.7,13.6,42.9,36.4,43.4c25.2,0.1,36.1-9.5,40.5-35.3l0.1-0.4l2.3,0L-3101.5-344.9z"/>
		</g>
	</g>
	<g>
		<path class="st0" d="M-3538-419.9v26.2h-2.3l-0.1-0.4c-5.4-17.7-16.9-26-36.2-26c-22.3,0-36.2,13.6-38,37.3h0l0,43.6
			c0,5,4.7,7.9,9.1,7.9h2.4v2.6h-49.8v-2.6h2.6c4.9,0,8.8-3.4,8.9-7.8v-75.9c-0.1-4.4-3.9-7.8-8.8-7.8h-2.7v-2.6l38.3,0v4.7
			c10-4.5,22.1-6.7,36.2-6.7c14.7,0,29.7,2.7,40.1,7.3L-3538-419.9z"/>
	</g>
	<g>
		<g>
			<path class="st0" d="M-3964.8-328.6h-54.7l0-2.6h3.8c5.6,0,10.3-4.1,10.4-9.2v-18.8l28.4,24.4c0.6,0.7,1.3,1.3,2.1,1.8
				c1.8,1.2,3.9,1.8,6.1,1.8h3.8L-3964.8-328.6z"/>
		</g>
	</g>
	<g>
		<path class="st0" d="M-3875.8-441.2l0,2.6h-3.8c-5.7,0-10.2,4-10.4,9v82.3c0,11.8,2,20.1,2,20.2l0.1,0.6h-2.4l-0.1-0.1
			l-114.9-98.5v-0.2c-0.2-10.5-2-17.6-2-17.7l-0.2-0.6h2.6l0.1,0.1l88.5,76v-61.9c-0.1-5-4.8-9.2-10.4-9.2h-3.8l0-2.6H-3875.8z"/>
	</g>
</g>
<g>
	<g>
		<path class="st0" d="M-3834.3-238.6l0,1.6h-13.3l0-1.6h1.2c1.7,0,3.1-1.4,3.1-3v-31.3c0-1.7-1.4-3-3.1-3h-1.2l0-1.6h13.3l0,1.6
			h-1.2c-1.7,0-3.1,1.3-3.1,3v31.3c0,1.7,1.4,3,3.1,3H-3834.3z"/>
	</g>
	<g>
		<path class="st0" d="M-3736.8-238.6v1.6h-12.7v-1.5h1.3c0.5,0,0.9-0.2,1.2-0.6c0.2-0.2,0.4-0.6,0.3-1l-2.8-21.6l-9.9,19.5
			c0,0-1.6,3.4-2,5.6l-0.1,0.4h-1.3l-12.9-25l-2.3,21c0,0.4,0.1,0.8,0.4,1.1c0.3,0.4,0.8,0.6,1.2,0.6h1.3v1.5h-11.4v-1.6h1.3
			c1.5,0,3.1-0.8,3.4-2.8l4.4-31.3h1.3l14.6,28l14.1-28h1.3l4.6,31.4c0.3,1.8,1.9,2.7,3.4,2.7H-3736.8z"/>
	</g>
	<g>
		<path class="st0" d="M-3654.6-238.6c-1.5,0-2.9-1.1-3.9-3l-14.1-31h-1.3l0,0.5c0,0.5-0.4,1.9-2,5.4c-0.1,0.1-0.1,0.2-0.1,0.3
			l-11.7,25c-0.9,1.9-2.4,3-4,3h-0.9v1.6h11.7v-1.6h-0.9c-0.5,0-1.1-0.3-1.4-0.7c-0.4-0.6-0.4-1.3-0.1-2.1l3-7h13.6l2.9,7.2
			c0.3,0.8,0.2,1.5-0.1,2c-0.3,0.4-0.8,0.7-1.4,0.7h-0.9v1.6h12.6v-1.6H-3654.6z M-3679.2-251.2l5.8-13.6l5.6,13.6H-3679.2z"/>
	</g>
	<g>
		<path class="st0" d="M-3569-254.1v1.6h-1.3c-0.7,0-1.3,0.2-1.6,0.5c-0.3,0.3-0.4,0.7-0.4,1.2v7l-0.1,0.1
			c-1.4,1.7-6.6,7.5-16.4,7.5c-11.5-0.1-19-7.2-19-18.2c0-11,7.4-18.2,19-18.2c5.3,0,9.5,1.1,13.4,3.5l0.2,0.1l1.4,8.8h-1.5
			l-0.1-0.4c-1.6-6.4-5.9-9.3-13.5-9.3c-8.4,0-13.8,6.1-13.8,15.5c0,9.4,5.5,15.5,13.9,15.5c4.8,0,8.6-1.5,11.9-4.6l0.1-7.3
			c0-0.5-0.1-0.9-0.4-1.2c-0.4-0.4-0.9-0.5-1.7-0.5c0,0,0,0,0,0h-1.3v-1.6H-3569z"/>
	</g>
	<g>
		<path class="st0" d="M-3494.3-246.1l-3.5,9.1h-23.8l0-1.6h1.3c1.5,0,2.7-1.1,2.8-2.5v-26.7c0-1.4-1.2-2.5-2.8-2.5h-1.3l0-1.6h17
			c2.3,0,5.3-0.5,6.1-0.9l0.7-0.3v7.6l-1.6,0v-1.4c0-1.4-1-2.4-2.3-2.4h-11.2v13.3h9.1c1.6,0,1.8-1.3,1.8-1.9v-1.2l1.6,0v8.9l-1.6,0
			v-1.2c0-0.7-0.2-1.8-1.7-1.9h-9.2v13.3h8.3c4.9-0.1,6.8-2.3,8.5-6.1l0.1-0.3H-3494.3z"/>
	</g>
	<g>
		<path class="st0" d="M-3347.2-277.5v1.6h-1.4c-1.3,0-2.4,0.9-2.5,2.2v22.3c0,9.1-6.3,15.2-15.7,15.2c-9.6,0-16.1-6.1-16.1-15.1
			v-22.3c0-1.3-1.1-2.3-2.5-2.3h-1.4v-1.6h12.4v1.6h-1.4c-1.4,0-2.4,1-2.5,2.2v21.5c0,7.9,4.6,13.2,11.5,13.2c7.2,0,12-5,12.1-12.5
			v-22.2c-0.1-1.3-1.1-2.2-2.5-2.2h-1.4v-1.6H-3347.2z"/>
	</g>
	<g>
		<path class="st0" d="M-3273.5-278.8v7.6l-1.6,0v-1.3c0-1.2-1-2.3-2.2-2.3h-11.4v16.4h9c1.2,0,2.2-1.1,2.2-2.3v-1.3l1.5,0v9.9
			l-1.5,0v-1.3c0-1.2-1-2.2-2.2-2.3h-9.1v14c0,1.7,1.4,3,3.1,3h1.2l0,1.6h-13.3l0-1.6h1.2c1.7,0,3.1-1.4,3.1-3.1v-31.5
			c0-1.5-1.4-2.7-3.1-2.7h-1.2l0-1.6h17c2.5,0,5.6-0.6,6.5-1L-3273.5-278.8z"/>
	</g>
</g>
<g>
	<path class="st0" d="M-3472.4-493.6h-174.6c0-46.9,39.1-84.8,87.3-84.8S-3472.4-540.5-3472.4-493.6z"/>
	<g>
		<path class="st3" d="M-3472.4-742.8v1.5c0,15.4-4.7,30.3-13.5,42.8c-10.8,17.2-25,25-40.9,32.6c-7.5-10.4-19.4-17.1-32.9-17.1
			c-22.6,0-40.9,18.9-40.9,42.1c0,6.3,1.3,12.3,3.8,17.7c-0.6,0.4-1.1,0.9-1.7,1.4c-13.5,11-25.9,23.4-36.2,37.6l-12.2,23.1
			c-2.7-17-1.3-29.9,0-37.6c8.6-49.6,47.5-66.8,61-124.9c1.9-8.4-0.4-15.3,0-19H-3472.4z"/>
	</g>
	<g>
		<path class="st0" d="M-3519.7-640.9c0,22.7-17.9,41.1-40,41.1c-7.1,0-14-1.9-20.1-5.6c14-11.1,28-19.7,37.4-25.3
			c7.2-4.3,14.5-7.7,21.7-11.1l1-0.5C-3519.8-641.8-3519.7-641.4-3519.7-640.9z"/>
	</g>
</g>
<g>
	<g>
		<g>
			<path class="st0" d="M-3964.3-262.4C-3964.3-262.4-3964.3-262.4-3964.3-262.4L-3964.3-262.4
				C-3964.3-262.4-3964.3-262.4-3964.3-262.4z"/>
		</g>
		<g>
			<path class="st0" d="M-3963-259.5c-0.4,0.1-0.8,0.1-1.1,0.2l-0.2,0c-37.4,6-51.6,0.8-56.9-4.6c-3.4-3.4-3.3-6.9-3.2-7.9
				c0-0.1,0-0.2,0.1-0.3c0.2-0.7,0.4-1.3,0.6-1.9c0.3-0.7,0.6-1.3,1-1.9c0.8-1.2,1.7-2.3,2.8-3.2c1.1-0.9,2.3-1.6,3.6-2
				c0.6-0.3,1.3-0.3,2-0.5c0.7-0.1,1.3-0.2,2-0.2c-0.6,0.2-1.3,0.3-1.9,0.6c-0.6,0.3-1.2,0.5-1.8,0.8c-1.1,0.6-2.1,1.4-2.9,2.4
				c-0.8,0.9-1.4,2-1.8,3.1c-0.2,0.6-0.4,1.1-0.5,1.7c-0.1,0.5-0.2,1.2-0.2,1.6v0c0,0.3-0.3,2.9,2.5,5.6c4,4,16.4,9.7,54.2,3.7
				c0.1,0,0.1,0,0.2,0c0.1,0,0.2,0,0.3,0c0,0,0,0,0,0c37-5.8,51.4-0.6,57,4.8c3.8,3.7,3.7,7.4,3.6,8.1c0,0.1,0,0.1,0,0.1h0
				c-0.1,0.2-0.1,0.3-0.2,0.5c-0.1,0.2-0.1,0.3-0.2,0.5c-0.2,0.3-0.3,0.6-0.5,0.9c-0.4,0.5-0.8,1-1.3,1.4c-0.9,0.8-2,1.4-3.1,1.7
				c-1.1,0.4-2.2,0.5-3.3,0.6c-0.6,0-1.1,0.1-1.6,0.1l-1.6-0.1l1.6-0.3c0.5-0.1,1-0.3,1.5-0.4c1-0.3,2-0.7,2.8-1.3
				c0.8-0.5,1.6-1.2,2.1-1.9c0.3-0.4,0.5-0.8,0.6-1.2c0.1-0.2,0.1-0.4,0.2-0.6c0-0.1,0-0.2,0.1-0.3c0,0,0,0,0-0.1h0
				c0-0.1,0.3-2.9-2.8-5.8c-4.2-4-16.7-9.7-53.1-4.1"/>
		</g>
	</g>
	<g>
		<g>
			<path class="st0" d="M-3217.4-249.3L-3217.4-249.3L-3217.4-249.3C-3217.4-249.3-3217.4-249.3-3217.4-249.3z"/>
			<path class="st0" d="M-3214.4-249.7L-3214.4-249.7c0,0,0-0.1,0-0.1h0C-3214.4-249.7-3214.4-249.7-3214.4-249.7z"/>
		</g>
		<g>
			<path class="st0" d="M-3158.5-259.6c-36.4-5.6-48.9,0.1-53.1,4.1c-2.8,2.6-2.8,5.1-2.8,5.7h0c0,0,0,0.1,0,0.1c0,0,0,0,0,0.1
				c0,0.1,0,0.2,0,0.3c0,0.2,0.1,0.4,0.2,0.6c0.1,0.4,0.4,0.8,0.6,1.2c0.5,0.7,1.3,1.4,2.1,1.9c0.8,0.6,1.8,0.9,2.8,1.3
				c0.5,0.1,1,0.3,1.5,0.4l1.6,0.3l-1.6,0.1c-0.5,0-1.1,0-1.6-0.1c-1.1-0.1-2.2-0.3-3.3-0.6c-1.1-0.4-2.2-0.9-3.1-1.7
				c-0.5-0.4-0.9-0.9-1.3-1.4c-0.2-0.3-0.4-0.6-0.5-0.9c-0.1-0.2-0.1-0.3-0.2-0.5c-0.1-0.2-0.1-0.3-0.2-0.5c0,0,0,0,0,0c0,0,0,0,0,0
				s0,0,0,0c-0.1-0.7-0.2-4.5,3.6-8.1c5.6-5.4,20.1-10.7,57-4.8c0,0,0,0,0,0l0,0c0.1,0,0.2,0,0.3,0c0.1,0,0.1,0,0.2,0
				c38,6.1,50.4,0.2,54.3-3.8c2.6-2.6,2.4-5.2,2.4-5.5v0c0-0.5-0.1-1.1-0.2-1.6c-0.1-0.6-0.3-1.2-0.5-1.7c-0.4-1.1-1-2.2-1.8-3.1
				c-0.8-0.9-1.8-1.8-2.9-2.4c-0.5-0.4-1.2-0.5-1.8-0.8c-0.6-0.2-1.3-0.4-1.9-0.6c0.6,0.1,1.3,0.1,2,0.2c0.6,0.2,1.3,0.2,2,0.5
				c1.3,0.4,2.5,1.1,3.6,2c1.1,0.9,2.1,2,2.8,3.2c0.4,0.6,0.7,1.3,1,1.9c0.3,0.6,0.5,1.2,0.6,1.9c0,0.1,0,0.2,0.1,0.3
				c0.1,1,0.1,4.5-3.2,7.9c-5.3,5.4-19.5,10.6-56.9,4.6l-0.2,0c-0.4-0.1-0.8-0.1-1.2-0.2"/>
		</g>
	</g>
</g>
<g>
	<g>
		<g>
			<g>
				<path class="st3" d="M-1857.4-20.8c0-42.9-22.1-69.4-56.5-69.4c-34.1,0-56.4,26.5-56.4,69.4c0,42.8,22.3,69.3,56.4,69.3
					C-1879.5,48.5-1857.4,22-1857.4-20.8z M-1814-20.8c0,48.9-40,79.3-99.8,79.3c-59.6,0-99.6-30.4-99.6-79.3
					c0-49.1,40-79.4,99.6-79.4C-1854-100.2-1814-69.9-1814-20.8z"/>
			</g>
			<g>
				<path class="st3" d="M-1386.6-97c60.5,0,96.8,28.4,96.8,76.2c0,47.7-36.3,76-96.8,76h-95.1v-2.5h3.5c8.6,0,15.6-6.1,15.8-13.7
					V-81.2c-0.4-7.7-7.3-13.2-16.1-13.2h-3.4V-97L-1386.6-97z M-1421.7,45h31.8c35.2,0,57.1-24.5,57.1-65.8
					c0-41.5-21.7-66.2-57.1-66.2h-31.8L-1421.7,45z"/>
			</g>
			<g>
				<path class="st3" d="M-1203.6,55.2v-2.5h3.3c8.8,0,16.2-5.8,16.2-13.5V-81c-0.1-7.7-7.4-13.5-16.2-13.5h-3.3V-97h79.9v2.5h-3.3
					c-8.9,0-16.1,5.7-16.4,13.3V39.3c0.3,7.6,7.5,13.4,16.4,13.4h3.3v2.5L-1203.6,55.2z"/>
			</g>
			<g>
				<path class="st3" d="M-867.7-8.4l3.3,38.2c-11,16.1-34.1,28.6-70.7,28.6c-62.7-0.3-101.6-29.2-101.6-79.5
					c0-49.7,38-79.2,101.6-79.2c25.8,0,48.6,5,63.5,11.5v40.3h-2.2c-9.6-31.2-30.5-41.8-58.4-41.8c-41,0-61.5,27.4-61.5,68.8
					c0,42.1,21.7,69,58.7,69.8c40.2,0.1,58.2-15.4,65.2-56.8L-867.7-8.4z"/>
			</g>
		</g>
		<g>
			<path class="st3" d="M-1665.3,52.7c-7.5,0-15.3-5-15.3-13.4l0.1-136.2l-59.3,0v2.6h3.6c8.1,0,14.7,5.6,14.8,13.2V39.4
				c-0.2,7.5-6.9,13.2-15,13.2h-3.4v2.5h77.6v-2.5H-1665.3z"/>
		</g>
		<g>
			<path class="st3" d="M-1622.2-100.2c-23,0-42.6,3.9-58.3,11.1v58.9c2.7-36.5,23.2-60.1,61.2-60.1c27.9,0,48.8,10.7,58.4,41.9h2.2
				v-40.3C-1573.5-95.2-1596.4-100.2-1622.2-100.2z"/>
		</g>
		<g>
			<g>
				<path class="st3" d="M-2242.9,52.7c-3.8,0-7.3-1.1-10.2-3c-1.3-0.8-2.4-1.8-3.4-2.9l-43.9-37.7v28.2
					c-0.2,8.5-7.9,15.4-17.4,15.4h-5.2l0,2.5h85.4l0-2.5H-2242.9z"/>
			</g>
		</g>
		<g>
			<path class="st3" d="M-2096-122.3l0,2.5h-5.2c-9.4,0-17.1,6.7-17.4,15.2v131c0,19.1,3.2,32.4,3.2,32.4h-2.6l-69.1-59.3
				l-40.2-34.4l-73.2-62.8c-0.3-17-3.3-28.4-3.3-28.4h2.8l60.5,51.9l53.3,45.8l28.3,24.3v-100.3c-0.2-8.5-7.9-15.4-17.4-15.4h-5.2
				l0-2.5H-2096z"/>
		</g>
	</g>
	<g>
		<g>
			<path class="st3" d="M-2030,200.9h-19.6l0-0.9h1.1c3.1,0,5.7-2.5,5.7-5.6v-49.7c-0.1-3.1-2.6-5.6-5.7-5.6h-1.1l0-0.9h19.6l0,0.9
				h-1.1c-3.1,0-5.7,2.5-5.7,5.6v49.7c0.1,3.1,2.6,5.6,5.7,5.6h1.1L-2030,200.9z"/>
		</g>
		<g>
			<path class="st3" d="M-1882.4,195c0.5,3.1,3.2,4.9,6.1,4.9h1.3v0.9h-18.6V200h1.3c1.8,0,3.5-1.5,3.3-3.5l-4.7-36.9l-16.9,33.3
				c0,0-2.6,5.4-3.2,9.2h-0.9l-21.6-41.7l-4,36.1c-0.2,1.9,1.5,3.5,3.3,3.5h1.3v0.8h-16.6V200h1.3c3,0,5.7-1.9,6.1-5.1l6.9-49.1h0.9
				l23.7,45.5l22.9-45.5h0.9L-1882.4,195z"/>
		</g>
		<g>
			<path class="st3" d="M-1750.3,194.7c1.8,3.7,4.5,5.2,6.9,5.2h0.7v0.9h-18.4V200h0.7c2,0,4.3-1.9,3.2-5.4l-4.9-11.9h-22.7
				l-4.9,11.7c-1.4,3.6,1,5.6,3.1,5.6h0.7v0.9h-17.1V200h0.7c2.4,0,5.2-1.5,7-5.2l18.6-39.7c0,0,3.3-6.9,3.5-9.2h0.8L-1750.3,194.7z
				 M-1763.2,180l-10.1-24.5l-10.4,24.5H-1763.2z"/>
		</g>
		<g>
			<path class="st3" d="M-1613.3,190.6c-4.2,5.3-12.9,11.5-25.5,11.5c-17.7-0.1-29.4-10.8-29.4-28.1c0-17.5,11.7-28.1,29.4-28.1
				c8.3,0,14.9,1.7,20.9,5.4l2,12.7h-0.8c-2.6-10.5-9.7-15.4-22.2-15.4c-13.7,0-22.8,9.7-22.8,25.5c0,15.7,9.2,25.5,22.9,25.5
				c7.5,0,14.1-2.3,19.7-7.8l0.1-11.9c0-2.3-1.6-3.5-4.2-3.5h-1.3v-0.9h16.4v0.9h-1.2c-2.6,0-4.1,1.3-4.1,3.6L-1613.3,190.6z"/>
		</g>
		<g>
			<path class="st3" d="M-1494.5,200.9h-36.4l0-0.9h1.2c2.9,0,5.1-2.1,5.2-4.8v-42.5c0-2.7-2.3-4.7-5.2-4.7h-1.2l0-0.9h26.2
				c3.6,0,8.5-0.8,10-1.4v10.1l-1,0v-1.4c0-2.5-1.8-4.6-4.5-4.6h-18.6v22.8h15.3c2.5-0.1,3.6-1.7,3.6-3.8v-1.1l1,0v12.6l-1,0v-1.1
				c0-2-1.1-3.7-3.4-3.8h-15.5v22.8h14c8.6-0.1,11.7-4.3,14.2-10.1h1L-1494.5,200.9z"/>
		</g>
		<g>
			<path class="st3" d="M-1255.2,138.1v0.9h-1.5c-2.5,0-4.6,1.8-4.7,4.2v35.4c0,14.1-9.7,23.4-24.2,23.4c-14.9,0-24.9-9.3-24.9-23.3
				v-35.4c0-2.6-2.1-4.4-4.7-4.4h-1.5v-0.9h18.2v0.9h-1.5c-2.5,0-4.6,1.8-4.7,4.3v34.2c0,13.1,7.6,21.8,19,21.8c12,0,20-8.2,20-20.6
				v-35.4c-0.1-2.5-2.2-4.3-4.7-4.3h-1.5v-0.9L-1255.2,138.1z"/>
		</g>
		<g>
			<path class="st3" d="M-1137.9,139.1v1.5v5.9l-0.9,0v-1.3c0-2.4-1.9-4.4-4.3-4.4h-19v27.7h15.1c2.4,0,4.3-2,4.3-4.4v-1.3l0.9,0
				V177l-0.9,0v-1.3c0-2.4-1.9-4.3-4.2-4.4h-15.2v23.1c0.1,3.1,2.6,5.6,5.7,5.6h1.1l0,0.9h-19.6l0-0.9h1.1c3.1,0,5.7-2.5,5.7-5.6
				v-50.2c0-2.9-2.7-5.1-5.7-5.1h-1.1l0-0.9h26.2c3.9,0,9-0.9,10.7-1.6L-1137.9,139.1z"/>
		</g>
	</g>
	<g>
		<g>
			<g>
				<g>
					<path class="st3" d="M-2140,182.5l0-0.4c0,0,0,0,0-0.1c0,0,0,0,0,0c0,0,0-0.1,0-0.2"/>
				</g>
			</g>
			<g>
				<g>
					<path class="st3" d="M-2139.9,181.9c0,0.1,0,0.1,0,0.1l0,0.1c-0.1,0.2-0.1,0.4-0.2,0.5l-0.1,0.1c0,0.2-0.1,0.3-0.2,0.5
						l-0.1,0.2c-0.2,0.4-0.5,0.9-0.8,1.3c-0.5,0.7-1.1,1.4-1.9,2.2c-1.3,1.1-2.9,2-4.8,2.7c-1.6,0.6-3.2,0.8-5.1,1l-0.9,0
						c-0.3,0-0.6,0-0.9,0c0.2-0.1,0.5-0.1,0.7-0.2c0.3-0.1,0.7-0.2,1-0.3c1.5-0.6,3.2-1.2,4.5-2.1c1.5-0.9,2.6-2,3.5-3.1
						c0.4-0.6,0.8-1.2,1-1.9c0.1-0.3,0.2-0.7,0.3-1c0-0.2,0.1-0.3,0.1-0.5l0-0.2l0-0.1c0-1-0.1-5.1-4.6-9.4
						c-6.6-6.2-26.2-15.4-83.1-6.9l-3.2,0.5l-1.3,0.2c-59.3,9.5-81.7,1.3-90.1-7.3c-5.1-5.1-5.1-10.4-5-12.1l0.4-1.6
						c0.2-0.7,0.4-1.3,0.7-1.9c0.4-1,0.9-1.9,1.5-3c1.2-1.9,2.7-3.7,4.4-5c1.9-1.4,3.8-2.5,5.7-3.1c0.6-0.3,1.4-0.4,2-0.5
						c-0.7,0.3-1.3,0.5-1.9,0.9c-1.7,0.9-3.3,2.1-4.7,3.8c-1.3,1.4-2.3,3.1-3,5.1c-0.4,1-0.6,1.9-0.8,2.8c-0.2,0.9-0.3,1.9-0.3,2.7
						c-0.1,0.8-0.3,4.9,4,9.3c6.3,6.3,25.6,15.3,83.7,6.4l6.4-1c56.7-8.6,79-0.5,87.7,8C-2139.7,175-2139.8,180.7-2139.9,181.9z"/>
				</g>
			</g>
		</g>
		<g>
			<g>
				<g>
					<path class="st3" d="M-856.2,146.5c0,0.2,0,0.5,0,0.8c0,2.2-0.6,6.8-5,11.2c-8.4,8.6-30.8,16.8-90.1,7.3l-2.4-0.4l0,0l-0.4-0.1
						c-58.2-8.9-78.1,0.3-84.8,6.6c-4,3.7-4.6,7.4-4.6,9l0,0.4v0.1l0,0.1c0,0.1,0,0.3,0.1,0.6l0,0.2c0.1,0.2,0.1,0.5,0.2,0.7
						c0.2,0.7,0.6,1.3,1,1.9c0.8,1.2,2,2.2,3.5,3.1c1.3,0.9,2.7,1.4,4.6,2.1c0.3,0.1,0.6,0.2,0.9,0.3c0.2,0.1,0.5,0.1,0.7,0.2
						c-0.3,0-0.6,0-0.9,0c-0.3,0-0.6,0-0.9,0c-1.6-0.2-3.4-0.4-5.1-1c-1.9-0.7-3.5-1.5-4.8-2.7c-0.8-0.7-1.5-1.4-2-2.2
						c-0.3-0.4-0.5-0.9-0.8-1.3l-0.1-0.3c-0.1-0.2-0.2-0.3-0.2-0.5l0-0.1c-0.1-0.2-0.1-0.3-0.2-0.5l0-0.2l0,0
						c-0.1-1.1-0.2-7,5.6-12.6c8.8-8.5,31.7-16.8,90.3-7.6l0.6,0.1l0.3,0c60.7,9.7,80.4,0.3,86.7-6.1c4.5-4.6,3.9-9.1,3.9-9.1
						c0-0.7-0.1-1.7-0.3-2.7c-0.2-0.9-0.5-1.8-0.8-2.8c-0.7-1.9-1.7-3.6-3-5.1c-1.5-1.7-3.1-3-4.7-3.8c-0.6-0.4-1.3-0.7-1.9-0.9
						c0.7,0.1,1.4,0.3,2.1,0.6c1.9,0.6,3.8,1.6,5.6,3.1c1.7,1.3,3.2,3,4.4,5c0.6,1,1.1,2,1.5,3c0.3,0.7,0.5,1.3,0.7,1.9
						L-856.2,146.5z"/>
				</g>
				<g>
					<polygon class="st3" points="-1043.6,181 -1043.6,181 -1043.6,181.4 					"/>
				</g>
			</g>
		</g>
	</g>
</g>
<g>
	<g>
		<g>
			<path class="st1" d="M427,605.9H13c0.6-110.5,93.2-200.3,207-200.3C333.7,405.6,426.3,495.4,427,605.9z"/>
		</g>
	</g>
	<g>
		<g>
			<path class="st3" d="M428.2,11.9v3.5c0,36.7-11.2,72.5-32.1,102.2c-25.7,41.2-59.6,59.8-97.5,77.8
				c-17.8-24.8-46.3-40.8-78.5-40.8c-53.9,0-97.6,45-97.6,100.6c0,15.1,3.2,29.4,9,42.2c-1.3,1.1-2.7,2.2-4,3.2
				c-32.2,26.4-61.7,55.9-86.4,89.9l-29.1,55.2c-6.4-40.5-3.2-71.3,0-89.9C32.3,237.3,125,196.1,157.2,57.3c4.6-20-0.9-36.5,0-45.4
				H428.2z"/>
		</g>
	</g>
	<g>
		<g>
			<g>
				<path class="st1" d="M314.2,255.2c0,53.6-42.3,97.1-94.2,97.1c-16.1,0-31.9-4.2-45.8-12.3c32.8-25.9,65.7-46.2,87.7-59.3
					c17-10.1,34.4-18.3,51.4-26.2l1-0.4C314.2,254.4,314.2,254.8,314.2,255.2z"/>
			</g>
		</g>
	</g>
</g>
</svg>
