<svg width="390" height="37" viewBox="0 0 390 37" fill="none" xmlns="http://www.w3.org/2000/svg">
<path d="M54.56 26.5H50.456L43.592 16.108V26.5H39.488V9.652H43.592L50.456 20.092V9.652H54.56V26.5ZM63.6309 26.692C62.3189 26.692 61.1349 26.412 60.0789 25.852C59.0389 25.292 58.2149 24.492 57.6069 23.452C57.0149 22.412 56.7189 21.196 56.7189 19.804C56.7189 18.428 57.0229 17.22 57.6309 16.18C58.2389 15.124 59.0709 14.316 60.1269 13.756C61.1829 13.196 62.3669 12.916 63.6789 12.916C64.9909 12.916 66.1749 13.196 67.2309 13.756C68.2869 14.316 69.1189 15.124 69.7269 16.18C70.3349 17.22 70.6389 18.428 70.6389 19.804C70.6389 21.18 70.3269 22.396 69.7029 23.452C69.0949 24.492 68.2549 25.292 67.1829 25.852C66.1269 26.412 64.9429 26.692 63.6309 26.692ZM63.6309 23.14C64.4149 23.14 65.0789 22.852 65.6229 22.276C66.1829 21.7 66.4629 20.876 66.4629 19.804C66.4629 18.732 66.1909 17.908 65.6469 17.332C65.1189 16.756 64.4629 16.468 63.6789 16.468C62.8789 16.468 62.2149 16.756 61.6869 17.332C61.1589 17.892 60.8949 18.716 60.8949 19.804C60.8949 20.876 61.1509 21.7 61.6629 22.276C62.1909 22.852 62.8469 23.14 63.6309 23.14ZM76.9201 15.34C77.4001 14.604 78.0001 14.028 78.7201 13.612C79.4401 13.18 80.2401 12.964 81.1201 12.964V17.308H79.9921C78.9681 17.308 78.2001 17.532 77.6881 17.98C77.1761 18.412 76.9201 19.18 76.9201 20.284V26.5H72.8161V13.108H76.9201V15.34ZM82.2658 19.78C82.2658 18.404 82.5218 17.196 83.0338 16.156C83.5618 15.116 84.2738 14.316 85.1698 13.756C86.0658 13.196 87.0658 12.916 88.1698 12.916C89.0498 12.916 89.8498 13.1 90.5698 13.468C91.3058 13.836 91.8818 14.332 92.2978 14.956V8.74H96.4018V26.5H92.2978V24.58C91.9138 25.22 91.3618 25.732 90.6418 26.116C89.9378 26.5 89.1138 26.692 88.1698 26.692C87.0658 26.692 86.0658 26.412 85.1698 25.852C84.2738 25.276 83.5618 24.468 83.0338 23.428C82.5218 22.372 82.2658 21.156 82.2658 19.78ZM92.2978 19.804C92.2978 18.78 92.0098 17.972 91.4338 17.38C90.8738 16.788 90.1858 16.492 89.3698 16.492C88.5538 16.492 87.8578 16.788 87.2818 17.38C86.7218 17.956 86.4418 18.756 86.4418 19.78C86.4418 20.804 86.7218 21.62 87.2818 22.228C87.8578 22.82 88.5538 23.116 89.3698 23.116C90.1858 23.116 90.8738 22.82 91.4338 22.228C92.0098 21.636 92.2978 20.828 92.2978 19.804ZM101.435 11.716C100.715 11.716 100.123 11.508 99.6588 11.092C99.2108 10.66 98.9868 10.132 98.9868 9.508C98.9868 8.868 99.2108 8.34 99.6588 7.924C100.123 7.492 100.715 7.276 101.435 7.276C102.139 7.276 102.715 7.492 103.163 7.924C103.627 8.34 103.859 8.868 103.859 9.508C103.859 10.132 103.627 10.66 103.163 11.092C102.715 11.508 102.139 11.716 101.435 11.716ZM103.475 13.108V26.5H99.3708V13.108H103.475ZM105.633 19.804C105.633 18.412 105.913 17.196 106.473 16.156C107.049 15.116 107.841 14.316 108.849 13.756C109.873 13.196 111.041 12.916 112.353 12.916C114.033 12.916 115.433 13.356 116.553 14.236C117.689 15.116 118.433 16.356 118.785 17.956H114.417C114.049 16.932 113.337 16.42 112.281 16.42C111.529 16.42 110.929 16.716 110.481 17.308C110.033 17.884 109.809 18.716 109.809 19.804C109.809 20.892 110.033 21.732 110.481 22.324C110.929 22.9 111.529 23.188 112.281 23.188C113.337 23.188 114.049 22.676 114.417 21.652H118.785C118.433 23.22 117.689 24.452 116.553 25.348C115.417 26.244 114.017 26.692 112.353 26.692C111.041 26.692 109.873 26.412 108.849 25.852C107.841 25.292 107.049 24.492 106.473 23.452C105.913 22.412 105.633 21.196 105.633 19.804ZM125.084 9.652V26.5H120.98V9.652H125.084ZM145.146 12.964C146.81 12.964 148.13 13.468 149.106 14.476C150.098 15.484 150.594 16.884 150.594 18.676V26.5H146.514V19.228C146.514 18.364 146.282 17.7 145.818 17.236C145.37 16.756 144.746 16.516 143.946 16.516C143.146 16.516 142.514 16.756 142.05 17.236C141.602 17.7 141.378 18.364 141.378 19.228V26.5H137.298V19.228C137.298 18.364 137.066 17.7 136.602 17.236C136.154 16.756 135.53 16.516 134.73 16.516C133.93 16.516 133.298 16.756 132.834 17.236C132.386 17.7 132.162 18.364 132.162 19.228V26.5H128.058V13.108H132.162V14.788C132.578 14.228 133.122 13.788 133.794 13.468C134.466 13.132 135.226 12.964 136.074 12.964C137.082 12.964 137.978 13.18 138.762 13.612C139.562 14.044 140.186 14.66 140.634 15.46C141.098 14.724 141.73 14.124 142.53 13.66C143.33 13.196 144.202 12.964 145.146 12.964ZM152.649 19.78C152.649 18.404 152.905 17.196 153.417 16.156C153.945 15.116 154.657 14.316 155.553 13.756C156.449 13.196 157.449 12.916 158.553 12.916C159.497 12.916 160.321 13.108 161.025 13.492C161.745 13.876 162.297 14.38 162.681 15.004V13.108H166.785V26.5H162.681V24.604C162.281 25.228 161.721 25.732 161.001 26.116C160.297 26.5 159.473 26.692 158.529 26.692C157.441 26.692 156.449 26.412 155.553 25.852C154.657 25.276 153.945 24.468 153.417 23.428C152.905 22.372 152.649 21.156 152.649 19.78ZM162.681 19.804C162.681 18.78 162.393 17.972 161.817 17.38C161.257 16.788 160.569 16.492 159.753 16.492C158.937 16.492 158.241 16.788 157.665 17.38C157.105 17.956 156.825 18.756 156.825 19.78C156.825 20.804 157.105 21.62 157.665 22.228C158.241 22.82 158.937 23.116 159.753 23.116C160.569 23.116 161.257 22.82 161.817 22.228C162.393 21.636 162.681 20.828 162.681 19.804ZM174.842 12.916C175.786 12.916 176.61 13.108 177.314 13.492C178.034 13.876 178.586 14.38 178.97 15.004V13.108H183.074V26.476C183.074 27.708 182.826 28.82 182.33 29.812C181.85 30.82 181.106 31.62 180.098 32.212C179.106 32.804 177.866 33.1 176.378 33.1C174.394 33.1 172.786 32.628 171.554 31.684C170.322 30.756 169.618 29.492 169.442 27.892H173.498C173.626 28.404 173.93 28.804 174.41 29.092C174.89 29.396 175.482 29.548 176.186 29.548C177.034 29.548 177.706 29.3 178.202 28.804C178.714 28.324 178.97 27.548 178.97 26.476V24.58C178.57 25.204 178.018 25.716 177.314 26.116C176.61 26.5 175.786 26.692 174.842 26.692C173.738 26.692 172.738 26.412 171.842 25.852C170.946 25.276 170.234 24.468 169.706 23.428C169.194 22.372 168.938 21.156 168.938 19.78C168.938 18.404 169.194 17.196 169.706 16.156C170.234 15.116 170.946 14.316 171.842 13.756C172.738 13.196 173.738 12.916 174.842 12.916ZM178.97 19.804C178.97 18.78 178.682 17.972 178.106 17.38C177.546 16.788 176.858 16.492 176.042 16.492C175.226 16.492 174.53 16.788 173.954 17.38C173.394 17.956 173.114 18.756 173.114 19.78C173.114 20.804 173.394 21.62 173.954 22.228C174.53 22.82 175.226 23.116 176.042 23.116C176.858 23.116 177.546 22.82 178.106 22.228C178.682 21.636 178.97 20.828 178.97 19.804ZM198.667 19.588C198.667 19.972 198.643 20.372 198.595 20.788H189.307C189.371 21.62 189.635 22.26 190.099 22.708C190.579 23.14 191.163 23.356 191.851 23.356C192.875 23.356 193.587 22.924 193.987 22.06H198.355C198.131 22.94 197.723 23.732 197.131 24.436C196.555 25.14 195.827 25.692 194.947 26.092C194.067 26.492 193.083 26.692 191.995 26.692C190.683 26.692 189.515 26.412 188.491 25.852C187.467 25.292 186.667 24.492 186.091 23.452C185.515 22.412 185.227 21.196 185.227 19.804C185.227 18.412 185.507 17.196 186.067 16.156C186.643 15.116 187.443 14.316 188.467 13.756C189.491 13.196 190.667 12.916 191.995 12.916C193.291 12.916 194.443 13.188 195.451 13.732C196.459 14.276 197.243 15.052 197.803 16.06C198.379 17.068 198.667 18.244 198.667 19.588ZM194.467 18.508C194.467 17.804 194.227 17.244 193.747 16.828C193.267 16.412 192.667 16.204 191.947 16.204C191.259 16.204 190.675 16.404 190.195 16.804C189.731 17.204 189.443 17.772 189.331 18.508H194.467ZM204.864 9.652V19.732C204.864 20.74 205.112 21.516 205.608 22.06C206.104 22.604 206.832 22.876 207.792 22.876C208.752 22.876 209.488 22.604 210 22.06C210.512 21.516 210.768 20.74 210.768 19.732V9.652H214.872V19.708C214.872 21.212 214.552 22.484 213.912 23.524C213.272 24.564 212.408 25.348 211.32 25.876C210.248 26.404 209.048 26.668 207.72 26.668C206.392 26.668 205.2 26.412 204.144 25.9C203.104 25.372 202.28 24.588 201.672 23.548C201.064 22.492 200.76 21.212 200.76 19.708V9.652H204.864ZM228.722 9.652V12.94H221.858V16.492H226.994V19.684H221.858V26.5H217.754V9.652H228.722ZM244.223 10.468C246.111 10.468 247.759 10.828 249.167 11.548C250.575 12.252 251.655 13.252 252.407 14.548C253.175 15.828 253.559 17.308 253.559 18.988C253.559 20.348 253.319 21.612 252.839 22.78C252.375 23.948 251.679 24.884 250.751 25.588C249.839 26.276 248.751 26.62 247.487 26.62C246.639 26.62 245.935 26.452 245.375 26.116C244.831 25.78 244.463 25.308 244.271 24.7C243.823 25.324 243.247 25.812 242.543 26.164C241.839 26.5 241.071 26.668 240.239 26.668C239.055 26.668 238.119 26.316 237.431 25.612C236.759 24.892 236.423 23.916 236.423 22.684C236.423 21.516 236.663 20.42 237.143 19.396C237.623 18.356 238.287 17.524 239.135 16.9C239.983 16.276 240.935 15.964 241.991 15.964C243.335 15.964 244.247 16.444 244.727 17.404L244.943 16.132H248.255L247.199 22.156C247.151 22.444 247.127 22.7 247.127 22.924C247.127 23.628 247.439 23.98 248.063 23.98C248.831 23.98 249.415 23.492 249.815 22.516C250.231 21.524 250.439 20.388 250.439 19.108C250.439 17.268 249.855 15.828 248.687 14.788C247.535 13.748 245.911 13.228 243.815 13.228C242.023 13.228 240.391 13.66 238.919 14.524C237.463 15.388 236.319 16.572 235.487 18.076C234.655 19.564 234.239 21.204 234.239 22.996C234.239 24.932 234.799 26.436 235.919 27.508C237.055 28.58 238.639 29.116 240.671 29.116C242.255 29.116 243.671 28.828 244.919 28.252L245.567 30.868C243.999 31.556 242.239 31.9 240.287 31.9C238.463 31.9 236.855 31.548 235.463 30.844C234.087 30.14 233.023 29.14 232.271 27.844C231.519 26.548 231.143 25.036 231.143 23.308C231.143 20.892 231.711 18.708 232.847 16.756C233.983 14.788 235.543 13.252 237.527 12.148C239.527 11.028 241.759 10.468 244.223 10.468ZM241.583 23.716C242.031 23.716 242.447 23.58 242.831 23.308C243.231 23.036 243.543 22.676 243.767 22.228C244.007 21.764 244.127 21.268 244.127 20.74C244.127 20.196 243.975 19.756 243.671 19.42C243.367 19.068 242.951 18.892 242.423 18.892C241.719 18.892 241.135 19.196 240.671 19.804C240.207 20.412 239.975 21.132 239.975 21.964C239.975 22.492 240.111 22.916 240.383 23.236C240.655 23.556 241.055 23.716 241.583 23.716ZM261.889 12.916C262.833 12.916 263.657 13.108 264.361 13.492C265.081 13.876 265.633 14.38 266.017 15.004V13.108H270.121V26.476C270.121 27.708 269.873 28.82 269.377 29.812C268.897 30.82 268.153 31.62 267.145 32.212C266.153 32.804 264.913 33.1 263.425 33.1C261.441 33.1 259.833 32.628 258.601 31.684C257.369 30.756 256.665 29.492 256.489 27.892H260.545C260.673 28.404 260.977 28.804 261.457 29.092C261.937 29.396 262.529 29.548 263.233 29.548C264.081 29.548 264.753 29.3 265.249 28.804C265.761 28.324 266.017 27.548 266.017 26.476V24.58C265.617 25.204 265.065 25.716 264.361 26.116C263.657 26.5 262.833 26.692 261.889 26.692C260.785 26.692 259.785 26.412 258.889 25.852C257.993 25.276 257.281 24.468 256.753 23.428C256.241 22.372 255.985 21.156 255.985 19.78C255.985 18.404 256.241 17.196 256.753 16.156C257.281 15.116 257.993 14.316 258.889 13.756C259.785 13.196 260.785 12.916 261.889 12.916ZM266.017 19.804C266.017 18.78 265.729 17.972 265.153 17.38C264.593 16.788 263.905 16.492 263.089 16.492C262.273 16.492 261.577 16.788 261.001 17.38C260.441 17.956 260.161 18.756 260.161 19.78C260.161 20.804 260.441 21.62 261.001 22.228C261.577 22.82 262.273 23.116 263.089 23.116C263.905 23.116 264.593 22.82 265.153 22.228C265.729 21.636 266.017 20.828 266.017 19.804ZM290.178 12.964C291.842 12.964 293.162 13.468 294.138 14.476C295.13 15.484 295.626 16.884 295.626 18.676V26.5H291.546V19.228C291.546 18.364 291.314 17.7 290.85 17.236C290.402 16.756 289.778 16.516 288.978 16.516C288.178 16.516 287.546 16.756 287.082 17.236C286.634 17.7 286.41 18.364 286.41 19.228V26.5H282.33V19.228C282.33 18.364 282.098 17.7 281.634 17.236C281.186 16.756 280.562 16.516 279.762 16.516C278.962 16.516 278.33 16.756 277.866 17.236C277.418 17.7 277.194 18.364 277.194 19.228V26.5H273.09V13.108H277.194V14.788C277.61 14.228 278.154 13.788 278.826 13.468C279.498 13.132 280.258 12.964 281.106 12.964C282.114 12.964 283.01 13.18 283.794 13.612C284.594 14.044 285.218 14.66 285.666 15.46C286.13 14.724 286.762 14.124 287.562 13.66C288.362 13.196 289.234 12.964 290.178 12.964ZM297.68 19.78C297.68 18.404 297.936 17.196 298.448 16.156C298.976 15.116 299.688 14.316 300.584 13.756C301.48 13.196 302.48 12.916 303.584 12.916C304.528 12.916 305.352 13.108 306.056 13.492C306.776 13.876 307.328 14.38 307.712 15.004V13.108H311.816V26.5H307.712V24.604C307.312 25.228 306.752 25.732 306.032 26.116C305.328 26.5 304.504 26.692 303.56 26.692C302.472 26.692 301.48 26.412 300.584 25.852C299.688 25.276 298.976 24.468 298.448 23.428C297.936 22.372 297.68 21.156 297.68 19.78ZM307.712 19.804C307.712 18.78 307.424 17.972 306.848 17.38C306.288 16.788 305.6 16.492 304.784 16.492C303.968 16.492 303.272 16.788 302.696 17.38C302.136 17.956 301.856 18.756 301.856 19.78C301.856 20.804 302.136 21.62 302.696 22.228C303.272 22.82 303.968 23.116 304.784 23.116C305.6 23.116 306.288 22.82 306.848 22.228C307.424 21.636 307.712 20.828 307.712 19.804ZM316.849 11.716C316.129 11.716 315.537 11.508 315.073 11.092C314.625 10.66 314.401 10.132 314.401 9.508C314.401 8.868 314.625 8.34 315.073 7.924C315.537 7.492 316.129 7.276 316.849 7.276C317.553 7.276 318.129 7.492 318.577 7.924C319.041 8.34 319.273 8.868 319.273 9.508C319.273 10.132 319.041 10.66 318.577 11.092C318.129 11.508 317.553 11.716 316.849 11.716ZM318.889 13.108V26.5H314.785V13.108H318.889ZM325.967 8.74V26.5H321.863V8.74H325.967ZM330.861 26.692C330.141 26.692 329.549 26.484 329.085 26.068C328.637 25.636 328.413 25.108 328.413 24.484C328.413 23.844 328.637 23.308 329.085 22.876C329.549 22.444 330.141 22.228 330.861 22.228C331.565 22.228 332.141 22.444 332.589 22.876C333.053 23.308 333.285 23.844 333.285 24.484C333.285 25.108 333.053 25.636 332.589 26.068C332.141 26.484 331.565 26.692 330.861 26.692ZM334.899 19.804C334.899 18.412 335.179 17.196 335.739 16.156C336.315 15.116 337.107 14.316 338.115 13.756C339.139 13.196 340.307 12.916 341.619 12.916C343.299 12.916 344.699 13.356 345.819 14.236C346.955 15.116 347.699 16.356 348.051 17.956H343.683C343.315 16.932 342.603 16.42 341.547 16.42C340.795 16.42 340.195 16.716 339.747 17.308C339.299 17.884 339.075 18.716 339.075 19.804C339.075 20.892 339.299 21.732 339.747 22.324C340.195 22.9 340.795 23.188 341.547 23.188C342.603 23.188 343.315 22.676 343.683 21.652H348.051C347.699 23.22 346.955 24.452 345.819 25.348C344.683 26.244 343.283 26.692 341.619 26.692C340.307 26.692 339.139 26.412 338.115 25.852C337.107 25.292 336.315 24.492 335.739 23.452C335.179 22.412 334.899 21.196 334.899 19.804ZM356.342 26.692C355.03 26.692 353.846 26.412 352.79 25.852C351.75 25.292 350.926 24.492 350.318 23.452C349.726 22.412 349.43 21.196 349.43 19.804C349.43 18.428 349.734 17.22 350.342 16.18C350.95 15.124 351.782 14.316 352.838 13.756C353.894 13.196 355.078 12.916 356.39 12.916C357.702 12.916 358.886 13.196 359.942 13.756C360.998 14.316 361.83 15.124 362.438 16.18C363.046 17.22 363.35 18.428 363.35 19.804C363.35 21.18 363.038 22.396 362.414 23.452C361.806 24.492 360.966 25.292 359.894 25.852C358.838 26.412 357.654 26.692 356.342 26.692ZM356.342 23.14C357.126 23.14 357.79 22.852 358.334 22.276C358.894 21.7 359.174 20.876 359.174 19.804C359.174 18.732 358.902 17.908 358.358 17.332C357.83 16.756 357.174 16.468 356.39 16.468C355.59 16.468 354.926 16.756 354.398 17.332C353.87 17.892 353.606 18.716 353.606 19.804C353.606 20.876 353.862 21.7 354.374 22.276C354.902 22.852 355.558 23.14 356.342 23.14ZM382.615 12.964C384.279 12.964 385.599 13.468 386.575 14.476C387.567 15.484 388.063 16.884 388.063 18.676V26.5H383.983V19.228C383.983 18.364 383.751 17.7 383.287 17.236C382.839 16.756 382.215 16.516 381.415 16.516C380.615 16.516 379.983 16.756 379.519 17.236C379.071 17.7 378.847 18.364 378.847 19.228V26.5H374.767V19.228C374.767 18.364 374.535 17.7 374.071 17.236C373.623 16.756 372.999 16.516 372.199 16.516C371.399 16.516 370.767 16.756 370.303 17.236C369.855 17.7 369.631 18.364 369.631 19.228V26.5H365.527V13.108H369.631V14.788C370.047 14.228 370.591 13.788 371.263 13.468C371.935 13.132 372.695 12.964 373.543 12.964C374.551 12.964 375.447 13.18 376.231 13.612C377.031 14.044 377.655 14.66 378.103 15.46C378.567 14.724 379.199 14.124 379.999 13.66C380.799 13.196 381.671 12.964 382.615 12.964Z" fill="white"/>
<a href="mailto:NordicImageUF@gmail.com">
<rect fill="black" fill-opacity="0" y="-1.90735e-06" width="351.455" height="36"/>
</a>
<path d="M30.4127 15.0523C30.6488 14.8646 31 15.0402 31 15.3369V27.7188C31 29.3232 29.6982 30.625 28.0938 30.625H2.90625C1.30176 30.625 0 29.3232 0 27.7188V15.343C0 15.0402 0.345117 14.8707 0.587305 15.0584C1.94355 16.1119 3.7418 17.45 9.91758 21.9365C11.1951 22.8689 13.3506 24.8307 15.5 24.8186C17.6615 24.8367 19.8594 22.8326 21.0885 21.9365C27.2643 17.45 29.0564 16.1059 30.4127 15.0523ZM15.5 22.875C16.9047 22.8992 18.927 21.107 19.9441 20.3684C27.9787 14.5377 28.5902 14.0291 30.443 12.576C30.7941 12.3035 31 11.8797 31 11.4316V10.2812C31 8.67676 29.6982 7.375 28.0938 7.375H2.90625C1.30176 7.375 0 8.67676 0 10.2812V11.4316C0 11.8797 0.205859 12.2975 0.557031 12.576C2.40977 14.023 3.02129 14.5377 11.0559 20.3684C12.073 21.107 14.0953 22.8992 15.5 22.875Z" fill="white"/>
</svg>
