<svg xmlns="http://www.w3.org/2000/svg" fill="none" viewBox="0 0 1920 72.15">
<path d="M0 66.8867L53.3333 65.6167C106.667 64.3467 213.333 61.8067 320 59.8593C426.667 57.8273 533.333 56.4727 640 60.1133C746.667 63.754 853.333 72.5593 960 72.136C1066.67 71.7127 1173.33 62.0607 1280 60.7907C1386.67 59.5207 1493.33 66.6327 1600 69.596C1706.67 72.5593 1813.33 71.374 1866.67 70.866L1920 70.2733V0H1866.67C1813.33 0 1706.67 0 1600 0C1493.33 0 1386.67 0 1280 0C1173.33 0 1066.67 0 960 0C853.333 0 746.667 0 640 0C533.333 0 426.667 0 320 0C213.333 0 106.667 0 53.3333 0H0V66.8867Z" fill="#522BBF"/>
<path d="M0 54.1867L53.3333 52.9167C106.667 51.6467 213.333 49.1067 320 47.1593C426.667 45.1273 533.333 43.7727 640 45.5507C746.667 47.4133 853.333 52.4933 960 50.3767C1066.67 48.26 1173.33 38.9467 1280 34.9673C1386.67 31.0727 1493.33 32.4273 1600 36.1527C1706.67 39.7933 1813.33 45.72 1866.67 48.6833L1920 51.6467V0H1866.67C1813.33 0 1706.67 0 1600 0C1493.33 0 1386.67 0 1280 0C1173.33 0 1066.67 0 960 0C853.333 0 746.667 0 640 0C533.333 0 426.667 0 320 0C213.333 0 106.667 0 53.3333 0H0V54.1867Z" fill="#3C17A4"/>
<path d="M0 24.5533L53.3333 23.4527C106.667 22.2673 213.333 20.066 320 19.05C426.667 18.034 533.333 18.3727 640 18.6267C746.667 18.8807 853.333 19.2193 960 20.32C1066.67 21.4207 1173.33 23.4527 1280 24.8073C1386.67 26.2467 1493.33 27.0933 1600 25.9927C1706.67 24.8073 1813.33 21.7593 1866.67 20.1507L1920 18.6267V0H1866.67C1813.33 0 1706.67 0 1600 0C1493.33 0 1386.67 0 1280 0C1173.33 0 1066.67 0 960 0C853.333 0 746.667 0 640 0C533.333 0 426.667 0 320 0C213.333 0 106.667 0 53.3333 0H0V24.5533Z" fill="#24008A"/>
</svg>