<?xml version="1.0" encoding="utf-8"?>
<!-- Generator: Adobe Illustrator 23.0.6, SVG Export Plug-In . SVG Version: 6.00 Build 0)  -->
<svg version="1.1" id="Lager_1" xmlns="http://www.w3.org/2000/svg" xmlns:xlink="http://www.w3.org/1999/xlink" x="0px" y="0px"
	 viewBox="0 0 1308.2 297" style="enable-background:new 0 0 1308.2 297;" xml:space="preserve">
<style type="text/css">
	.st0{fill:#FFFFFF;}
</style>
<g>
	<g>
		<g>
			<g>
				<path class="st0" d="M379.7,22.2c-52.4,0-86.2,27-86.2,68.8c0,41.8,33.8,68.7,86.2,68.7c52.5,0,86.3-27,86.3-68.7
					C466,49.3,432.1,22.2,379.7,22.2z M379.7,149.9c-29,0-47.8-23.1-47.8-58.8c0-36.3,18.3-58.9,47.8-58.9
					c29.5,0,47.8,22.6,47.8,58.9C427.5,127.3,409.2,149.9,379.7,149.9z"/>
			</g>
			<g>
				<path class="st0" d="M832.2,25l-82.5,0v3.5h3.6c7.3,0,12.8,4.5,13.1,10.7v103.1c-0.1,6.1-5.9,11.1-12.9,11.1h-3.7v3.6h82.3
					c52.5,0,83.8-24.6,83.8-65.9C916,49.7,884.7,25,832.2,25z M829.4,146.9h-26.6l0-111.9h26.6c30.3,0,48.4,21,48.4,56.2
					C877.7,126,859.7,146.9,829.4,146.9z"/>
			</g>
			<g>
				<path class="st0" d="M1058.7,153.4v3.6h-70v-3.6h3.6c7.4,0,13.2-4.8,13.3-10.9V39.4c-0.1-6.1-5.9-10.9-13.3-10.9h-3.6V25h69.9
					v3.5h-3.5c-7.3,0-13.1,4.6-13.4,10.8l0,103.3c0.2,6.2,6,10.8,13.4,10.8H1058.7z"/>
			</g>
			<g>
				<path class="st0" d="M1281.2,134.8l-0.1,0.2c-6.3,9.3-22.8,24.9-61.3,24.9c-55-0.2-87.9-26-87.9-68.9c0-43,32.9-68.7,87.9-68.7
					c20.1,0,40.5,3.7,54.7,9.9l0.4,0.2v35.7h-3.1l-0.1-0.5c-7.4-24.2-23.1-35.4-49.5-35.4c-33.1,0-52.1,21.3-52.1,58.3
					c0,36.4,18.6,58.6,49.7,59.3h0.4c34.1,0,49-13.1,54.9-48.1l0.1-0.6l3.1,0L1281.2,134.8z"/>
			</g>
		</g>
		<g>
			<path class="st0" d="M685.2,32.4v35.7h-3.1l-0.2-0.5c-7.4-24.2-23.1-35.4-49.5-35.4c-30.5,0-49.4,18.6-51.9,50.9h-0.1l0,59.5
				c0,6.8,6.4,10.9,12.5,10.9h3.3v3.5h-68v-3.5h3.6c6.7,0,12-4.7,12.2-10.7V39.2c-0.1-6-5.3-10.6-12-10.6h-3.7V25l52.3,0v6.4
				c13.6-6.1,30.2-9.2,49.4-9.2c20.1,0,40.5,3.7,54.8,9.9L685.2,32.4z"/>
		</g>
		<g>
			<g>
				<path class="st0" d="M102.3,157H27.7l0-3.5h5.1c7.7,0,14.1-5.6,14.2-12.5v-25.7l38.9,33.3c0.9,1,1.8,1.8,2.8,2.4
					c2.4,1.6,5.3,2.4,8.4,2.4h5.1L102.3,157z"/>
			</g>
		</g>
		<g>
			<path class="st0" d="M224,3.3l0,3.5h-5.1c-7.7,0-14,5.4-14.2,12.4v112.4c0,16.1,2.7,27.5,2.8,27.6l0.2,0.8h-3.3l-0.2-0.2
				L47.1,25.3l0-0.3c-0.3-14.4-2.7-24.1-2.8-24.2L44.1,0h3.5l0.2,0.2l120.9,103.7V19.3c-0.2-6.9-6.5-12.5-14.2-12.5h-5.1l0-3.5H224z
				"/>
		</g>
	</g>
	<g>
		<g>
			<path class="st0" d="M267.1,292.1l0.1,3.6h-24.9l0.1-3.6h2.6c2.8,0,5.1-2,5.1-4.4v-50.6c-0.1-2.4-2.4-4.3-5.1-4.3h-2.6l-0.1-3.6
				h24.9l-0.1,3.6h-2.6c-2.7,0-5.1,2-5.1,4.4v50.6c0.1,2.4,2.3,4.4,5.1,4.4H267.1z"/>
		</g>
		<g>
			<path class="st0" d="M422.2,292.1v3.6h-23.8v-3.6h2.9c0.8,0,1.5-0.3,2-0.9c0.3-0.3,0.4-0.7,0.4-1.1l-4.8-33.6L381.7,287
				c0,0-2.8,5.4-3.5,8.9l-0.2,1.1h-2.9l-22.8-39.5l-4.1,32.7c-0.1,0.5,0.2,0.9,0.4,1.1c0.5,0.5,1.2,0.9,2,0.9h2.9v3.6H332v-3.6h2.9
				c2.5,0,5.2-1.2,5.6-4l8-51.1h2.9l26,44.9l25.1-44.9h2.9l8.3,51.2c0.5,2.7,3.2,3.9,5.6,3.9H422.2z"/>
		</g>
		<g>
			<path class="st0" d="M549.4,292.1c-2.6,0-5-1.7-6.6-4.6L517.3,237h-3.1l-0.1,1.2c-0.1,0.7-0.6,2.6-3.6,8.5
				c-0.1,0.1-0.1,0.3-0.2,0.4l-21,40.4c-1.6,2.9-4.1,4.6-6.8,4.6h-2.2v3.6h22v-3.6h-2.2c-0.9,0-1.8-0.4-2.2-1.1
				c-0.6-0.9-0.3-2,0-2.7l5.2-11.1h23.9l5.1,11.3c0.4,1,0.4,1.9-0.1,2.5c-0.5,0.7-1.3,1.1-2.2,1.1h-2.2v3.6h23.6v-3.6H549.4z
				 M505.9,271.7l9.6-20.4l9.3,20.4H505.9z"/>
		</g>
		<g>
			<path class="st0" d="M683.5,267v3.6h-2.7c-1.3,0-2.2,0.3-2.8,0.8c-0.3,0.3-0.5,0.8-0.5,1.4v11.5l-0.3,0.4
				c-2.5,2.9-12.1,12.2-29.9,12.2c-21-0.1-34.6-11.9-34.6-30c0-18.2,13.6-30,34.6-30c9.5,0,17.2,1.8,24.3,5.7l0.6,0.3l2.6,15.1h-3.6
				l-0.3-1c-2.8-10-10.3-14.7-23.8-14.7c-15.1,0-24.4,9.4-24.4,24.6c0,14.9,9.6,24.5,24.6,24.5c8.3,0,15.2-2.3,20.9-7.2l0.2-11.5
				c0-0.6-0.2-1-0.5-1.4c-0.5-0.5-1.5-0.8-2.9-0.8c0,0,0,0,0,0h-2.8V267H683.5z"/>
		</g>
		<g>
			<path class="st0" d="M797.9,279.9l-6.8,15.8h-43.5l0.1-3.6h2.7c2.5,0,4.4-1.5,4.5-3.5v-43.2c0-1.9-1.9-3.4-4.5-3.4h-2.7l-0.1-3.6
				h31c4.1,0,9.4-0.8,10.9-1.4l1.8-0.6v13.6l-3.8,0v-2.8c0-1.9-1.5-3.3-3.7-3.3h-19.6v20.5h15.9c2.3,0,2.7-1.4,2.7-2.5v-2.5l3.8,0
				v15.6l-3.8,0v-2.5c0-1.1-0.5-2.4-2.6-2.5h-16.1v20.5h14.5c8.6-0.1,11.9-3.4,14.9-9.5l0.4-0.8H797.9z"/>
		</g>
		<g>
			<path class="st0" d="M966.9,229.1v3.6h-3c-2.2,0-3.9,1.3-4,3v36c0,15.1-11.5,25.2-28.7,25.2c-17.6,0-29.5-10.1-29.5-25.1v-36
				c0-1.8-1.8-3.2-4-3.2h-3v-3.6h23.3v3.6h-3c-2.2,0-3.9,1.3-4,3.1l0,34.8c0,12.6,7.9,20.8,20.2,20.8c12.9,0,21.2-7.7,21.2-19.6v-36
				c-0.1-1.7-1.8-3-4-3h-3v-3.6H966.9z"/>
		</g>
		<g>
			<path class="st0" d="M1067.2,226.9v13.7l-3.7,0v-2.7c0-1.7-1.6-3.1-3.6-3.1h-20.1v25.5h15.8c1.9,0,3.5-1.4,3.5-3.1v-2.7l3.7,0
				v17.2l-3.7,0v-2.7c0-1.7-1.5-3.1-3.5-3.1h-15.8v22.1c0.1,2.4,2.3,4.4,5.1,4.4h2.6l0.1,3.6h-25l0.1-3.6h2.6c2.8,0,5.1-2,5.1-4.4
				v-51.1c0-2-2.4-3.9-5.1-3.9h-2.6l-0.1-3.6h31c4.4,0,10-1,11.6-1.6L1067.2,226.9z"/>
		</g>
	</g>
	<path class="st0" d="M169.9,263.7c-8.2-14.5-34.9-14.7-47.8-14.8c-6.6-0.1-14.2,0.4-22.5,1.4c-3.8,0.4-5.8,0.8-8.4,1.2
		c-2.2,0.4-4.9,0.8-9.8,1.5c-7.9,1.1-15.4,2.2-24.7,2.7l-1.3,0.1c-10.1,0.6-15.1,0.9-21.8-0.1c-18.4-2.5-23.5-7.3-24.5-10.8
		c-0.1-0.5-0.7-2.9,0-5.9c0.8-3.2,3.4-6.5,4.3-7.3c1.5-1.4,4.6-4.1,7.6-5.5s6.1-2.7,6.1-2.7s-4.6,0-10.6,1.4
		c-0.4,0.1-9.6,1.3-14.4,10c-0.5,1-3.2,6.2-1.6,12.3c2.7,10.3,16.3,13.6,22.1,15.1l0.3,0.1c0.9,0.2,3.5,0.9,10.1,1.4
		c13.2,1.1,23.4,0.3,26.8,0c6.7-0.5,9.8-1,15-1.8c3.9-0.6,8.7-1.3,17-2.3c19.7-2.5,25.9-2.7,30.3-2.7c0.1,0,8.9-0.2,20.4,1.3
		c6.7,0.9,9.8,1.8,12.9,3.8c5.1,3.1,7.8,6.4,7.4,9c-0.3,2-1.5,3.8-2.2,4.4c-2.3,1.8-4.6,4.1-7.6,5.5c-2.4,1.1-6.1,2.7-6.1,2.7
		s12.1,0,16.7-2.7c4.6-2.7,6.1-4.1,7.8-7.5C172.7,270.9,172,267.5,169.9,263.7z"/>
	<path class="st0" d="M1138.3,263.7c8.2-14.5,34.9-14.7,47.8-14.8c6.6-0.1,14.2,0.4,22.5,1.4c3.8,0.4,5.8,0.8,8.4,1.2
		c2.2,0.4,4.9,0.8,9.8,1.5c7.9,1.1,15.4,2.2,24.7,2.7l1.3,0.1c10.1,0.6,15.1,0.9,21.8-0.1c18.4-2.5,23.5-7.3,24.5-10.8
		c0.1-0.5,0.7-2.9,0-5.9c-0.8-3.2-3.4-6.5-4.3-7.3c-1.5-1.4-4.6-4.1-7.6-5.5s-6.1-2.7-6.1-2.7s4.6,0,10.6,1.4
		c0.4,0.1,9.6,1.3,14.4,10c0.5,1,3.2,6.2,1.6,12.3c-2.7,10.3-16.3,13.6-22.1,15.1l-0.3,0.1c-0.9,0.2-3.5,0.9-10.1,1.4
		c-13.2,1.1-23.4,0.3-26.8,0c-6.7-0.5-9.8-1-15-1.8c-3.9-0.6-8.7-1.3-17-2.3c-19.7-2.5-25.9-2.7-30.3-2.7c-0.1,0-8.9-0.2-20.4,1.3
		c-6.7,0.9-9.8,1.8-12.9,3.8c-5.1,3.1-7.8,6.4-7.4,9c0.3,2,1.5,3.8,2.2,4.4c2.3,1.8,4.6,4.1,7.6,5.5c2.4,1.1,6.1,2.7,6.1,2.7
		s-12.1,0-16.7-2.7s-6.1-4.1-7.8-7.5C1135.5,270.9,1136.2,267.5,1138.3,263.7z"/>
</g>
</svg>
