<svg xmlns="http://www.w3.org/2000/svg" fill="none" viewBox="0 0 1920 327">
<g clip-path="url(#clip0_32:28)">
<path d="M1920 283.945L1893.33 284.762C1866.67 285.58 1813.33 287.215 1760 288.469C1706.67 289.777 1653.33 290.648 1600 288.305C1546.67 285.961 1493.33 280.294 1440 280.566C1386.67 280.839 1333.33 287.051 1280 287.869C1226.67 288.686 1173.33 284.109 1120 282.201C1066.67 280.294 1013.33 281.057 986.667 281.384L960 281.765V327H986.667C1013.33 327 1066.67 327 1120 327C1173.33 327 1226.67 327 1280 327C1333.33 327 1386.67 327 1440 327C1493.33 327 1546.67 327 1600 327C1653.33 327 1706.67 327 1760 327C1813.33 327 1866.67 327 1893.33 327H1920V283.945Z" fill="#522BBF"/>
<path d="M1920 292.12L1893.33 292.937C1866.67 293.755 1813.33 295.39 1760 296.643C1706.67 297.951 1653.33 298.823 1600 297.679C1546.67 296.48 1493.33 293.21 1440 294.572C1386.67 295.935 1333.33 301.93 1280 304.491C1226.67 306.998 1173.33 306.126 1120 303.728C1066.67 301.385 1013.33 297.57 986.667 295.662L960 293.755V327H986.667C1013.33 327 1066.67 327 1120 327C1173.33 327 1226.67 327 1280 327C1333.33 327 1386.67 327 1440 327C1493.33 327 1546.67 327 1600 327C1653.33 327 1706.67 327 1760 327C1813.33 327 1866.67 327 1893.33 327H1920V292.12Z" fill="#3C17A4"/>
<path d="M1920 311.195L1893.33 311.903C1866.67 312.666 1813.33 314.083 1760 314.737C1706.67 315.391 1653.33 315.173 1600 315.01C1546.67 314.846 1493.33 314.628 1440 313.92C1386.67 313.211 1333.33 311.903 1280 311.031C1226.67 310.105 1173.33 309.56 1120 310.268C1066.67 311.031 1013.33 312.993 986.667 314.029L960 315.01V327H986.667C1013.33 327 1066.67 327 1120 327C1173.33 327 1226.67 327 1280 327C1333.33 327 1386.67 327 1440 327C1493.33 327 1546.67 327 1600 327C1653.33 327 1706.67 327 1760 327C1813.33 327 1866.67 327 1893.33 327H1920V311.195Z" fill="#24008A"/>
</g>
<g clip-path="url(#clip1_32:28)">
<path d="M0 283.945L26.6667 284.762C53.3333 285.58 106.667 287.215 160 288.469C213.333 289.777 266.667 290.648 320 288.305C373.333 285.961 426.667 280.294 480 280.566C533.333 280.839 586.667 287.051 640 287.869C693.333 288.686 746.667 284.109 800 282.201C853.333 280.294 906.667 281.057 933.333 281.384L960 281.765V327H933.333C906.667 327 853.333 327 800 327C746.667 327 693.333 327 640 327C586.667 327 533.333 327 480 327C426.667 327 373.333 327 320 327C266.667 327 213.333 327 160 327C106.667 327 53.3333 327 26.6667 327H0L0 283.945Z" fill="#F3F3F3"/>
<path d="M0 292.12L26.6667 292.937C53.3333 293.755 106.667 295.39 160 296.643C213.333 297.951 266.667 298.823 320 297.679C373.333 296.48 426.667 293.21 480 294.572C533.333 295.935 586.667 301.93 640 304.491C693.333 306.998 746.667 306.126 800 303.728C853.333 301.385 906.667 297.57 933.333 295.662L960 293.755V327H933.333C906.667 327 853.333 327 800 327C746.667 327 693.333 327 640 327C586.667 327 533.333 327 480 327C426.667 327 373.333 327 320 327C266.667 327 213.333 327 160 327C106.667 327 53.3333 327 26.6667 327H0L0 292.12Z" fill="#F9F9F9"/>
<path d="M0 311.195L26.6667 311.903C53.3333 312.666 106.667 314.083 160 314.737C213.333 315.391 266.667 315.173 320 315.01C373.333 314.846 426.667 314.628 480 313.92C533.333 313.211 586.667 311.903 640 311.031C693.333 310.105 746.667 309.56 800 310.268C853.333 311.031 906.667 312.993 933.333 314.029L960 315.01V327H933.333C906.667 327 853.333 327 800 327C746.667 327 693.333 327 640 327C586.667 327 533.333 327 480 327C426.667 327 373.333 327 320 327C266.667 327 213.333 327 160 327C106.667 327 53.3333 327 26.6667 327H0L0 311.195Z" fill="white"/>
</g>
<defs>
<clipPath id="clip0_32:28">
<rect width="960" height="327" fill="white" transform="translate(1920 327) rotate(-180)"/>
</clipPath>
<clipPath id="clip1_32:28">
<rect width="960" height="327" fill="white" transform="matrix(1 0 0 -1 0 327)"/>
</clipPath>
</defs>
</svg>