<?xml version="1.0" encoding="utf-8"?>
<!-- Generator: Adobe Illustrator 23.0.6, SVG Export Plug-In . SVG Version: 6.00 Build 0)  -->
<svg version="1.1" id="Lager_1" xmlns="http://www.w3.org/2000/svg" xmlns:xlink="http://www.w3.org/1999/xlink" x="0px" y="0px"
	 viewBox="0 0 935 511" style="enable-background:new 0 0 935 511;" xml:space="preserve">
<style type="text/css">
	.st0{fill:#181329;}
	.st1{fill:#FFFFFF;}
	.st2{fill:none;}
	.st3{fill:#3BECD8;}
</style>
<g>
	<g>
		<g>
			<path class="st0" d="M-3757.2-472.8c-38.3,0-63.1,19.8-63.1,50.4c0,30.6,24.8,50.3,63.1,50.3c38.4,0,63.2-19.8,63.2-50.3
				C-3694-453-3718.8-472.8-3757.2-472.8z M-3757.2-379.3c-21.3,0-35-16.9-35-43c0-26.6,13.4-43.1,35-43.1s35,16.5,35,43.1
				C-3722.2-395.8-3735.6-379.3-3757.2-379.3z"/>
		</g>
		<g>
			<path class="st0" d="M-3425.8-470.8h-60.4v2.6h2.6c5.3,0,9.4,3.3,9.6,7.8v75.5c-0.1,4.5-4.3,8.1-9.4,8.1h-2.7v2.6h60.3
				c38.4,0,61.3-18,61.3-48.3C-3364.5-452.7-3387.4-470.8-3425.8-470.8z M-3427.9-381.5h-19.5v-82h19.5c22.2,0,35.4,15.4,35.4,41.1
				C-3392.5-396.8-3405.7-381.5-3427.9-381.5z"/>
		</g>
		<g>
			<path class="st0" d="M-3260-376.7v2.6h-51.3v-2.6h2.6c5.4,0,9.7-3.5,9.7-8v-75.5c-0.1-4.5-4.3-8-9.7-8h-2.6v-2.6h51.2v2.6h-2.5
				c-5.4,0-9.6,3.4-9.8,7.9v75.7c0.2,4.5,4.4,7.9,9.8,7.9H-3260z"/>
		</g>
		<g>
			<path class="st0" d="M-3097-390.4l-0.1,0.1c-4.7,6.8-16.7,18.2-44.9,18.2c-40.3-0.2-64.4-19-64.4-50.4
				c0-31.5,24.1-50.3,64.4-50.3c14.7,0,29.7,2.7,40.1,7.3l0.3,0.1v26.2h-2.2l-0.1-0.4c-5.4-17.7-16.9-25.9-36.2-25.9
				c-24.3,0-38.2,15.6-38.2,42.7c0,26.7,13.6,42.9,36.4,43.4c25.2,0.1,36.1-9.5,40.5-35.3l0.1-0.4l2.3,0L-3097-390.4z"/>
		</g>
	</g>
	<g>
		<path class="st0" d="M-3533.5-465.4v26.2h-2.3l-0.1-0.4c-5.4-17.7-16.9-26-36.2-26c-22.3,0-36.2,13.6-38,37.3h0l0,43.6
			c0,5,4.7,7.9,9.1,7.9h2.4v2.6h-49.8v-2.6h2.6c4.9,0,8.8-3.4,8.9-7.8v-75.9c-0.1-4.4-3.9-7.8-8.8-7.8h-2.7v-2.6l38.3,0v4.7
			c10-4.5,22.1-6.7,36.2-6.7c14.7,0,29.7,2.7,40.1,7.3L-3533.5-465.4z"/>
	</g>
	<g>
		<g>
			<path class="st0" d="M-3960.3-374.1h-54.7l0-2.6h3.8c5.6,0,10.3-4.1,10.4-9.2v-18.8l28.4,24.4c0.7,0.7,1.3,1.3,2.1,1.8
				c1.8,1.2,3.9,1.8,6.1,1.8h3.8L-3960.3-374.1z"/>
		</g>
	</g>
	<g>
		<path class="st0" d="M-3871.2-486.7l0,2.6h-3.8c-5.7,0-10.2,4-10.4,9v82.3c0,11.8,2,20.1,2,20.2l0.1,0.6h-2.4l-0.1-0.1
			l-114.9-98.5v-0.2c-0.2-10.5-2-17.6-2-17.7l-0.2-0.6h2.6l0.1,0.1l88.5,76v-61.9c-0.1-5-4.8-9.2-10.4-9.2h-3.8l0-2.6H-3871.2z"/>
	</g>
</g>
<g>
	<g>
		<path class="st0" d="M-3829.8-284.1l0,1.6h-13.4l0-1.6h1.2c1.7,0,3.1-1.4,3.1-3v-31.3c0-1.7-1.4-3-3.1-3h-1.2l0-1.6h13.4l0,1.6
			h-1.2c-1.7,0-3.1,1.3-3.1,3v31.3c0,1.7,1.4,3,3.1,3H-3829.8z"/>
	</g>
	<g>
		<path class="st0" d="M-3732.3-284.1v1.6h-12.7v-1.5h1.3c0.5,0,0.9-0.2,1.2-0.6c0.2-0.2,0.4-0.6,0.3-1l-2.8-21.6l-9.9,19.5
			c0,0-1.6,3.4-2,5.6l-0.1,0.4h-1.3l-12.9-25l-2.4,21c0,0.4,0.1,0.8,0.4,1.1c0.3,0.4,0.8,0.6,1.2,0.6h1.3v1.5h-11.4v-1.6h1.3
			c1.5,0,3.1-0.8,3.4-2.8l4.4-31.3h1.3l14.6,28l14.1-28h1.3l4.6,31.4c0.3,1.8,1.9,2.7,3.3,2.7H-3732.3z"/>
	</g>
	<g>
		<path class="st0" d="M-3650.1-284.1c-1.5,0-2.9-1.1-3.9-3l-14.1-31h-1.3l0,0.5c0,0.5-0.4,1.9-2,5.4c-0.1,0.1-0.1,0.2-0.1,0.3
			l-11.7,25c-0.9,1.9-2.4,3-4,3h-0.9v1.6h11.7v-1.6h-0.9c-0.6,0-1.1-0.3-1.4-0.7c-0.4-0.6-0.4-1.3-0.1-2.1l3-7h13.6l2.9,7.2
			c0.3,0.8,0.2,1.5-0.1,2c-0.3,0.4-0.8,0.7-1.4,0.7h-0.9v1.6h12.6v-1.6H-3650.1z M-3674.6-296.7l5.8-13.6l5.6,13.6H-3674.6z"/>
	</g>
	<g>
		<path class="st0" d="M-3564.5-299.6v1.6h-1.3c-0.7,0-1.3,0.2-1.6,0.5c-0.3,0.3-0.4,0.7-0.4,1.2v7l-0.1,0.1
			c-1.4,1.7-6.7,7.5-16.4,7.5c-11.5-0.1-19-7.2-19-18.2c0-11,7.4-18.2,19-18.2c5.3,0,9.5,1.1,13.4,3.5l0.2,0.1l1.4,8.8h-1.5
			l-0.1-0.4c-1.6-6.4-5.9-9.3-13.5-9.3c-8.4,0-13.8,6.1-13.8,15.5c0,9.4,5.5,15.5,13.9,15.5c4.8,0,8.6-1.5,11.9-4.6l0.1-7.3
			c0-0.5-0.1-0.9-0.4-1.2c-0.4-0.4-0.9-0.5-1.7-0.5c0,0,0,0,0,0h-1.3v-1.6H-3564.5z"/>
	</g>
	<g>
		<path class="st0" d="M-3489.8-291.6l-3.5,9.1h-23.8l0-1.6h1.3c1.5,0,2.7-1.1,2.8-2.5v-26.7c0-1.4-1.2-2.5-2.8-2.5h-1.3l0-1.6h17
			c2.3,0,5.3-0.5,6.1-0.9l0.7-0.3v7.6l-1.6,0v-1.4c0-1.4-1-2.4-2.3-2.4h-11.2v13.3h9.1c1.6,0,1.8-1.3,1.8-1.9v-1.2l1.6,0v8.9l-1.6,0
			v-1.2c0-0.7-0.2-1.8-1.7-1.9h-9.2v13.3h8.3c4.9-0.1,6.8-2.3,8.5-6.1l0.1-0.3H-3489.8z"/>
	</g>
	<g>
		<path class="st0" d="M-3342.7-323v1.6h-1.4c-1.3,0-2.4,0.9-2.5,2.2v22.3c0,9.1-6.3,15.2-15.7,15.2c-9.6,0-16.1-6.1-16.1-15.1
			v-22.3c0-1.3-1.1-2.3-2.5-2.3h-1.4v-1.6h12.4v1.6h-1.4c-1.4,0-2.4,1-2.5,2.2v21.5c0,7.9,4.6,13.2,11.5,13.2c7.2,0,12-5,12.1-12.5
			v-22.2c-0.1-1.3-1.1-2.2-2.5-2.2h-1.4v-1.6H-3342.7z"/>
	</g>
	<g>
		<path class="st0" d="M-3268.9-324.3v7.6l-1.6,0v-1.3c0-1.2-1-2.3-2.2-2.3h-11.4v16.4h9c1.2,0,2.2-1.1,2.2-2.3v-1.3l1.5,0v9.9
			l-1.5,0v-1.3c0-1.2-1-2.2-2.2-2.3h-9.1v14c0,1.7,1.4,3,3.1,3h1.2l0,1.6h-13.3l0-1.6h1.2c1.7,0,3.1-1.4,3.1-3.1v-31.5
			c0-1.5-1.4-2.7-3.1-2.7h-1.2l0-1.6h17c2.5,0,5.6-0.6,6.5-1L-3268.9-324.3z"/>
	</g>
</g>
<g>
	<path class="st0" d="M-3467.9-539.1h-174.6c0-46.9,39.1-84.8,87.3-84.8S-3467.9-585.9-3467.9-539.1z"/>
	<g>
		<path class="st0" d="M-3467.9-788.3v1.5c0,15.4-4.7,30.3-13.5,42.8c-10.8,17.2-25,25-40.9,32.6c-7.5-10.4-19.4-17.1-32.9-17.1
			c-22.6,0-40.9,18.9-40.9,42.1c0,6.3,1.3,12.3,3.8,17.7c-0.6,0.4-1.1,0.9-1.7,1.4c-13.5,11-25.9,23.4-36.2,37.6l-12.2,23.1
			c-2.7-17-1.3-29.9,0-37.6c8.6-49.6,47.5-66.8,61-124.9c1.9-8.4-0.4-15.3,0-19H-3467.9z"/>
	</g>
	<g>
		<path class="st0" d="M-3515.2-686.4c0,22.7-17.9,41.1-40,41.1c-7.1,0-14-1.9-20.1-5.6c14-11.1,28-19.7,37.4-25.3
			c7.2-4.3,14.5-7.7,21.7-11.1l1-0.5C-3515.2-687.3-3515.2-686.9-3515.2-686.4z"/>
	</g>
</g>
<g>
	<g>
		<g>
			<path class="st0" d="M-3959.7-307.9C-3959.8-307.9-3959.8-307.9-3959.7-307.9L-3959.7-307.9
				C-3959.8-307.9-3959.8-307.9-3959.7-307.9z"/>
		</g>
		<g>
			<path class="st0" d="M-3958.5-305c-0.4,0.1-0.8,0.1-1.1,0.2l-0.2,0c-37.4,6-51.6,0.8-56.9-4.6c-3.4-3.4-3.3-6.9-3.2-7.9
				c0-0.1,0-0.2,0.1-0.3c0.2-0.7,0.4-1.3,0.6-1.9c0.3-0.7,0.6-1.3,1-1.9c0.8-1.2,1.7-2.3,2.8-3.2c1.1-0.9,2.3-1.6,3.6-2
				c0.6-0.3,1.3-0.3,2-0.5c0.7-0.1,1.3-0.2,2-0.2c-0.6,0.2-1.3,0.3-1.9,0.6c-0.6,0.3-1.2,0.5-1.8,0.8c-1.1,0.6-2.1,1.4-2.9,2.4
				c-0.8,0.9-1.4,2-1.8,3.1c-0.2,0.6-0.4,1.1-0.5,1.7c-0.1,0.5-0.2,1.2-0.2,1.6v0c0,0.3-0.3,2.9,2.5,5.6c4,4,16.4,9.7,54.2,3.7
				c0.1,0,0.1,0,0.2,0c0.1,0,0.2,0,0.3,0c0,0,0,0,0,0c37-5.8,51.4-0.6,57,4.8c3.8,3.7,3.7,7.4,3.6,8.1c0,0.1,0,0.1,0,0.1h0
				c-0.1,0.2-0.1,0.3-0.2,0.5c-0.1,0.2-0.1,0.3-0.2,0.5c-0.2,0.3-0.3,0.6-0.5,0.9c-0.4,0.5-0.8,1-1.3,1.4c-0.9,0.8-2,1.4-3.1,1.7
				c-1.1,0.4-2.2,0.5-3.3,0.6c-0.6,0-1.1,0.1-1.6,0.1l-1.6-0.1l1.6-0.3c0.5-0.1,1-0.3,1.5-0.4c1-0.3,2-0.7,2.8-1.3
				c0.8-0.5,1.6-1.2,2.1-1.9c0.3-0.4,0.5-0.8,0.6-1.2c0.1-0.2,0.1-0.4,0.2-0.6c0-0.1,0-0.2,0-0.3c0,0,0,0,0-0.1h0
				c0-0.1,0.3-2.9-2.8-5.8c-4.2-4-16.7-9.7-53.1-4.1"/>
		</g>
	</g>
	<g>
		<g>
			<path class="st0" d="M-3212.9-294.8L-3212.9-294.8L-3212.9-294.8C-3212.9-294.8-3212.9-294.8-3212.9-294.8z"/>
			<path class="st0" d="M-3209.9-295.2L-3209.9-295.2c0,0,0-0.1,0-0.1h0C-3209.9-295.2-3209.9-295.2-3209.9-295.2z"/>
		</g>
		<g>
			<path class="st0" d="M-3154-305.1c-36.4-5.6-48.9,0.1-53.1,4.1c-2.8,2.6-2.8,5.1-2.8,5.7h0c0,0,0,0.1,0,0.1c0,0,0,0,0,0.1
				c0,0.1,0,0.2,0,0.3c0,0.2,0.1,0.4,0.2,0.6c0.1,0.4,0.4,0.8,0.6,1.2c0.5,0.7,1.3,1.4,2.1,1.9c0.8,0.6,1.8,0.9,2.8,1.3
				c0.5,0.1,1,0.3,1.5,0.4l1.6,0.3l-1.6,0.1c-0.5,0-1.1,0-1.6-0.1c-1.1-0.1-2.2-0.3-3.3-0.6c-1.1-0.4-2.2-0.9-3.1-1.7
				c-0.5-0.4-0.9-0.9-1.3-1.4c-0.2-0.3-0.4-0.6-0.5-0.9c-0.1-0.2-0.1-0.3-0.2-0.5c-0.1-0.2-0.1-0.3-0.2-0.5c0,0,0,0,0,0c0,0,0,0,0,0
				s0,0,0,0c-0.1-0.7-0.2-4.5,3.6-8.1c5.6-5.4,20.1-10.7,57-4.8c0,0,0,0,0,0l0,0c0.1,0,0.2,0,0.3,0c0.1,0,0.1,0,0.2,0
				c38,6.1,50.4,0.2,54.3-3.8c2.6-2.6,2.4-5.2,2.4-5.5v0c0-0.5-0.1-1.1-0.2-1.6c-0.1-0.6-0.3-1.2-0.5-1.7c-0.4-1.1-1-2.2-1.8-3.1
				c-0.8-0.9-1.8-1.8-2.9-2.4c-0.5-0.4-1.2-0.5-1.8-0.8c-0.6-0.2-1.3-0.4-1.9-0.6c0.6,0.1,1.3,0.1,2,0.2c0.6,0.2,1.3,0.2,2,0.5
				c1.3,0.4,2.5,1.1,3.6,2c1.1,0.9,2.1,2,2.8,3.2c0.4,0.6,0.7,1.3,1,1.9c0.3,0.6,0.5,1.2,0.6,1.9c0,0.1,0,0.2,0.1,0.3
				c0.1,1,0.1,4.5-3.2,7.9c-5.3,5.4-19.5,10.6-56.9,4.6l-0.2,0c-0.4-0.1-0.8-0.1-1.2-0.2"/>
		</g>
	</g>
</g>
<g>
	<g>
		<g>
			<path class="st1" d="M-2042.9-446c0-27-13.9-43.6-35.5-43.6c-21.5,0-35.5,16.7-35.5,43.6c0,26.9,14,43.5,35.5,43.5
				C-2056.8-402.4-2042.9-419.1-2042.9-446z M-2015.6-446c0,30.7-25.1,49.8-62.7,49.8c-37.5,0-62.6-19.1-62.6-49.8
				c0-30.8,25.1-49.9,62.6-49.9C-2040.8-495.9-2015.6-476.8-2015.6-446z"/>
		</g>
		<g>
			<path class="st1" d="M-1747-493.8c38,0,60.8,17.9,60.8,47.9c0,30-22.8,47.8-60.8,47.8h-59.8v-1.6h2.2c5.4,0,9.8-3.9,9.9-8.6
				v-75.5c-0.3-4.8-4.6-8.3-10.1-8.3h-2.1v-1.6L-1747-493.8z M-1769-404.6h20c22.1,0,35.9-15.4,35.9-41.4
				c0-26.1-13.6-41.6-35.9-41.6h-20L-1769-404.6z"/>
		</g>
		<g>
			<path class="st1" d="M-1631.9-398.2v-1.6h2.1c5.5,0,10.2-3.7,10.2-8.5v-75.5c0-4.8-4.7-8.5-10.2-8.5h-2.1v-1.6h50.2v1.6h-2
				c-5.6,0-10.1,3.6-10.3,8.4v75.7c0.2,4.8,4.7,8.4,10.3,8.4h2.1v1.6L-1631.9-398.2z"/>
		</g>
		<g>
			<path class="st1" d="M-1420.8-438.2l2.1,24c-6.9,10.1-21.4,18-44.5,18c-39.4-0.2-63.9-18.3-63.9-49.9c0-31.2,23.9-49.8,63.9-49.8
				c16.2,0,30.6,3.2,39.9,7.2v25.3h-1.4c-6-19.6-19.2-26.3-36.7-26.3c-25.7,0-38.7,17.2-38.7,43.2c0,26.4,13.6,43.4,36.9,43.9
				c25.3,0.1,36.6-9.7,41-35.7L-1420.8-438.2z"/>
		</g>
	</g>
	<g>
		<path class="st1" d="M-1922.1-399.8c-4.7,0-9.6-3.1-9.6-8.5l0.1-85.6l-37.3,0v1.6h2.2c5.1,0,9.2,3.5,9.3,8.3v75.9
			c-0.1,4.7-4.3,8.3-9.4,8.3h-2.1v1.6h48.8v-1.6H-1922.1z"/>
	</g>
	<g>
		<path class="st1" d="M-1895-495.9c-14.4,0-26.8,2.4-36.7,7v37c1.7-22.9,14.6-37.8,38.5-37.8c17.5,0,30.7,6.7,36.7,26.3h1.4v-25.3
			C-1864.5-492.7-1878.8-495.9-1895-495.9z"/>
	</g>
	<g>
		<g>
			<path class="st1" d="M-2285.3-399.8c-2.4,0-4.6-0.7-6.4-1.9c-0.8-0.5-1.5-1.1-2.1-1.8l-27.6-23.7v17.7c-0.1,5.4-5,9.7-10.9,9.7
				h-3.3l0,1.6h53.7l0-1.6H-2285.3z"/>
		</g>
	</g>
	<g>
		<path class="st1" d="M-2192.9-509.8l0,1.6h-3.3c-5.9,0-10.7,4.2-10.9,9.5v82.4c0,12,2,20.3,2,20.3h-1.6l-43.5-37.3l-25.2-21.6
			l-46-39.5c-0.2-10.7-2-17.8-2-17.8h1.8l38,32.6l33.5,28.8l17.8,15.3v-63c-0.1-5.3-5-9.7-10.9-9.7h-3.3l0-1.6H-2192.9z"/>
	</g>
</g>
<g>
	<g>
		<path class="st1" d="M-2151.4-306.6h-12.3l0-0.6h0.7c2,0,3.6-1.6,3.6-3.5V-342c0-2-1.6-3.5-3.6-3.5h-0.7l0-0.6h12.3l0,0.6h-0.7
			c-2,0-3.6,1.6-3.6,3.5v31.3c0,2,1.6,3.5,3.6,3.5h0.7L-2151.4-306.6z"/>
	</g>
	<g>
		<path class="st1" d="M-2058.6-310.3c0.3,2,2,3.1,3.8,3.1h0.8v0.6h-11.7v-0.5h0.8c1.1,0,2.2-1,2.1-2.2l-3-23.2l-10.6,20.9
			c0,0-1.6,3.4-2,5.8h-0.6l-13.6-26.2l-2.5,22.7c-0.1,1.2,0.9,2.2,2.1,2.2h0.8v0.5h-10.5v-0.6h0.8c1.9,0,3.6-1.2,3.9-3.2l4.4-30.8
			h0.6l14.9,28.6l14.4-28.6h0.5L-2058.6-310.3z"/>
	</g>
	<g>
		<path class="st1" d="M-1975.6-310.5c1.1,2.3,2.8,3.3,4.4,3.3h0.4v0.6h-11.6v-0.6h0.4c1.3,0,2.7-1.2,2-3.4l-3.1-7.5h-14.3l-3.1,7.3
			c-0.9,2.3,0.6,3.5,1.9,3.5h0.4v0.6h-10.7v-0.6h0.4c1.5,0,3.3-1,4.4-3.3l11.7-25c0,0,2.1-4.3,2.2-5.8h0.5L-1975.6-310.5z
			 M-1983.7-319.8l-6.3-15.4l-6.5,15.4H-1983.7z"/>
	</g>
	<g>
		<path class="st1" d="M-1889.5-313.1c-2.6,3.3-8.1,7.3-16.1,7.3c-11.1-0.1-18.5-6.8-18.5-17.7c0-11,7.4-17.7,18.5-17.7
			c5.2,0,9.4,1.1,13.2,3.4l1.2,8h-0.5c-1.6-6.6-6.1-9.7-14-9.7c-8.6,0-14.3,6.1-14.3,16c0,9.9,5.8,16,14.4,16
			c4.7,0,8.9-1.4,12.4-4.9l0.1-7.5c0-1.4-1-2.2-2.6-2.2h-0.8v-0.6h10.3v0.6h-0.8c-1.6,0-2.6,0.8-2.6,2.2L-1889.5-313.1z"/>
	</g>
	<g>
		<path class="st1" d="M-1814.8-306.6h-22.9l0-0.6h0.8c1.8,0,3.2-1.3,3.3-3v-26.7c0-1.7-1.4-3-3.3-3h-0.8l0-0.6h16.5
			c2.3,0,5.3-0.5,6.3-0.9v6.4l-0.6,0v-0.9c0-1.6-1.1-2.9-2.8-2.9h-11.7v14.3h9.6c1.6,0,2.3-1.1,2.3-2.4v-0.7l0.6,0v7.9l-0.6,0v-0.7
			c0-1.3-0.7-2.3-2.2-2.4h-9.8v14.3h8.8c5.4-0.1,7.3-2.7,8.9-6.4h0.6L-1814.8-306.6z"/>
	</g>
	<g>
		<path class="st1" d="M-1664.3-346.1v0.6h-0.9c-1.6,0-2.9,1.1-3,2.7v22.3c0,8.8-6.1,14.7-15.2,14.7c-9.4,0-15.6-5.9-15.6-14.6
			v-22.3c0-1.6-1.4-2.8-3-2.8h-0.9v-0.6h11.4v0.6h-0.9c-1.6,0-2.9,1.1-3,2.7v21.5c0,8.2,4.8,13.7,12,13.7c7.5,0,12.5-5.2,12.6-13
			v-22.2c-0.1-1.6-1.4-2.7-3-2.7h-0.9v-0.6L-1664.3-346.1z"/>
	</g>
	<g>
		<path class="st1" d="M-1590.6-345.5v1v3.7l-0.6,0v-0.8c0-1.5-1.2-2.7-2.7-2.8h-11.9v17.4h9.5c1.5,0,2.7-1.3,2.7-2.8v-0.8l0.6,0
			v8.9l-0.6,0v-0.8c0-1.5-1.2-2.7-2.7-2.8h-9.6v14.5c0,2,1.6,3.5,3.6,3.5h0.7l0,0.6h-12.3l0-0.6h0.7c2,0,3.6-1.6,3.6-3.5v-31.6
			c0-1.8-1.7-3.2-3.6-3.2h-0.7l0-0.6h16.5c2.4,0,5.7-0.6,6.7-1L-1590.6-345.5z"/>
	</g>
</g>
<g>
	<g>
		<g>
			<path class="st1" d="M-1789.4-563.2h-173.9c0.3-46.3,39.2-83.8,87-83.8C-1828.6-647-1789.7-609.5-1789.4-563.2z"/>
		</g>
	</g>
	<g>
		<g>
			<g>
				<path class="st1" d="M-1789.4-811.4v1c0,15.4-4.6,30.1-13.4,42.5c-10.7,17.1-24.6,24.7-40.4,32.2c-7.8-10.6-20.2-17-33.1-17
					c-22.9,0-41.5,19.1-41.5,42.6c0,6.1,1.2,12,3.7,17.5c-0.5,0.4-0.9,0.7-1.4,1.1c-14.7,12-26.6,24.3-36.4,37.8l-11.5,21.8
					c-1.8-12.4-1.8-24.6,0.2-36c4.2-24.4,15.9-41,28.2-58.6c12.8-18.2,26-36.9,32.8-66.4c1.3-5.5,0.7-10.3,0.3-14.2
					c-0.2-1.7-0.4-3.2-0.3-4.4H-1789.4z"/>
			</g>
		</g>
	</g>
	<g>
		<g>
			<g>
				<path class="st1" d="M-1836.8-710c0,22.4-17.8,40.6-39.6,40.6c-6.8,0-13.4-1.8-19.3-5.1c13.8-10.8,27.6-19.4,36.9-24.8
					c7.1-4.2,14.5-7.7,21.6-11l0.4-0.2C-1836.8-710.3-1836.8-710.2-1836.8-710z"/>
			</g>
		</g>
	</g>
</g>
<g>
	<g>
		<g>
			<g>
				<path class="st2" d="M-2220.5-318.2l0-0.3c0,0,0,0,0,0c0,0,0,0,0,0c0,0,0-0.1,0-0.1"/>
			</g>
		</g>
		<g>
			<g>
				<path class="st1" d="M-2220.5-318.6C-2220.5-318.5-2220.5-318.5-2220.5-318.6l0,0.1c0,0.1-0.1,0.2-0.1,0.3l0,0.1
					c0,0.1-0.1,0.2-0.1,0.3l-0.1,0.2c-0.1,0.3-0.3,0.6-0.5,0.8c-0.3,0.5-0.7,0.9-1.2,1.4c-0.8,0.7-1.8,1.3-3,1.7
					c-1,0.4-2,0.5-3.2,0.6l-0.6,0c-0.2,0-0.4,0-0.6,0c0.1,0,0.3-0.1,0.4-0.1c0.2-0.1,0.4-0.1,0.6-0.2c1-0.4,2-0.7,2.9-1.3
					c0.9-0.6,1.7-1.3,2.2-2c0.2-0.4,0.5-0.8,0.6-1.2c0.1-0.2,0.1-0.4,0.2-0.6c0-0.1,0-0.2,0.1-0.3l0-0.1l0-0.1
					c0-0.6-0.1-3.2-2.9-5.9c-4.2-3.9-16.5-9.7-52.3-4.3l-2,0.3l-0.8,0.1c-37.3,6-51.4,0.8-56.7-4.6c-3.2-3.2-3.2-6.5-3.1-7.6l0.2-1
					c0.1-0.4,0.3-0.8,0.4-1.2c0.3-0.6,0.6-1.2,1-1.9c0.8-1.2,1.7-2.3,2.8-3.1c1.2-0.9,2.4-1.6,3.6-1.9c0.4-0.2,0.9-0.3,1.3-0.3
					c-0.4,0.2-0.8,0.3-1.2,0.6c-1.1,0.5-2.1,1.3-3,2.4c-0.8,0.9-1.4,2-1.9,3.2c-0.2,0.6-0.4,1.2-0.5,1.8c-0.1,0.6-0.2,1.2-0.2,1.7
					c-0.1,0.5-0.2,3.1,2.5,5.8c4,3.9,16.1,9.6,52.6,4l4-0.6c35.6-5.4,49.7-0.3,55.1,5C-2220.4-322.9-2220.5-319.3-2220.5-318.6z"/>
			</g>
		</g>
	</g>
	<g>
		<g>
			<g>
				<path class="st1" d="M-1413.5-340.8c0,0.1,0,0.3,0,0.5c0,1.4-0.4,4.3-3.2,7c-5.3,5.4-19.4,10.5-56.7,4.6l-1.5-0.2l0,0l-0.2,0
					c-36.6-5.6-49.1,0.2-53.3,4.2c-2.5,2.3-2.9,4.7-2.9,5.6l0,0.3v0.1l0,0.1c0,0.1,0,0.2,0.1,0.3l0,0.1c0,0.1,0.1,0.3,0.2,0.5
					c0.1,0.4,0.4,0.8,0.6,1.2c0.5,0.7,1.2,1.4,2.2,2c0.8,0.5,1.7,0.9,2.9,1.3c0.2,0,0.4,0.1,0.6,0.2c0.2,0.1,0.3,0.1,0.5,0.1
					c-0.2,0-0.4,0-0.6,0c-0.2,0-0.4,0-0.6,0c-1-0.1-2.1-0.2-3.2-0.6c-1.2-0.4-2.2-1-3-1.7c-0.5-0.4-0.9-0.9-1.2-1.4
					c-0.2-0.3-0.3-0.6-0.5-0.8l-0.1-0.2c0-0.1-0.1-0.2-0.1-0.3l0-0.1c0-0.1-0.1-0.2-0.1-0.3l0-0.1l0,0c0-0.7-0.1-4.4,3.5-7.9
					c5.6-5.4,19.9-10.6,56.8-4.8l0.4,0.1l0.2,0c38.2,6.1,50.5,0.2,54.5-3.8c2.8-2.9,2.4-5.7,2.4-5.7c0-0.5-0.1-1.1-0.2-1.7
					c-0.1-0.6-0.3-1.1-0.5-1.8c-0.4-1.2-1.1-2.3-1.9-3.2c-0.9-1.1-1.9-1.9-2.9-2.4c-0.4-0.3-0.8-0.4-1.2-0.6
					c0.4,0.1,0.9,0.2,1.3,0.3c1.2,0.4,2.4,1,3.6,1.9c1,0.8,2,1.9,2.8,3.1c0.4,0.6,0.7,1.2,1,1.9c0.2,0.4,0.3,0.8,0.4,1.2
					L-1413.5-340.8z"/>
			</g>
			<g>
				<polygon class="st0" points="-1531.3,-319.1 -1531.3,-319.1 -1531.3,-318.9 				"/>
			</g>
		</g>
	</g>
</g>
<g>
	<g>
		<g>
			<path class="st3" d="M-930.2-384.4c0-27-13.9-43.6-35.5-43.6c-21.5,0-35.5,16.7-35.5,43.6c0,26.9,14,43.5,35.5,43.5
				C-944.1-340.8-930.2-357.5-930.2-384.4z M-902.9-384.4c0,30.7-25.1,49.8-62.7,49.8c-37.5,0-62.6-19.1-62.6-49.8
				c0-30.8,25.1-49.9,62.6-49.9C-928.1-434.3-902.9-415.2-902.9-384.4z"/>
		</g>
		<g>
			<path class="st3" d="M-634.3-432.2c38,0,60.8,17.9,60.8,47.9c0,30-22.8,47.8-60.8,47.8h-59.8v-1.6h2.2c5.4,0,9.8-3.9,9.9-8.6
				v-75.5c-0.3-4.8-4.6-8.3-10.1-8.3h-2.1v-1.6L-634.3-432.2z M-656.3-343h20c22.1,0,35.9-15.4,35.9-41.4
				c0-26.1-13.6-41.6-35.9-41.6h-20L-656.3-343z"/>
		</g>
		<g>
			<path class="st3" d="M-519.2-336.6v-1.6h2.1c5.5,0,10.2-3.7,10.2-8.5v-75.5c0-4.8-4.7-8.5-10.2-8.5h-2.1v-1.6h50.2v1.6h-2
				c-5.6,0-10.1,3.6-10.3,8.4v75.7c0.2,4.8,4.7,8.4,10.3,8.4h2.1v1.6L-519.2-336.6z"/>
		</g>
		<g>
			<path class="st3" d="M-308.1-376.6l2.1,24c-6.9,10.1-21.4,18-44.5,18c-39.4-0.2-63.9-18.3-63.9-49.9c0-31.2,23.9-49.8,63.9-49.8
				c16.2,0,30.6,3.2,39.9,7.2v25.3h-1.4c-6-19.6-19.2-26.3-36.7-26.3c-25.7,0-38.7,17.2-38.7,43.2c0,26.4,13.6,43.4,36.9,43.9
				c25.3,0.1,36.6-9.7,41-35.7L-308.1-376.6z"/>
		</g>
	</g>
	<g>
		<path class="st3" d="M-809.4-338.2c-4.7,0-9.6-3.1-9.6-8.5l0.1-85.6l-37.3,0v1.6h2.2c5.1,0,9.2,3.5,9.3,8.3v75.9
			c-0.1,4.7-4.3,8.3-9.4,8.3h-2.1v1.6h48.8v-1.6H-809.4z"/>
	</g>
	<g>
		<path class="st3" d="M-782.3-434.3c-14.4,0-26.8,2.4-36.7,7v37c1.7-22.9,14.6-37.8,38.5-37.8c17.5,0,30.7,6.7,36.7,26.3h1.4V-427
			C-751.8-431.1-766.1-434.3-782.3-434.3z"/>
	</g>
	<g>
		<g>
			<path class="st3" d="M-1172.6-338.2c-2.4,0-4.6-0.7-6.4-1.9c-0.8-0.5-1.5-1.1-2.1-1.8l-27.6-23.7v17.7c-0.1,5.4-5,9.7-10.9,9.7
				h-3.3l0,1.6h53.7l0-1.6H-1172.6z"/>
		</g>
	</g>
	<g>
		<path class="st3" d="M-1080.2-448.2l0,1.6h-3.3c-5.9,0-10.7,4.2-10.9,9.5v82.4c0,12,2,20.3,2,20.3h-1.6l-43.5-37.3l-25.2-21.6
			l-46-39.5c-0.2-10.7-2-17.8-2-17.8h1.8l38,32.6l33.5,28.8l17.8,15.3v-63c-0.1-5.3-5-9.7-10.9-9.7h-3.3l0-1.6H-1080.2z"/>
	</g>
</g>
<g>
	<g>
		<path class="st3" d="M-1038.7-245h-12.3l0-0.6h0.7c2,0,3.6-1.6,3.6-3.5v-31.3c0-2-1.6-3.5-3.6-3.5h-0.7l0-0.6h12.3l0,0.6h-0.7
			c-2,0-3.6,1.6-3.6,3.5v31.3c0,2,1.6,3.5,3.6,3.5h0.7L-1038.7-245z"/>
	</g>
	<g>
		<path class="st3" d="M-945.9-248.7c0.3,2,2,3.1,3.8,3.1h0.8v0.6h-11.7v-0.5h0.8c1.1,0,2.2-1,2.1-2.2l-3-23.2l-10.6,20.9
			c0,0-1.6,3.4-2,5.8h-0.6l-13.6-26.2l-2.5,22.7c-0.1,1.2,0.9,2.2,2.1,2.2h0.8v0.5h-10.5v-0.6h0.8c1.9,0,3.6-1.2,3.9-3.2l4.4-30.8
			h0.6l14.9,28.6l14.4-28.6h0.5L-945.9-248.7z"/>
	</g>
	<g>
		<path class="st3" d="M-862.9-248.9c1.1,2.3,2.8,3.3,4.4,3.3h0.4v0.6h-11.6v-0.6h0.4c1.3,0,2.7-1.2,2-3.4l-3.1-7.5h-14.3l-3.1,7.3
			c-0.9,2.3,0.6,3.5,1.9,3.5h0.4v0.6H-896v-0.6h0.4c1.5,0,3.3-1,4.4-3.3l11.7-25c0,0,2.1-4.3,2.2-5.8h0.5L-862.9-248.9z M-871-258.2
			l-6.3-15.4l-6.5,15.4H-871z"/>
	</g>
	<g>
		<path class="st3" d="M-776.8-251.5c-2.6,3.3-8.1,7.3-16.1,7.3c-11.1-0.1-18.5-6.8-18.5-17.7c0-11,7.4-17.7,18.5-17.7
			c5.2,0,9.4,1.1,13.2,3.4l1.2,8h-0.5c-1.6-6.6-6.1-9.7-14-9.7c-8.6,0-14.3,6.1-14.3,16c0,9.9,5.8,16,14.4,16
			c4.7,0,8.9-1.4,12.4-4.9l0.1-7.5c0-1.4-1-2.2-2.6-2.2h-0.8v-0.6h10.3v0.6h-0.8c-1.6,0-2.6,0.8-2.6,2.2L-776.8-251.5z"/>
	</g>
	<g>
		<path class="st3" d="M-702.1-245H-725l0-0.6h0.8c1.8,0,3.2-1.3,3.3-3v-26.7c0-1.7-1.4-3-3.3-3h-0.8l0-0.6h16.5
			c2.3,0,5.3-0.5,6.3-0.9v6.4l-0.6,0v-0.9c0-1.6-1.1-2.9-2.8-2.9h-11.7v14.3h9.6c1.6,0,2.3-1.1,2.3-2.4v-0.7l0.6,0v7.9l-0.6,0v-0.7
			c0-1.3-0.7-2.3-2.2-2.4h-9.8v14.3h8.8c5.4-0.1,7.3-2.7,8.9-6.4h0.6L-702.1-245z"/>
	</g>
	<g>
		<path class="st3" d="M-551.6-284.5v0.6h-0.9c-1.6,0-2.9,1.1-3,2.7v22.3c0,8.8-6.1,14.7-15.2,14.7c-9.4,0-15.6-5.9-15.6-14.6v-22.3
			c0-1.6-1.4-2.8-3-2.8h-0.9v-0.6h11.4v0.6h-0.9c-1.6,0-2.9,1.1-3,2.7v21.5c0,8.2,4.8,13.7,12,13.7c7.5,0,12.5-5.2,12.6-13v-22.2
			c-0.1-1.6-1.4-2.7-3-2.7h-0.9v-0.6L-551.6-284.5z"/>
	</g>
	<g>
		<path class="st3" d="M-477.9-283.9v1v3.7l-0.6,0v-0.8c0-1.5-1.2-2.7-2.7-2.8h-11.9v17.4h9.5c1.5,0,2.7-1.3,2.7-2.8v-0.8l0.6,0v8.9
			l-0.6,0v-0.8c0-1.5-1.2-2.7-2.7-2.8h-9.6v14.5c0,2,1.6,3.5,3.6,3.5h0.7l0,0.6h-12.3l0-0.6h0.7c2,0,3.6-1.6,3.6-3.5v-31.6
			c0-1.8-1.7-3.2-3.6-3.2h-0.7l0-0.6h16.5c2.4,0,5.7-0.6,6.7-1L-477.9-283.9z"/>
	</g>
</g>
<g>
	<g>
		<g>
			<path class="st3" d="M-676.7-501.6h-173.9c0.3-46.3,39.2-83.8,87-83.8C-715.9-585.4-677-547.9-676.7-501.6z"/>
		</g>
	</g>
	<g>
		<g>
			<g>
				<path class="st3" d="M-676.7-749.8v1c0,15.4-4.6,30.1-13.4,42.5c-10.7,17.1-24.6,24.7-40.4,32.2c-7.8-10.6-20.2-17-33.1-17
					c-22.9,0-41.5,19.1-41.5,42.6c0,6.1,1.2,12,3.7,17.5c-0.5,0.4-0.9,0.7-1.4,1.1c-14.7,12-26.6,24.3-36.4,37.8l-11.5,21.8
					c-1.8-12.4-1.8-24.6,0.2-36c4.2-24.4,15.9-41,28.2-58.6c12.8-18.2,26-36.9,32.8-66.4c1.3-5.5,0.7-10.3,0.3-14.2
					c-0.2-1.7-0.4-3.2-0.3-4.4H-676.7z"/>
			</g>
		</g>
	</g>
	<g>
		<g>
			<g>
				<path class="st3" d="M-724.1-648.4c0,22.4-17.8,40.6-39.6,40.6c-6.8,0-13.4-1.8-19.3-5.1c13.8-10.8,27.6-19.4,36.9-24.8
					c7.1-4.2,14.5-7.7,21.6-11l0.4-0.2C-724.1-648.7-724.1-648.6-724.1-648.4z"/>
			</g>
		</g>
	</g>
</g>
<g>
	<g>
		<g>
			<g>
				<path class="st3" d="M-1107.8-256.6l0-0.3c0,0,0,0,0,0c0,0,0,0,0,0c0,0,0-0.1,0-0.1"/>
			</g>
		</g>
		<g>
			<g>
				<path class="st3" d="M-1107.8-257C-1107.8-256.9-1107.8-256.9-1107.8-257l0,0.1c0,0.1-0.1,0.2-0.1,0.3l0,0.1
					c0,0.1-0.1,0.2-0.1,0.3l-0.1,0.2c-0.2,0.3-0.3,0.6-0.5,0.8c-0.3,0.5-0.7,0.9-1.2,1.4c-0.8,0.7-1.8,1.3-3,1.7
					c-1,0.4-2,0.5-3.2,0.6l-0.6,0c-0.2,0-0.4,0-0.6,0c0.1,0,0.3-0.1,0.4-0.1c0.2-0.1,0.4-0.1,0.6-0.2c1-0.4,2-0.7,2.8-1.3
					c0.9-0.6,1.7-1.3,2.2-2c0.2-0.4,0.5-0.8,0.6-1.2c0.1-0.2,0.1-0.4,0.2-0.6c0-0.1,0-0.2,0.1-0.3l0-0.1l0-0.1
					c0-0.6-0.1-3.2-2.9-5.9c-4.2-3.9-16.5-9.7-52.3-4.3l-2,0.3l-0.8,0.1c-37.3,6-51.4,0.8-56.7-4.6c-3.2-3.2-3.2-6.5-3.2-7.6l0.2-1
					c0.1-0.4,0.3-0.8,0.4-1.2c0.3-0.6,0.6-1.2,1-1.9c0.8-1.2,1.7-2.3,2.8-3.1c1.2-0.9,2.4-1.6,3.6-1.9c0.4-0.2,0.9-0.3,1.3-0.3
					c-0.4,0.2-0.8,0.3-1.2,0.6c-1.1,0.5-2.1,1.3-3,2.4c-0.8,0.9-1.4,2-1.9,3.2c-0.2,0.6-0.4,1.2-0.5,1.8c-0.1,0.6-0.2,1.2-0.2,1.7
					c-0.1,0.5-0.2,3.1,2.5,5.8c4,3.9,16.1,9.6,52.6,4l4-0.6c35.6-5.4,49.7-0.3,55.1,5C-1107.7-261.3-1107.8-257.7-1107.8-257z"/>
			</g>
		</g>
	</g>
	<g>
		<g>
			<g>
				<path class="st3" d="M-300.8-279.2c0,0.1,0,0.3,0,0.5c0,1.4-0.4,4.3-3.2,7c-5.3,5.4-19.4,10.5-56.7,4.6l-1.5-0.2l0,0l-0.2,0
					c-36.6-5.6-49.1,0.2-53.3,4.2c-2.5,2.3-2.9,4.7-2.9,5.6l0,0.3v0.1l0,0.1c0,0.1,0,0.2,0.1,0.4l0,0.1c0,0.1,0.1,0.3,0.2,0.5
					c0.1,0.4,0.4,0.8,0.6,1.2c0.5,0.7,1.2,1.4,2.2,2c0.8,0.5,1.7,0.9,2.9,1.3c0.2,0,0.4,0.1,0.6,0.2c0.2,0.1,0.3,0.1,0.5,0.1
					c-0.2,0-0.4,0-0.6,0c-0.2,0-0.4,0-0.6,0c-1-0.1-2.1-0.2-3.2-0.6c-1.2-0.4-2.2-1-3-1.7c-0.5-0.4-0.9-0.9-1.2-1.4
					c-0.2-0.3-0.3-0.6-0.5-0.8l-0.1-0.2c0-0.1-0.1-0.2-0.1-0.3l0-0.1c0-0.1-0.1-0.2-0.1-0.3l0-0.1l0,0c0-0.7-0.1-4.4,3.5-7.9
					c5.6-5.4,19.9-10.6,56.8-4.8l0.4,0.1l0.2,0c38.2,6.1,50.5,0.2,54.5-3.8c2.8-2.9,2.4-5.7,2.4-5.7c0-0.5-0.1-1.1-0.2-1.7
					c-0.1-0.6-0.3-1.1-0.5-1.8c-0.4-1.2-1.1-2.3-1.9-3.2c-0.9-1.1-1.9-1.9-2.9-2.4c-0.4-0.3-0.8-0.4-1.2-0.6
					c0.4,0.1,0.9,0.2,1.3,0.3c1.2,0.4,2.4,1,3.6,1.9c1,0.8,2,1.9,2.8,3.1c0.4,0.6,0.7,1.2,1,1.9c0.2,0.4,0.3,0.8,0.4,1.2
					L-300.8-279.2z"/>
			</g>
			<g>
				<polygon class="st3" points="-418.6,-257.5 -418.6,-257.5 -418.6,-257.3 				"/>
			</g>
		</g>
	</g>
</g>
<g>
	<g>
		<g>
			<path class="st1" d="M302.7,368.1c0-27-13.9-43.6-35.5-43.6c-21.5,0-35.5,16.7-35.5,43.6c0,26.9,14,43.5,35.5,43.5
				C288.8,411.7,302.7,395,302.7,368.1z M330,368.1c0,30.7-25.1,49.8-62.7,49.8c-37.5,0-62.6-19.1-62.6-49.8
				c0-30.8,25.1-49.9,62.6-49.9C304.8,318.2,330,337.3,330,368.1z"/>
		</g>
		<g>
			<path class="st1" d="M598.7,320.2c38,0,60.8,17.9,60.8,47.9c0,30-22.8,47.8-60.8,47.8h-59.8v-1.6h2.2c5.4,0,9.8-3.9,9.9-8.6
				v-75.5c-0.3-4.8-4.6-8.3-10.1-8.3h-2.1v-1.6L598.7,320.2z M576.6,409.5h20c22.1,0,35.9-15.4,35.9-41.4
				c0-26.1-13.6-41.6-35.9-41.6h-20L576.6,409.5z"/>
		</g>
		<g>
			<path class="st1" d="M713.7,415.9v-1.6h2.1c5.5,0,10.2-3.7,10.2-8.5v-75.5c0-4.8-4.7-8.5-10.2-8.5h-2.1v-1.6H764v1.6h-2
				c-5.6,0-10.1,3.6-10.3,8.4v75.7c0.2,4.8,4.7,8.4,10.3,8.4h2.1v1.6L713.7,415.9z"/>
		</g>
		<g>
			<path class="st1" d="M924.9,375.9l2.1,24c-6.9,10.1-21.4,18-44.5,18c-39.4-0.2-63.9-18.3-63.9-49.9c0-31.2,23.9-49.8,63.9-49.8
				c16.2,0,30.6,3.2,39.9,7.2v25.3H921c-6-19.6-19.2-26.3-36.7-26.3c-25.7,0-38.7,17.2-38.7,43.2c0,26.4,13.6,43.4,36.9,43.9
				c25.3,0.1,36.6-9.7,41-35.7L924.9,375.9z"/>
		</g>
	</g>
	<g>
		<path class="st1" d="M423.5,414.3c-4.7,0-9.6-3.1-9.6-8.5l0.1-85.6l-37.3,0v1.6h2.2c5.1,0,9.2,3.5,9.3,8.3V406
			c-0.1,4.7-4.3,8.3-9.4,8.3h-2.1v1.6h48.8v-1.6H423.5z"/>
	</g>
	<g>
		<path class="st1" d="M450.6,318.2c-14.4,0-26.8,2.4-36.7,7v37c1.7-22.9,14.6-37.8,38.5-37.8c17.5,0,30.7,6.7,36.7,26.3h1.4v-25.3
			C481.2,321.4,466.8,318.2,450.6,318.2z"/>
	</g>
	<g>
		<g>
			<path class="st1" d="M60.4,414.3c-2.4,0-4.6-0.7-6.4-1.9c-0.8-0.5-1.5-1.1-2.1-1.8l-27.6-23.7v17.7c-0.1,5.4-5,9.7-10.9,9.7H10
				l0,1.6h53.7l0-1.6H60.4z"/>
		</g>
	</g>
	<g>
		<path class="st1" d="M152.7,304.3l0,1.6h-3.3c-5.9,0-10.7,4.2-10.9,9.5v82.4c0,12,2,20.3,2,20.3h-1.6l-43.5-37.3l-25.2-21.6
			l-46-39.5c-0.2-10.7-2-17.8-2-17.8h1.8l38,32.6l33.5,28.8l17.8,15.3v-63c-0.1-5.3-5-9.7-10.9-9.7H99l0-1.6H152.7z"/>
	</g>
</g>
<g>
	<g>
		<path class="st1" d="M194.2,507.5h-12.3l0-0.6h0.7c2,0,3.6-1.6,3.6-3.5v-31.3c0-2-1.6-3.5-3.6-3.5h-0.7l0-0.6h12.3l0,0.6h-0.7
			c-2,0-3.6,1.6-3.6,3.5v31.3c0,2,1.6,3.5,3.6,3.5h0.7L194.2,507.5z"/>
	</g>
	<g>
		<path class="st1" d="M287,503.8c0.3,2,2,3.1,3.8,3.1h0.8v0.6H280v-0.5h0.8c1.1,0,2.2-1,2.1-2.2l-3-23.2l-10.6,20.9
			c0,0-1.6,3.4-2,5.8h-0.6l-13.6-26.2l-2.5,22.7c-0.1,1.2,0.9,2.2,2.1,2.2h0.8v0.5h-10.5v-0.6h0.8c1.9,0,3.6-1.2,3.9-3.2l4.4-30.8
			h0.6l14.9,28.6l14.4-28.6h0.5L287,503.8z"/>
	</g>
	<g>
		<path class="st1" d="M370.1,503.6c1.1,2.3,2.8,3.3,4.4,3.3h0.4v0.6h-11.6v-0.6h0.4c1.3,0,2.7-1.2,2-3.4l-3.1-7.5h-14.3l-3.1,7.3
			c-0.9,2.3,0.6,3.5,1.9,3.5h0.4v0.6h-10.7v-0.6h0.4c1.5,0,3.3-1,4.4-3.3l11.7-25c0,0,2.1-4.3,2.2-5.8h0.5L370.1,503.6z
			 M361.9,494.3l-6.3-15.4l-6.5,15.4H361.9z"/>
	</g>
	<g>
		<path class="st1" d="M456.1,501c-2.6,3.3-8.1,7.3-16.1,7.3c-11.1-0.1-18.5-6.8-18.5-17.7c0-11,7.4-17.7,18.5-17.7
			c5.2,0,9.4,1.1,13.2,3.4l1.2,8H454c-1.6-6.6-6.1-9.7-14-9.7c-8.6,0-14.3,6.1-14.3,16c0,9.9,5.8,16,14.4,16c4.7,0,8.9-1.4,12.4-4.9
			l0.1-7.5c0-1.4-1-2.2-2.6-2.2h-0.8v-0.6h10.3v0.6h-0.8c-1.6,0-2.6,0.8-2.6,2.2L456.1,501z"/>
	</g>
	<g>
		<path class="st1" d="M530.8,507.5h-22.9l0-0.6h0.8c1.8,0,3.2-1.3,3.3-3v-26.7c0-1.7-1.4-3-3.3-3H508l0-0.6h16.5
			c2.3,0,5.3-0.5,6.3-0.9v6.4l-0.6,0v-0.9c0-1.6-1.1-2.9-2.8-2.9h-11.7v14.3h9.6c1.6,0,2.3-1.1,2.3-2.4v-0.7l0.6,0v7.9l-0.6,0v-0.7
			c0-1.3-0.7-2.3-2.2-2.4h-9.8v14.3h8.8c5.4-0.1,7.3-2.7,8.9-6.4h0.6L530.8,507.5z"/>
	</g>
	<g>
		<path class="st1" d="M681.3,468v0.6h-0.9c-1.6,0-2.9,1.1-3,2.7v22.3c0,8.8-6.1,14.7-15.2,14.7c-9.4,0-15.6-5.9-15.6-14.6v-22.3
			c0-1.6-1.4-2.8-3-2.8h-0.9V468h11.4v0.6h-0.9c-1.6,0-2.9,1.1-3,2.7v21.5c0,8.2,4.8,13.7,12,13.7c7.5,0,12.5-5.2,12.6-13v-22.2
			c-0.1-1.6-1.4-2.7-3-2.7h-0.9V468L681.3,468z"/>
	</g>
	<g>
		<path class="st1" d="M755,468.6v1v3.7l-0.6,0v-0.8c0-1.5-1.2-2.7-2.7-2.8h-11.9v17.4h9.5c1.5,0,2.7-1.3,2.7-2.8v-0.8l0.6,0v8.9
			l-0.6,0v-0.8c0-1.5-1.2-2.7-2.7-2.8h-9.6v14.5c0,2,1.6,3.5,3.6,3.5h0.7l0,0.6h-12.3l0-0.6h0.7c2,0,3.6-1.6,3.6-3.5v-31.6
			c0-1.8-1.7-3.2-3.6-3.2h-0.7l0-0.6h16.5c2.4,0,5.7-0.6,6.7-1L755,468.6z"/>
	</g>
</g>
<g>
	<g>
		<g>
			<path class="st1" d="M556.1,250.9H382.4c0.3-46.3,39.1-83.8,86.8-83.8C516.9,167.1,555.8,204.6,556.1,250.9z"/>
		</g>
	</g>
	<g>
		<g>
			<path class="st3" d="M556.6,2.2v1.5c0,15.4-4.7,30.3-13.5,42.8c-10.8,17.2-25,25-40.9,32.6c-7.5-10.4-19.4-17.1-32.9-17.1
				c-22.6,0-40.9,18.9-40.9,42.1c0,6.3,1.3,12.3,3.8,17.7c-0.6,0.4-1.1,0.9-1.7,1.4c-13.5,11-25.9,23.4-36.2,37.6l-12.2,23.1
				c-2.7-17-1.3-29.9,0-37.6c8.6-49.6,47.5-66.8,61-124.9c1.9-8.4-0.4-15.3,0-19H556.6z"/>
		</g>
	</g>
	<g>
		<g>
			<g>
				<path class="st1" d="M508.8,104.1c0,22.4-17.7,40.6-39.5,40.6c-6.8,0-13.4-1.8-19.2-5.1c13.8-10.8,27.6-19.4,36.8-24.8
					c7.1-4.2,14.4-7.7,21.5-11l0.4-0.2C508.8,103.7,508.8,103.9,508.8,104.1z"/>
			</g>
		</g>
	</g>
</g>
<g>
	<g>
		<g>
			<g>
				<path class="st2" d="M125.1,495.9l0-0.3c0,0,0,0,0,0c0,0,0,0,0,0c0,0,0-0.1,0-0.1"/>
			</g>
		</g>
		<g>
			<g>
				<path class="st1" d="M125.1,495.5C125.1,495.6,125.1,495.6,125.1,495.5l0,0.1c0,0.1-0.1,0.2-0.1,0.3l0,0.1
					c0,0.1-0.1,0.2-0.1,0.3l-0.1,0.2c-0.1,0.3-0.3,0.6-0.5,0.8c-0.3,0.5-0.7,0.9-1.2,1.4c-0.8,0.7-1.8,1.3-3,1.7
					c-1,0.4-2,0.5-3.2,0.6l-0.6,0c-0.2,0-0.4,0-0.6,0c0.1,0,0.3-0.1,0.4-0.1c0.2-0.1,0.4-0.1,0.6-0.2c1-0.4,2-0.7,2.8-1.3
					c0.9-0.6,1.7-1.3,2.2-2c0.2-0.4,0.5-0.8,0.6-1.2c0.1-0.2,0.1-0.4,0.2-0.6c0-0.1,0-0.2,0-0.3l0-0.1l0-0.1c0-0.6-0.1-3.2-2.9-5.9
					c-4.2-3.9-16.5-9.7-52.3-4.3l-2,0.3l-0.8,0.1c-37.3,6-51.4,0.8-56.7-4.6c-3.2-3.2-3.2-6.5-3.2-7.6l0.2-1
					c0.1-0.4,0.3-0.8,0.4-1.2c0.3-0.6,0.6-1.2,1-1.9c0.8-1.2,1.7-2.3,2.7-3.1c1.2-0.9,2.4-1.6,3.6-1.9c0.4-0.2,0.9-0.3,1.3-0.3
					c-0.4,0.2-0.8,0.3-1.2,0.6c-1.1,0.5-2.1,1.3-3,2.4c-0.8,0.9-1.4,2-1.9,3.2c-0.2,0.6-0.4,1.2-0.5,1.8c-0.1,0.6-0.2,1.2-0.2,1.7
					c-0.1,0.5-0.2,3.1,2.5,5.8c4,3.9,16.1,9.6,52.6,4l4-0.6c35.6-5.4,49.7-0.3,55.1,5C125.2,491.2,125.2,494.8,125.1,495.5z"/>
			</g>
		</g>
	</g>
	<g>
		<g>
			<g>
				<path class="st1" d="M932.1,473.3c0,0.1,0,0.3,0,0.5c0,1.4-0.4,4.3-3.2,7c-5.3,5.4-19.4,10.5-56.7,4.6l-1.5-0.2l0,0l-0.2,0
					c-36.6-5.6-49.1,0.2-53.3,4.2c-2.5,2.3-2.9,4.7-2.9,5.6l0,0.3v0.1l0,0.1c0,0.1,0,0.2,0.1,0.3l0,0.1c0,0.1,0.1,0.3,0.2,0.5
					c0.1,0.4,0.4,0.8,0.6,1.2c0.5,0.7,1.2,1.4,2.2,2c0.8,0.5,1.7,0.9,2.9,1.3c0.2,0,0.4,0.1,0.6,0.2c0.2,0.1,0.3,0.1,0.5,0.1
					c-0.2,0-0.4,0-0.6,0c-0.2,0-0.4,0-0.6,0c-1-0.1-2.1-0.2-3.2-0.6c-1.2-0.4-2.2-1-3-1.7c-0.5-0.4-0.9-0.9-1.2-1.4
					c-0.2-0.3-0.3-0.6-0.5-0.8l-0.1-0.2c0-0.1-0.1-0.2-0.1-0.3l0-0.1c0-0.1-0.1-0.2-0.1-0.3l0-0.1l0,0c0-0.7-0.1-4.4,3.5-7.9
					c5.6-5.4,19.9-10.6,56.8-4.8l0.4,0.1l0.2,0c38.2,6.1,50.5,0.2,54.5-3.8c2.8-2.9,2.4-5.7,2.4-5.7c0-0.5-0.1-1.1-0.2-1.7
					c-0.1-0.6-0.3-1.1-0.5-1.8c-0.4-1.2-1.1-2.3-1.9-3.2c-0.9-1.1-1.9-1.9-2.9-2.4c-0.4-0.3-0.8-0.4-1.2-0.6
					c0.4,0.1,0.9,0.2,1.3,0.3c1.2,0.4,2.4,1,3.6,1.9c1,0.8,2,1.9,2.8,3.1c0.4,0.6,0.7,1.2,1,1.9c0.2,0.4,0.3,0.8,0.4,1.2
					L932.1,473.3z"/>
			</g>
			<g>
				<polygon class="st0" points="814.3,495 814.3,495 814.3,495.2 				"/>
			</g>
		</g>
	</g>
</g>
<g>
	<g>
		<g>
			<path class="st0" d="M41.3-490.3c-38.3,0-63.1,19.8-63.1,50.4c0,30.6,24.8,50.3,63.1,50.3c38.4,0,63.2-19.8,63.2-50.3
				C104.5-470.5,79.7-490.3,41.3-490.3z M41.3-396.8c-21.3,0-35-16.9-35-43c0-26.6,13.4-43.1,35-43.1s35,16.5,35,43.1
				C76.2-413.3,62.8-396.8,41.3-396.8z"/>
		</g>
		<g>
			<path class="st0" d="M372.7-488.3h-60.4v2.6h2.6c5.3,0,9.4,3.3,9.6,7.8v75.5c-0.1,4.5-4.3,8.1-9.4,8.1h-2.7v2.6h60.3
				c38.4,0,61.3-18,61.3-48.3C434-470.2,411.1-488.3,372.7-488.3z M370.6-399h-19.5v-82h19.5c22.2,0,35.4,15.4,35.4,41.1
				C406-414.3,392.7-399,370.6-399z"/>
		</g>
		<g>
			<path class="st0" d="M538.5-394.2v2.6h-51.3v-2.6h2.6c5.4,0,9.7-3.5,9.7-8v-75.5c0-4.5-4.3-8-9.7-8h-2.6v-2.6h51.2v2.6h-2.5
				c-5.4,0-9.6,3.4-9.8,7.9v75.7c0.2,4.5,4.4,7.9,9.8,7.9H538.5z"/>
		</g>
		<g>
			<path class="st0" d="M701.5-407.9l-0.1,0.1c-4.7,6.8-16.7,18.2-44.9,18.2c-40.3-0.2-64.4-19-64.4-50.4
				c0-31.5,24.1-50.3,64.4-50.3c14.7,0,29.7,2.7,40.1,7.3l0.3,0.1v26.2h-2.2l-0.1-0.4c-5.4-17.7-16.9-25.9-36.2-25.9
				c-24.3,0-38.2,15.6-38.2,42.7c0,26.7,13.6,42.9,36.4,43.4c25.2,0.1,36.1-9.5,40.5-35.3l0.1-0.4l2.3,0L701.5-407.9z"/>
		</g>
	</g>
	<g>
		<path class="st0" d="M265-482.9v26.2h-2.3l-0.1-0.4c-5.4-17.7-16.9-26-36.2-26c-22.3,0-36.2,13.6-38,37.3h0l0,43.6
			c0,5,4.7,7.9,9.1,7.9h2.4v2.6h-49.8v-2.6h2.6c4.9,0,8.8-3.4,8.9-7.8v-75.9c-0.1-4.4-3.9-7.8-8.8-7.8h-2.7v-2.6l38.3,0v4.7
			c10-4.5,22.1-6.7,36.2-6.7c14.7,0,29.7,2.7,40.1,7.3L265-482.9z"/>
	</g>
	<g>
		<g>
			<path class="st0" d="M-161.8-391.6h-54.7l0-2.6h3.8c5.6,0,10.3-4.1,10.4-9.2v-18.8l28.4,24.4c0.6,0.7,1.3,1.3,2.1,1.8
				c1.8,1.2,3.9,1.8,6.1,1.8h3.8L-161.8-391.6z"/>
		</g>
	</g>
	<g>
		<path class="st0" d="M-72.8-504.2l0,2.6h-3.8c-5.7,0-10.2,4-10.4,9v82.3c0,11.8,2,20.1,2,20.2l0.1,0.6h-2.4l-0.1-0.1L-202.3-488
			v-0.2c-0.2-10.5-2-17.6-2-17.7l-0.2-0.6h2.6l0.1,0.1l88.5,76v-61.9c-0.1-5-4.8-9.2-10.4-9.2h-3.8l0-2.6H-72.8z"/>
	</g>
</g>
<g>
	<g>
		<path class="st0" d="M-31.3-301.6l0,1.6h-13.4l0-1.6h1.2c1.7,0,3.1-1.4,3.1-3v-31.3c0-1.7-1.4-3-3.1-3h-1.2l0-1.6h13.4l0,1.6h-1.2
			c-1.7,0-3.1,1.3-3.1,3v31.3c0,1.7,1.4,3,3.1,3H-31.3z"/>
	</g>
	<g>
		<path class="st0" d="M66.2-301.6v1.6H53.5v-1.5h1.3c0.5,0,0.9-0.2,1.2-0.6c0.2-0.2,0.4-0.6,0.3-1l-2.8-21.6l-9.9,19.5
			c0,0-1.6,3.4-2,5.6l-0.1,0.4h-1.3l-13-25l-2.3,21c0,0.4,0.1,0.8,0.4,1.1c0.3,0.4,0.8,0.6,1.2,0.6H28v1.5H16.6v-1.6h1.3
			c1.5,0,3.1-0.8,3.4-2.8l4.4-31.3H27l14.6,28l14.1-28h1.3l4.6,31.4c0.3,1.8,1.9,2.7,3.3,2.7H66.2z"/>
	</g>
	<g>
		<path class="st0" d="M148.4-301.6c-1.5,0-2.9-1.1-3.9-3l-14-31h-1.3l0,0.5c0,0.5-0.4,1.9-2,5.4c0,0.1-0.1,0.2-0.1,0.3l-11.7,25
			c-0.9,1.9-2.4,3-4,3h-0.9v1.6h11.7v-1.6h-0.9c-0.5,0-1.1-0.3-1.4-0.7c-0.4-0.6-0.4-1.3-0.1-2.1l3-7h13.6l2.9,7.2
			c0.3,0.8,0.2,1.5-0.1,2c-0.3,0.4-0.8,0.7-1.4,0.7h-0.9v1.6h12.6v-1.6H148.4z M123.8-314.2l5.8-13.6l5.6,13.6H123.8z"/>
	</g>
	<g>
		<path class="st0" d="M234-317.1v1.6h-1.3c-0.7,0-1.3,0.2-1.7,0.5c-0.3,0.3-0.4,0.7-0.4,1.2v7l-0.1,0.1c-1.4,1.7-6.7,7.5-16.4,7.5
			c-11.5-0.1-19-7.2-19-18.2c0-11,7.4-18.2,19-18.2c5.3,0,9.5,1.1,13.4,3.5l0.2,0.1l1.4,8.8h-1.5l-0.1-0.4
			c-1.6-6.4-5.9-9.3-13.5-9.3c-8.4,0-13.8,6.1-13.8,15.5c0,9.4,5.5,15.5,13.9,15.5c4.8,0,8.6-1.5,11.9-4.6l0.1-7.3
			c0-0.5-0.1-0.9-0.4-1.2c-0.4-0.4-0.9-0.5-1.7-0.5c0,0,0,0,0,0h-1.3v-1.6H234z"/>
	</g>
	<g>
		<path class="st0" d="M308.7-309.1l-3.5,9.1h-23.8l0-1.6h1.3c1.5,0,2.7-1.1,2.8-2.5v-26.7c0-1.4-1.2-2.5-2.8-2.5h-1.3l0-1.6h17
			c2.3,0,5.3-0.5,6.1-0.9l0.7-0.3v7.6l-1.6,0v-1.4c0-1.4-1-2.4-2.3-2.4h-11.2v13.3h9.1c1.6,0,1.8-1.3,1.8-1.9v-1.2l1.6,0v8.9l-1.6,0
			v-1.2c0-0.7-0.2-1.8-1.7-1.9h-9.2v13.3h8.3c4.9-0.1,6.8-2.3,8.5-6.1l0.1-0.3H308.7z"/>
	</g>
	<g>
		<path class="st0" d="M455.8-340.5v1.6h-1.4c-1.3,0-2.4,0.9-2.5,2.2v22.3c0,9.1-6.3,15.2-15.7,15.2c-9.7,0-16.1-6.1-16.1-15.1
			v-22.3c0-1.3-1.1-2.3-2.5-2.3h-1.4v-1.6h12.4v1.6h-1.4c-1.4,0-2.4,1-2.5,2.2v21.5c0,7.9,4.6,13.2,11.5,13.2c7.2,0,12-5,12.1-12.5
			v-22.2c-0.1-1.3-1.1-2.2-2.5-2.2h-1.4v-1.6H455.8z"/>
	</g>
	<g>
		<path class="st0" d="M529.5-341.8v7.6l-1.6,0v-1.3c0-1.2-1-2.3-2.2-2.3h-11.4v16.4h9c1.2,0,2.2-1.1,2.2-2.3v-1.3l1.5,0v9.9l-1.5,0
			v-1.3c0-1.2-1-2.2-2.2-2.3h-9.1v14c0,1.7,1.4,3,3.1,3h1.2l0,1.6h-13.3l0-1.6h1.2c1.7,0,3.1-1.4,3.1-3.1v-31.5
			c0-1.5-1.4-2.7-3.1-2.7h-1.2l0-1.6h17c2.5,0,5.6-0.6,6.5-1L529.5-341.8z"/>
	</g>
</g>
<g>
	<path class="st0" d="M330.6-556.6H155.9c0-46.9,39.1-84.8,87.3-84.8S330.6-603.5,330.6-556.6z"/>
	<g>
		<path class="st3" d="M330.6-805.8v1.5c0,15.4-4.7,30.3-13.5,42.8c-10.8,17.2-25,25-40.9,32.6c-7.5-10.4-19.4-17.1-32.9-17.1
			c-22.6,0-40.9,18.9-40.9,42.1c0,6.3,1.3,12.3,3.8,17.7c-0.6,0.4-1.1,0.9-1.7,1.4c-13.5,11-25.9,23.4-36.2,37.6l-12.2,23.1
			c-2.7-17-1.3-29.9,0-37.6c8.6-49.6,47.5-66.8,61-124.9c1.9-8.4-0.4-15.3,0-19H330.6z"/>
	</g>
	<g>
		<path class="st0" d="M283.3-703.9c0,22.7-17.9,41.1-40,41.1c-7.1,0-14-1.9-20.1-5.6c14-11.1,28-19.7,37.4-25.3
			c7.2-4.3,14.5-7.7,21.7-11.1l1-0.5C283.2-704.8,283.3-704.4,283.3-703.9z"/>
	</g>
</g>
<g>
	<g>
		<g>
			<path class="st0" d="M-161.3-325.4C-161.3-325.4-161.3-325.4-161.3-325.4L-161.3-325.4C-161.3-325.4-161.3-325.4-161.3-325.4z"/>
		</g>
		<g>
			<path class="st0" d="M-160-322.5c-0.4,0.1-0.8,0.1-1.1,0.2l-0.2,0c-37.4,6-51.6,0.8-56.9-4.6c-3.4-3.4-3.3-6.9-3.2-7.9
				c0-0.1,0-0.2,0.1-0.3c0.2-0.7,0.4-1.3,0.6-1.9c0.3-0.7,0.6-1.3,1-1.9c0.8-1.2,1.7-2.3,2.8-3.2c1.1-0.9,2.3-1.6,3.6-2
				c0.6-0.3,1.3-0.3,2-0.5c0.7-0.1,1.3-0.2,2-0.2c-0.6,0.2-1.3,0.3-1.9,0.6c-0.6,0.3-1.2,0.5-1.8,0.8c-1.1,0.6-2.1,1.4-2.9,2.4
				c-0.8,0.9-1.4,2-1.8,3.1c-0.2,0.6-0.4,1.1-0.5,1.7c-0.1,0.5-0.2,1.2-0.2,1.6v0c0,0.3-0.3,2.9,2.5,5.6c4,4,16.4,9.7,54.2,3.7
				c0.1,0,0.1,0,0.2,0c0.1,0,0.2,0,0.3,0c0,0,0,0,0,0c37-5.8,51.4-0.6,57,4.8c3.8,3.7,3.7,7.4,3.6,8.1c0,0.1,0,0.1,0,0.1h0
				c0,0.2-0.1,0.3-0.2,0.5c-0.1,0.2-0.1,0.3-0.2,0.5c-0.2,0.3-0.3,0.6-0.5,0.9c-0.4,0.5-0.8,1-1.3,1.4c-0.9,0.8-2,1.4-3.1,1.7
				c-1.1,0.4-2.2,0.5-3.3,0.6c-0.5,0-1.1,0.1-1.6,0.1l-1.6-0.1l1.6-0.3c0.5-0.1,1-0.3,1.5-0.4c1-0.3,2-0.7,2.8-1.3
				c0.8-0.5,1.6-1.2,2.1-1.9c0.3-0.4,0.5-0.8,0.6-1.2c0.1-0.2,0.1-0.4,0.2-0.6c0-0.1,0-0.2,0-0.3c0,0,0,0,0-0.1h0
				c0-0.1,0.3-2.9-2.8-5.8c-4.2-4-16.7-9.7-53.1-4.1"/>
		</g>
	</g>
	<g>
		<g>
			<path class="st0" d="M585.6-312.3L585.6-312.3L585.6-312.3C585.6-312.3,585.6-312.3,585.6-312.3z"/>
			<path class="st0" d="M588.6-312.7L588.6-312.7c0,0,0-0.1,0-0.1h0C588.6-312.7,588.6-312.7,588.6-312.7z"/>
		</g>
		<g>
			<path class="st0" d="M644.5-322.6c-36.5-5.6-48.9,0.1-53.1,4.1c-2.8,2.6-2.8,5.1-2.8,5.7h0c0,0,0,0.1,0,0.1c0,0,0,0,0,0.1
				c0,0.1,0,0.2,0,0.3c0,0.2,0.1,0.4,0.2,0.6c0.1,0.4,0.4,0.8,0.6,1.2c0.5,0.7,1.3,1.4,2.1,1.9c0.8,0.6,1.8,0.9,2.8,1.3
				c0.5,0.1,1,0.3,1.5,0.4l1.6,0.3l-1.6,0.1c-0.5,0-1.1,0-1.6-0.1c-1.1-0.1-2.2-0.3-3.3-0.6c-1.1-0.4-2.2-0.9-3.1-1.7
				c-0.5-0.4-0.9-0.9-1.3-1.4c-0.2-0.3-0.4-0.6-0.5-0.9c-0.1-0.2-0.2-0.3-0.2-0.5c-0.1-0.2-0.1-0.3-0.2-0.5c0,0,0,0,0,0c0,0,0,0,0,0
				s0,0,0,0c0-0.7-0.2-4.5,3.6-8.1c5.6-5.4,20.1-10.7,57-4.8c0,0,0,0,0,0l0,0c0.1,0,0.2,0,0.3,0c0.1,0,0.1,0,0.2,0
				c38,6.1,50.3,0.2,54.3-3.8c2.6-2.6,2.4-5.2,2.4-5.5v0c0-0.5-0.1-1.1-0.2-1.6c-0.1-0.6-0.3-1.2-0.5-1.7c-0.4-1.1-1-2.2-1.8-3.1
				c-0.8-0.9-1.8-1.8-2.9-2.4c-0.5-0.4-1.2-0.5-1.8-0.8c-0.6-0.2-1.3-0.4-1.9-0.6c0.7,0.1,1.3,0.1,2,0.2c0.6,0.2,1.3,0.2,2,0.5
				c1.3,0.4,2.5,1.1,3.6,2c1.1,0.9,2.1,2,2.8,3.2c0.4,0.6,0.7,1.3,1,1.9c0.3,0.6,0.5,1.2,0.6,1.9c0,0.1,0,0.2,0.1,0.3
				c0.1,1,0.2,4.5-3.2,7.9c-5.3,5.4-19.5,10.6-56.9,4.6l-0.2,0c-0.4-0.1-0.8-0.1-1.2-0.2"/>
		</g>
	</g>
</g>
</svg>
