<?xml version="1.0" encoding="utf-8"?>
<!-- Generator: Adobe Illustrator 23.0.6, SVG Export Plug-In . SVG Version: 6.00 Build 0)  -->
<svg version="1.1" id="Lager_1" xmlns="http://www.w3.org/2000/svg" xmlns:xlink="http://www.w3.org/1999/xlink" x="0px" y="0px"
	 viewBox="0 0 958 518.7" style="enable-background:new 0 0 958 518.7;" xml:space="preserve">
<style type="text/css">
	.st0{fill:#181329;}
</style>
<g>
	<g>
		<g>
			<g>
				<path class="st0" d="M278,317.5c-38.3,0-63.1,19.8-63.1,50.4c0,30.6,24.8,50.3,63.1,50.3c38.4,0,63.2-19.8,63.2-50.3
					C341.3,337.3,316.5,317.5,278,317.5z M278,410.9c-21.3,0-35-16.9-35-43c0-26.6,13.4-43.1,35-43.1c21.6,0,35,16.5,35,43.1
					C313,394.4,299.6,410.9,278,410.9z"/>
			</g>
			<g>
				<path class="st0" d="M609.4,319.5l-60.4,0v2.6h2.6c5.3,0,9.4,3.3,9.6,7.8v75.5c-0.1,4.5-4.3,8.1-9.4,8.1h-2.7v2.6h60.3
					c38.4,0,61.3-18,61.3-48.3C670.8,337.6,647.9,319.5,609.4,319.5z M607.4,408.8h-19.5l0-82h19.5c22.2,0,35.4,15.4,35.4,41.1
					C642.8,393.5,629.5,408.8,607.4,408.8z"/>
			</g>
			<g>
				<path class="st0" d="M775.3,413.6v2.6H724v-2.6h2.6c5.4,0,9.7-3.5,9.7-8v-75.5c0-4.5-4.3-8-9.7-8H724v-2.6h51.2v2.6h-2.6
					c-5.4,0-9.6,3.4-9.8,7.9l0,75.7c0.2,4.5,4.4,7.9,9.8,7.9H775.3z"/>
			</g>
			<g>
				<path class="st0" d="M938.2,399.9l-0.1,0.1c-4.7,6.8-16.7,18.2-44.9,18.2c-40.3-0.2-64.4-19-64.4-50.5
					c0-31.5,24.1-50.3,64.4-50.3c14.7,0,29.7,2.7,40.1,7.3l0.3,0.1V351h-2.3l-0.1-0.4c-5.4-17.7-16.9-25.9-36.2-25.9
					c-24.3,0-38.2,15.6-38.2,42.7c0,26.7,13.6,42.9,36.4,43.4h0.3c25,0,35.9-9.6,40.2-35.3l0.1-0.4l2.3,0L938.2,399.9z"/>
			</g>
		</g>
		<g>
			<path class="st0" d="M501.8,324.9V351h-2.3l-0.1-0.4c-5.4-17.7-16.9-26-36.2-26c-22.3,0-36.2,13.6-38,37.3h0l0,43.6
				c0,5,4.7,8,9.1,8h2.4v2.6h-49.8v-2.6h2.6c4.9,0,8.8-3.4,8.9-7.8v-75.9c-0.1-4.4-3.9-7.8-8.8-7.8h-2.7v-2.6l38.3,0v4.7
				c9.9-4.5,22.1-6.7,36.2-6.7c14.7,0,29.7,2.7,40.1,7.3L501.8,324.9z"/>
		</g>
		<g>
			<g>
				<path class="st0" d="M75,416.2H20.3l0-2.6H24c5.6,0,10.3-4.1,10.4-9.2v-18.8L62.9,410c0.6,0.7,1.3,1.3,2.1,1.8
					c1.8,1.2,3.9,1.8,6.1,1.8h3.8L75,416.2z"/>
			</g>
		</g>
		<g>
			<path class="st0" d="M164,303.6l0,2.6h-3.8c-5.7,0-10.3,4-10.4,9v82.3c0,11.8,2,20.2,2,20.2l0.2,0.6h-2.4l-0.1-0.1L34.5,319.8
				l0-0.2c-0.2-10.5-2-17.6-2-17.7l-0.2-0.6h2.6l0.1,0.1l88.5,76v-61.9c-0.1-5-4.8-9.2-10.4-9.2h-3.8l0-2.6H164z"/>
		</g>
	</g>
	<g>
		<g>
			<path class="st0" d="M195.6,515.1l0.1,2.7h-18.3l0-2.7h1.9c2,0,3.7-1.4,3.8-3.2v-37c-0.1-1.7-1.7-3.2-3.8-3.2h-1.9l0-2.7h18.3
				l-0.1,2.7h-1.9c-2,0-3.7,1.4-3.8,3.2v37.1c0,1.8,1.7,3.2,3.8,3.2H195.6z"/>
		</g>
		<g>
			<path class="st0" d="M309.2,515.1v2.7h-17.4v-2.6h2.1c0.6,0,1.1-0.2,1.5-0.6c0.2-0.3,0.3-0.5,0.3-0.8l-3.5-24.6l-12.5,22.3
				c0,0-2.1,3.9-2.5,6.5l-0.1,0.8h-2.1l-16.7-29l-3,23.9c0,0.4,0.1,0.7,0.3,0.8c0.3,0.4,0.9,0.6,1.4,0.6h2.1v2.6h-15.8v-2.7h2.1
				c1.8,0,3.8-0.9,4.1-2.9l5.9-37.4h2.2l19,32.9l18.4-32.9h2.1l6.1,37.5c0.4,2,2.3,2.8,4.1,2.8H309.2z"/>
		</g>
		<g>
			<path class="st0" d="M402.3,515.1c-1.9,0-3.7-1.2-4.9-3.4l-18.6-37h-2.2l-0.1,0.9c-0.1,0.5-0.4,1.9-2.6,6.2
				c-0.1,0.1-0.1,0.2-0.1,0.3l-15.4,29.6c-1.2,2.1-3,3.3-4.9,3.3h-1.6v2.7H368v-2.7h-1.6c-0.7,0-1.3-0.3-1.6-0.8
				c-0.4-0.6-0.2-1.4,0-2l3.8-8.1h17.5l3.8,8.3c0.3,0.8,0.3,1.4-0.1,1.9c-0.3,0.5-1,0.8-1.6,0.8h-1.6v2.7h17.3v-2.7H402.3z
				 M370.5,500.2l7-14.9l6.8,14.9H370.5z"/>
		</g>
		<g>
			<path class="st0" d="M500.5,496.7v2.7h-2c-0.9,0-1.6,0.2-2,0.6c-0.3,0.3-0.4,0.6-0.4,1.1v8.4l-0.3,0.3c-1.8,2.1-8.9,9-21.9,9
				c-15.4-0.1-25.4-8.7-25.4-22c0-13.4,9.9-22,25.3-22c7,0,12.6,1.3,17.8,4.2l0.4,0.2l1.9,11.1h-2.6l-0.2-0.7
				c-2-7.3-7.6-10.7-17.4-10.7c-11,0-17.9,6.9-17.9,18c0,10.9,7.1,18,18,18c6.1,0,11.1-1.7,15.3-5.3l0.1-8.4c0-0.4-0.1-0.8-0.4-1
				c-0.4-0.4-1.1-0.6-2.1-0.6c0,0,0,0,0,0h-2.1v-2.7H500.5z"/>
		</g>
		<g>
			<path class="st0" d="M584.3,506.2l-4.9,11.6h-31.8l0.1-2.7h2c1.8,0,3.2-1.1,3.3-2.6v-31.7c0-1.4-1.4-2.5-3.3-2.5h-2l-0.1-2.7
				h22.7c3,0,6.9-0.6,8-1l1.3-0.5v10l-2.8,0v-2c0-1.4-1.1-2.4-2.7-2.4h-14.4v15h11.7c1.7,0,2-1,2-1.8V491l2.8,0v11.4l-2.8,0v-1.8
				c0-0.8-0.3-1.8-1.9-1.8h-11.8v15h10.6c6.3-0.1,8.7-2.5,10.9-7l0.3-0.6H584.3z"/>
		</g>
		<g>
			<path class="st0" d="M708.1,469v2.7h-2.2c-1.6,0-2.8,0.9-2.9,2.2v26.3c0,11-8.4,18.5-21,18.5c-12.9,0-21.6-7.4-21.6-18.4V474
				c0-1.3-1.3-2.3-2.9-2.3h-2.2V469h17.1v2.7h-2.2c-1.6,0-2.9,1-2.9,2.3l0,25.5c0,9.3,5.8,15.2,14.8,15.2c9.4,0,15.5-5.6,15.5-14.4
				v-26.3c-0.1-1.3-1.3-2.2-2.9-2.2h-2.2V469H708.1z"/>
		</g>
		<g>
			<path class="st0" d="M781.5,467.3v10l-2.7,0v-2c0-1.2-1.2-2.3-2.6-2.3h-14.7v18.7H773c1.4,0,2.6-1,2.6-2.3v-2l2.7,0V500l-2.7,0
				v-2c0-1.2-1.1-2.2-2.6-2.3h-11.6v16.2c0,1.8,1.7,3.2,3.8,3.2h1.9l0.1,2.7h-18.3l0.1-2.7h1.9c2,0,3.7-1.4,3.8-3.2v-37.4
				c0-1.5-1.7-2.8-3.7-2.8H749l0-2.7h22.7c3.2,0,7.3-0.7,8.5-1.2L781.5,467.3z"/>
		</g>
	</g>
	<path class="st0" d="M124.4,494.3c-6-10.6-25.6-10.7-35-10.8c-4.9,0-10.4,0.3-16.5,1c-2.8,0.3-4.3,0.6-6.1,0.9
		c-1.6,0.3-3.6,0.6-7.1,1.1c-5.8,0.8-11.3,1.6-18.1,2l-0.9,0.1c-7.4,0.4-11.1,0.6-16,0c-13.5-1.9-17.2-5.3-17.9-7.9
		c-0.1-0.3-0.5-2.1,0-4.3c0.6-2.3,2.5-4.8,3.1-5.3c1.1-1,3.3-3,5.6-4s4.4-2,4.4-2s-3.3,0-7.8,1c-0.3,0.1-7,0.9-10.5,7.3
		c-0.4,0.7-2.3,4.5-1.1,9c2,7.5,11.9,10,16.2,11l0.2,0.1c0.6,0.2,2.6,0.6,7.4,1c9.6,0.8,17.1,0.2,19.6,0c4.9-0.4,7.2-0.7,11-1.3
		c2.8-0.4,6.4-0.9,12.5-1.7c14.4-1.8,19-2,22.2-2c0.1,0,6.5-0.2,14.9,1c4.9,0.7,7.2,1.3,9.5,2.8c3.7,2.3,5.7,4.7,5.4,6.6
		c-0.2,1.5-1.1,2.8-1.6,3.2c-1.7,1.3-3.3,3-5.6,4c-1.8,0.8-4.4,2-4.4,2s8.9,0,12.2-2c3.3-2,4.4-3,5.7-5.5
		C126.5,499.5,126,497.1,124.4,494.3z"/>
	<path class="st0" d="M833.6,494.3c6-10.6,25.6-10.7,35-10.8c4.9,0,10.4,0.3,16.5,1c2.8,0.3,4.3,0.6,6.1,0.9
		c1.6,0.3,3.6,0.6,7.1,1.1c5.8,0.8,11.3,1.6,18.1,2l0.9,0.1c7.4,0.4,11.1,0.6,16,0c13.5-1.9,17.2-5.3,17.9-7.9
		c0.1-0.3,0.5-2.1,0-4.3c-0.6-2.3-2.5-4.8-3.1-5.3c-1.1-1-3.3-3-5.6-4c-2.2-1-4.4-2-4.4-2s3.3,0,7.8,1c0.3,0.1,7,0.9,10.5,7.3
		c0.4,0.7,2.3,4.5,1.1,9c-2,7.5-11.9,10-16.2,11l-0.2,0.1c-0.6,0.2-2.6,0.6-7.4,1c-9.6,0.8-17.1,0.2-19.6,0c-4.9-0.4-7.2-0.7-11-1.3
		c-2.8-0.4-6.4-0.9-12.5-1.7c-14.4-1.8-19-2-22.2-2c-0.1,0-6.5-0.2-14.9,1c-4.9,0.7-7.2,1.3-9.5,2.8c-3.7,2.3-5.7,4.7-5.4,6.6
		c0.2,1.5,1.1,2.8,1.6,3.2c1.7,1.3,3.3,3,5.6,4c1.8,0.8,4.4,2,4.4,2s-8.9,0-12.2-2s-4.4-3-5.7-5.5
		C831.5,499.5,832,497.1,833.6,494.3z"/>
	<g>
		<path class="st0" d="M568,251H392.1c0-47.2,39.4-85.5,88-85.5C528.6,165.5,568,203.8,568,251z"/>
		<g>
			<path class="st0" d="M568,0v1.5c0,15.5-4.8,30.6-13.6,43.1c-10.9,17.4-25.2,25.2-41.2,32.8c-7.5-10.4-19.6-17.2-33.2-17.2
				c-22.8,0-41.2,19-41.2,42.4c0,6.4,1.4,12.4,3.8,17.8c-0.6,0.5-1.1,0.9-1.7,1.4c-13.6,11.1-26.1,23.6-36.5,37.9l-12.3,23.3
				c-2.7-17.1-1.4-30.1,0-37.9c8.6-50,47.8-67.3,61.4-125.9c2-8.4-0.4-15.4,0-19.1H568z"/>
		</g>
		<g>
			<path class="st0" d="M520.3,102.6c0,22.9-18.1,41.4-40.3,41.4c-7.2,0-14.1-1.9-20.3-5.6c14.1-11.1,28.2-19.9,37.7-25.5
				c7.2-4.3,14.7-7.8,21.8-11.1l1-0.5C520.3,101.7,520.3,102.1,520.3,102.6z"/>
		</g>
	</g>
</g>
</svg>
